<svg xmlns="http://www.w3.org/2000/svg" viewBox="0 0 186.724 60"><defs><style>.a,.b{fill:#fff;}.a,.c{fill-rule:evenodd;}.c{fill:#e6e8e7;}</style></defs><g transform="translate(0 0.1)"><path class="a" d="M668.356,125.635v-7.418h-5.308V111l-7.728,2.32v4.9H651.2v7.418h4.12v9.126c0,7.217,2.942,10.259,13.036,9.227V136.98c-3.4.21-5.308,0-5.308-2.22v-9.126Zm21.541-7.418v14.068c0,3.654-1.955,5.308-4.8,5.308-2.476,0-4.485-1.489-4.485-4.686V118.217h-7.728v15.822c0,6.961,4.431,10.67,9.638,10.67,3.4,0,5.974-1.233,7.372-3.143v2.421h7.728v-25.77Zm21.13,4.586v-4.586H703.3v25.77h7.729V132.34c0-5.1,4.531-6.395,7.728-5.874v-8.761c-3.243,0-6.7,1.644-7.728,5.1Zm26.437-5.308c-3.4,0-5.974,1.233-7.372,3.143v-2.421h-7.728v25.77h7.728V129.919c0-3.663,1.955-5.308,4.8-5.308,2.476,0,4.485,1.5,4.485,4.686v14.689H747.1V128.165c0-6.961-4.431-10.67-9.638-10.67Zm27.314,27.214a13.6,13.6,0,1,0-13.657-13.6,13.509,13.509,0,0,0,13.657,13.6Zm0-7.527a6.086,6.086,0,1,1,5.929-6.084A5.779,5.779,0,0,1,764.778,137.181Z" transform="translate(-591.711 -100.951)"/><rect class="b" width="11.41" height="15.502" transform="translate(0 13)"/><path class="a" d="M171.893,13V28.5H158.8V41.593h-6.221c-4.074-4.458-9.281-9.921-9.281-9.921V-.1h15.5V12.991h13.091Z" transform="translate(-130.209 0)"/><path class="c" d="M171.893,186.866h-5.536A23.127,23.127,0,0,1,143.3,163.809V143.3c1.818,11.419,9.546,28.063,23.057,28.063h5.536V168.02l8.952,11.09-8.952,11.09Z" transform="translate(-130.209 -130.3)"/></g></svg>