<?xml version="1.0" standalone="no"?>
<!DOCTYPE svg PUBLIC "-//W3C//DTD SVG 20010904//EN"
 "http://www.w3.org/TR/2001/REC-SVG-20010904/DTD/svg10.dtd">
<svg version="1.0" xmlns="http://www.w3.org/2000/svg"
 width="64.000000pt" height="64.000000pt" viewBox="0 0 64.000000 64.000000"
 preserveAspectRatio="xMidYMid meet">

<g transform="translate(0.000000,64.000000) scale(0.100000,-0.100000)"
fill="#000000" stroke="none">
<path d="M283 603 l117 -4 0 -34 c0 -33 2 -35 35 -35 19 0 35 4 35 8 0 4 -15
22 -33 40 l-33 32 -119 -2 -120 -2 118 -3z m157 -38 l23 -25 -26 0 c-22 0 -27
5 -27 25 0 14 1 25 3 25 2 0 14 -11 27 -25z"/>
<path d="M204 569 c-3 -6 -2 -15 3 -20 5 -5 9 -1 10 11 2 22 -2 25 -13 9z"/>
<path d="M279 567 c6 -8 7 -18 3 -22 -4 -5 -1 -5 6 -1 10 6 10 11 1 22 -6 8
-14 14 -16 14 -3 0 0 -6 6 -13z"/>
<path d="M238 553 c6 -2 18 -2 25 0 6 3 1 5 -13 5 -14 0 -19 -2 -12 -5z"/>
<path d="M57 513 c-3 -5 20 -7 51 -7 l57 2 -50 -7 -50 -6 -3 -152 -3 -153 33
1 c18 0 27 3 21 6 -10 3 -13 43 -13 149 l0 144 32 0 c25 0 29 -3 20 -12 -15
-15 -17 -158 -2 -158 6 0 10 -28 10 -65 0 -36 3 -65 8 -65 4 0 5 29 4 65 l-4
65 152 0 152 0 -4 -65 c-1 -36 0 -65 5 -65 4 0 7 29 7 65 0 37 4 65 10 65 15
0 13 143 -2 158 -9 9 -1 12 36 12 l47 0 -3 -150 c-2 -82 1 -146 5 -141 4 4 6
72 5 152 l-3 144 -50 6 -50 7 57 -2 c31 0 54 2 51 7 -2 4 -29 7 -59 7 -47 0
-54 -2 -54 -20 0 -19 -7 -20 -150 -20 -143 0 -150 1 -150 20 0 18 -7 20 -54
20 -30 0 -57 -3 -59 -7z m433 -118 l0 -65 -170 0 -170 0 0 65 0 65 170 0 170
0 0 -65z"/>
<path d="M194 426 c-11 -29 1 -61 24 -64 12 -2 22 1 22 7 0 6 -4 11 -10 11 -5
0 -10 14 -10 30 0 31 -16 41 -26 16z"/>
<path d="M252 428 c-25 -25 -6 -68 30 -68 9 0 21 7 26 16 8 15 10 15 15 0 7
-18 38 -21 54 -5 8 8 13 8 17 0 4 -6 16 -11 26 -11 16 0 19 7 18 36 -1 38 -20
53 -41 35 -10 -7 -17 -7 -24 0 -12 12 -53 3 -53 -12 0 -6 -7 -3 -16 5 -19 19
-36 20 -52 4z m38 -26 c0 -13 -12 -22 -22 -16 -10 6 -1 24 13 24 5 0 9 -4 9
-8z"/>
<path d="M253 513 c32 -2 81 -2 110 0 29 2 3 3 -58 3 -60 0 -84 -1 -52 -3z"/>
<path d="M253 493 c32 -2 81 -2 110 0 29 2 3 3 -58 3 -60 0 -84 -1 -52 -3z"/>
<path d="M42 329 c-2 -148 0 -168 16 -180 15 -12 16 -12 5 2 -8 10 -13 70 -16
180 l-3 164 -2 -166z"/>
<path d="M592 330 c-1 -115 -6 -170 -14 -180 -9 -10 -7 -10 5 1 16 14 17 33
14 180 l-3 164 -2 -165z"/>
<path d="M248 303 c28 -2 76 -2 105 0 28 2 5 3 -53 3 -58 0 -81 -1 -52 -3z"/>
<path d="M248 283 c28 -2 76 -2 105 0 28 2 5 3 -53 3 -58 0 -81 -1 -52 -3z"/>
<path d="M248 233 c28 -2 76 -2 105 0 28 2 5 3 -53 3 -58 0 -81 -1 -52 -3z"/>
<path d="M310 165 c0 -8 5 -15 10 -15 6 0 10 7 10 15 0 8 -4 15 -10 15 -5 0
-10 -7 -10 -15z"/>
<path d="M250 115 c0 -16 -6 -25 -15 -25 -8 0 -15 -7 -15 -15 0 -12 18 -15
100 -15 82 0 100 3 100 15 0 12 -16 15 -80 15 -72 0 -80 2 -80 19 0 11 8 22
18 24 13 4 11 5 -5 6 -18 1 -23 -4 -23 -24z m128 -42 c-21 -2 -57 -2 -80 0
-24 2 -7 4 37 4 44 0 63 -2 43 -4z"/>
<path d="M38 33 c6 -2 18 -2 25 0 6 3 1 5 -13 5 -14 0 -19 -2 -12 -5z"/>
<path d="M208 33 c61 -2 163 -2 225 0 61 1 11 3 -113 3 -124 0 -174 -2 -112
-3z"/>
<path d="M578 33 c6 -2 18 -2 25 0 6 3 1 5 -13 5 -14 0 -19 -2 -12 -5z"/>
</g>
</svg>
