<?xml version="1.0" standalone="no"?>
<!DOCTYPE svg PUBLIC "-//W3C//DTD SVG 20010904//EN"
 "http://www.w3.org/TR/2001/REC-SVG-20010904/DTD/svg10.dtd">
<svg version="1.0" xmlns="http://www.w3.org/2000/svg"
 width="153.000000pt" height="45.000000pt" viewBox="0 0 153.000000 45.000000"
 preserveAspectRatio="xMidYMid meet">

<g transform="translate(0.000000,45.000000) scale(0.100000,-0.100000)"
fill="#000000" stroke="none">
<path d="M24 425 l-25 -25 3 -186 c3 -170 5 -187 22 -200 29 -21 1453 -21
1482 0 17 13 19 30 22 200 l3 186 -25 25 -25 25 -716 0 -716 0 -25 -25z m481
-75 c4 -6 3 -10 -2 -9 -21 4 -33 -2 -33 -15 0 -19 17 -29 31 -20 8 4 7 9 -2
15 -11 7 -10 9 4 9 12 0 17 -6 15 -17 -5 -25 -52 -24 -56 0 -6 31 29 60 43 37z
m65 0 c0 -5 -8 -11 -17 -11 -16 -1 -15 -2 1 -6 15 -4 16 -7 5 -14 -12 -8 -12
-11 1 -19 12 -8 11 -10 -7 -10 -19 0 -23 6 -23 28 0 16 3 32 7 35 10 11 33 8
33 -3z m46 -6 c-3 -9 -6 -25 -6 -37 0 -27 -15 -11 -24 26 -5 23 -3 27 15 27
15 0 19 -4 15 -16z m41 -36 c-2 -13 -4 -5 -4 17 -1 22 1 32 4 23 2 -10 2 -28
0 -40z m46 20 c-8 -43 -13 -48 -13 -15 0 15 -4 27 -10 27 -5 0 -10 5 -10 10 0
6 9 10 20 10 17 0 19 -5 13 -32z m90 10 c14 -21 2 -48 -22 -48 -30 0 -45 34
-25 55 18 18 33 16 47 -7z m47 -10 c0 -5 -4 -7 -9 -3 -5 3 -12 -5 -14 -17 -3
-14 -5 -8 -6 16 -1 33 1 37 14 26 8 -7 15 -17 15 -22z m20 -5 c0 -23 -4 -33
-9 -27 -9 8 -4 64 5 64 2 0 4 -17 4 -37z m-615 -23 c128 -70 137 -83 73 -116
-29 -15 -31 -15 -62 12 -95 86 -134 128 -129 140 8 21 17 18 118 -36z m319
-56 c28 -11 7 -23 -28 -17 -29 4 -37 1 -51 -20 -29 -45 7 -96 60 -83 33 9 41
36 10 36 -14 0 -25 5 -25 10 0 6 16 10 35 10 41 0 45 -15 14 -54 -27 -34 -71
-35 -104 -1 -30 30 -32 64 -4 99 20 26 57 34 93 20z m386 -69 c0 -43 -4 -75
-10 -75 -6 0 -10 32 -10 75 0 43 4 75 10 75 6 0 10 -32 10 -75z m241 65 c38
-21 18 -80 -27 -80 -17 0 -23 -7 -26 -27 -2 -14 -9 -28 -15 -31 -10 -3 -13 16
-13 72 l0 76 31 0 c17 0 39 -5 50 -10z m57 -62 c-2 -46 -7 -73 -15 -76 -10 -3
-13 16 -13 72 0 62 3 76 15 76 13 0 15 -12 13 -72z m-567 12 c22 -12 26 -59 7
-78 -7 -7 -21 -12 -33 -12 -29 0 -45 19 -45 52 0 39 34 57 71 38z m110 0 c22
-12 26 -59 7 -78 -20 -20 -56 -14 -74 13 -15 23 -15 27 0 50 18 27 36 31 67
15z m127 -37 c2 -21 -2 -52 -8 -67 -8 -23 -15 -27 -42 -24 -17 2 -33 9 -36 15
-2 9 5 11 27 7 18 -4 31 -2 31 4 0 5 -13 12 -30 15 -65 13 -43 100 24 93 28
-3 31 -7 34 -43z m120 35 c19 -19 14 -28 -18 -39 -16 -6 -30 -16 -30 -21 0 -6
12 -8 30 -4 36 7 41 -11 5 -20 -18 -4 -32 -1 -45 11 -24 22 -25 43 -3 67 19
21 44 23 61 6z m290 0 c7 -7 12 -29 12 -49 0 -36 -1 -37 -37 -36 -31 2 -39 6
-41 24 -4 24 30 49 50 37 7 -4 8 -3 4 5 -4 6 -16 9 -27 6 -10 -4 -19 -2 -19 3
0 23 38 30 58 10z m53 -20 l15 -31 13 31 c11 27 31 44 31 27 0 -21 -56 -135
-67 -135 -10 0 -10 5 -1 25 9 21 8 32 -5 61 -9 19 -17 39 -17 44 0 21 17 9 31
-22z"/>
<path d="M756 343 c-3 -4 -6 -15 -6 -25 0 -24 33 -21 38 3 3 17 -21 33 -32 22z"/>
<path d="M1140 205 c0 -22 4 -26 23 -23 14 2 22 10 22 23 0 13 -8 21 -22 23
-19 3 -23 -1 -23 -23z"/>
<path d="M634 166 c-9 -24 4 -48 23 -44 12 2 18 12 18 28 0 29 -32 41 -41 16z"/>
<path d="M744 166 c-9 -24 4 -48 23 -44 12 2 18 12 18 28 0 29 -32 41 -41 16z"/>
<path d="M851 167 c-15 -19 -3 -49 18 -45 9 2 16 13 16 27 0 29 -17 37 -34 18z"/>
<path d="M997 173 c-12 -12 -7 -22 8 -17 8 4 15 10 15 15 0 11 -14 12 -23 2z"/>
<path d="M1285 139 c-4 -6 -4 -13 -1 -16 8 -8 36 5 36 17 0 13 -27 13 -35 -1z"/>
</g>
</svg>
