<?xml version="1.0" standalone="no"?>
<!DOCTYPE svg PUBLIC "-//W3C//DTD SVG 1.1//EN" "http://www.w3.org/Graphics/SVG/1.1/DTD/svg11.dtd" >
<svg xmlns="http://www.w3.org/2000/svg" xmlns:xlink="http://www.w3.org/1999/xlink" version="1.1">
<metadata>
Created by FontForge 20170731 at Thu Nov  5 22:02:29 2015
 By Aleksey,,,
Copyright (c) 2015 by Radomir Tinkov. All rights reserved.
</metadata>
<defs>
<font id="Qanelas-Thin" horiz-adv-x="500" >
  <font-face 
    font-family="Qanelas Thin"
    font-weight="250"
    font-stretch="normal"
    units-per-em="1000"
    panose-1="0 0 3 0 0 0 0 0 0 0"
    ascent="800"
    descent="-200"
    x-height="500"
    cap-height="700"
    bbox="-280 -240 1069 960"
    underline-thickness="50"
    underline-position="-150"
    unicode-range="U+0020-FB02"
  />
<missing-glyph 
d="M410 -200h-317v1000h317v-1000zM168 733v-33h65v-37h-66v-33h166v33h-66v37h66v33h-165zM167 604v-104h166v34h-66v70h-100zM233 534h-33v36h33v-36zM167 473v-33h66v-37h-66v-33h100v70h66v33h-166zM300 413v-66h-133v-34h166v100h-33zM233 291v-56h34v23h33v-47h-100
v80h-33v-113h166v113h-100zM167 118v-113h166v113h-166zM300 38h-100v47h100v-47zM167 -18v-33h70l-70 -47v-33h166v33h-102l70 47h32v33h-166z" />
    <glyph glyph-name="fi" unicode="fi" horiz-adv-x="489" 
d="M399 0h-20v482h-249v-482h-20v482h-90v18h90v40q0 170 179 170q52 0 100 -10v-18q-48 10 -100 10q-83 0 -121 -37.5t-38 -114.5v-40h269v-500z" />
    <glyph glyph-name="fl" unicode="fl" horiz-adv-x="489" 
d="M399 700v-700h-20v685q-36 7 -90 7q-83 0 -121 -37.5t-38 -114.5v-40h129v-18h-129v-482h-20v482h-90v18h90v40q0 170 179 170q52 0 110 -10z" />
    <glyph glyph-name="f_f" unicode="ff" horiz-adv-x="558" 
d="M537 703q-71 0 -104.5 -40t-33.5 -113v-50h159v-18h-159v-482h-20v482h-249v-482h-20v482h-90v18h90v40q0 80 39 125.5t117 45.5q15 0 23 -1v-18q-7 1 -21 1q-71 0 -104.5 -40t-33.5 -113v-40h249v50q0 80 39 125.5t117 45.5q15 0 23 -1v-18q-7 1 -21 1z" />
    <glyph glyph-name="f_f_i" unicode="ffi" horiz-adv-x="758" 
d="M668 0h-20v482h-249v-482h-20v482h-249v-482h-20v482h-90v18h90v40q0 80 39 125.5t117 45.5q15 0 23 -1v-18q-7 1 -21 1q-71 0 -104.5 -40t-33.5 -113v-40h249v50q0 170 179 170q52 0 100 -10v-18q-48 10 -100 10q-83 0 -121 -37.5t-38 -114.5v-50h269v-500z" />
    <glyph glyph-name="f_f_l" unicode="ffl" horiz-adv-x="758" 
d="M668 710v-710h-20v695q-36 7 -90 7q-83 0 -121 -37.5t-38 -114.5v-50h129v-18h-129v-482h-20v482h-249v-482h-20v482h-90v18h90v40q0 80 39 125.5t117 45.5q15 0 23 -1v-18q-7 1 -21 1q-71 0 -104.5 -40t-33.5 -113v-40h249v50q0 170 179 170q52 0 110 -10z" />
    <glyph glyph-name=".notdef" 
d="M410 -200h-317v1000h317v-1000zM168 733v-33h65v-37h-66v-33h166v33h-66v37h66v33h-165zM167 604v-104h166v34h-66v70h-100zM233 534h-33v36h33v-36zM167 473v-33h66v-37h-66v-33h100v70h66v33h-166zM300 413v-66h-133v-34h166v100h-33zM233 291v-56h34v23h33v-47h-100
v80h-33v-113h166v113h-100zM167 118v-113h166v113h-166zM300 38h-100v47h100v-47zM167 -18v-33h70l-70 -47v-33h166v33h-102l70 47h32v33h-166z" />
    <glyph glyph-name=".null" horiz-adv-x="0" 
 />
    <glyph glyph-name="nonmarkingreturn" horiz-adv-x="333" 
 />
    <glyph glyph-name="space" unicode=" " horiz-adv-x="300" 
 />
    <glyph glyph-name="exclam" unicode="!" horiz-adv-x="200" 
d="M90 700h20v-540h-20v540zM90 60h20v-60h-20v60z" />
    <glyph glyph-name="quotedbl" unicode="&#x22;" horiz-adv-x="260" 
d="M60 700h20v-160h-20v160zM180 700h20v-160h-20v160z" />
    <glyph glyph-name="numbersign" unicode="#" horiz-adv-x="612" 
d="M439 430l-26 -160h120l-4 -20h-120l-33 -200h-20l33 200h-200l-33 -200h-20l33 200h-119l3 20h120l26 160h-120l3 20h121l33 200h20l-33 -200h200l33 200h20l-33 -200h119l-3 -20h-120zM419 430h-200l-26 -160h200z" />
    <glyph glyph-name="dollar" unicode="$" horiz-adv-x="550" 
d="M402.5 313.5q40.5 -21.5 69 -59t28.5 -94.5q0 -78 -58.5 -124t-151.5 -46h-5v-90h-20v91q-98 5 -156.5 52t-58.5 127h20q0 -70 51.5 -113t143.5 -48v343q-61 23 -102 46t-68 60t-27 92q0 70 54.5 114t142.5 46v90h20v-90q53 -2 97 -25.5t70 -63t26 -86.5h-20q0 40 -22 75
t-61.5 57.5t-89.5 24.5v-327l7 -3q70 -27 110.5 -48.5zM134 443q46 -39 131 -71v320q-83 -2 -130 -42.5t-47 -99.5q0 -68 46 -107zM429 50.5q51 42.5 51 109.5q0 52 -26 86.5t-64.5 54t-104.5 44.5v-337h5q88 0 139 42.5z" />
    <glyph glyph-name="percent" unicode="%" horiz-adv-x="769" 
d="M145 433.5q-35 19.5 -55 53.5t-20 75t20 75t55 53.5t78 19.5t78 -19.5t55 -53.5t20 -75t-19.5 -75t-54.5 -53.5t-79 -19.5q-43 0 -78 19.5zM619 700h22l-492 -700h-21zM318.5 469q37.5 37 37.5 93t-38 93t-95 37t-95 -37t-38 -93t38 -93t95 -37q58 0 95.5 37zM468 9.5
q-35 19.5 -55 53.5t-20 75t20 75t55 53.5t78 19.5t78 -19.5t55 -53.5t20 -75t-20 -75t-55 -53.5t-78 -19.5t-78 19.5zM641 45q38 37 38 93t-38 93t-95 37t-95 -37t-38 -93t38 -93t95 -37t95 37z" />
    <glyph glyph-name="ampersand" unicode="&#x26;" horiz-adv-x="660" 
d="M604 0l-92 88q-79 -98 -228 -98q-64 0 -115 24.5t-80 69t-29 101.5q0 70 38 125t100 83q-32 34 -48.5 69t-16.5 78q0 49 25.5 88t70 60.5t99.5 21.5t99.5 -22.5t70 -62.5t25.5 -90h-20q0 42 -21 78t-61 57.5t-93 21.5t-93 -20.5t-61 -55.5t-21 -76q0 -52 24 -90t76 -87
l257 -247q50 72 50 178h20q0 -50 -14 -100t-43 -91l107 -103h-26zM407 32q55 24 92 69l-260 250l-28 28q-62 -27 -96.5 -79.5t-34.5 -114.5q0 -54 27.5 -94t74 -61.5t102.5 -21.5q68 0 123 24z" />
    <glyph glyph-name="quotesingle" unicode="'" horiz-adv-x="130" 
d="M60 700h20v-160h-20v160z" />
    <glyph glyph-name="parenleft" unicode="(" horiz-adv-x="250" 
d="M60 350q0 230 110 450h20q-110 -220 -110 -450t110 -450h-20q-110 220 -110 450z" />
    <glyph glyph-name="parenright" unicode=")" horiz-adv-x="250" 
d="M60 -100q110 220 110 450t-110 450h20q110 -220 110 -450t-110 -450h-20z" />
    <glyph glyph-name="asterisk" unicode="*" horiz-adv-x="376" 
d="M306 596l-103 1l55 -87l-16 -10l-54 89l-54 -89l-16 10l55 87l-103 -1v18l103 -1l-55 87l16 10l54 -89l54 89l16 -10l-55 -87l103 1v-18z" />
    <glyph glyph-name="plus" unicode="+" horiz-adv-x="520" 
d="M450 341h-180v-181h-20v181h-180v18h180v181h20v-181h180v-18z" />
    <glyph glyph-name="comma" unicode="," horiz-adv-x="200" 
d="M120 60v-100q0 -63 -40 -78v17q11 7 15.5 21.5t4.5 39.5v100h20z" />
    <glyph glyph-name="hyphen" unicode="-" horiz-adv-x="560" 
d="M100 318h360v-18h-360v18z" />
    <glyph glyph-name="period" unicode="." horiz-adv-x="180" 
d="M80 60h20v-60h-20v60z" />
    <glyph glyph-name="slash" unicode="/" horiz-adv-x="520" 
d="M50 -100l400 900h20l-400 -900h-20z" />
    <glyph glyph-name="zero" unicode="0" horiz-adv-x="630" 
d="M178.5 34.5q-57.5 44.5 -88 126t-30.5 189.5t30.5 189.5t88 126t136.5 44.5t136.5 -44.5t88 -126t30.5 -189.5t-30.5 -189.5t-88 -126t-136.5 -44.5t-136.5 44.5zM440 49q53 41 81.5 118.5t28.5 182.5t-28.5 182.5t-81.5 118.5t-125 41t-125 -41t-81.5 -118.5
t-28.5 -182.5t28.5 -182.5t81.5 -118.5t125 -41t125 41z" />
    <glyph glyph-name="one" unicode="1" horiz-adv-x="315" 
d="M215 700v-700h-20v679l-175 -94v21l175 94h20z" />
    <glyph glyph-name="two" unicode="2" horiz-adv-x="530" 
d="M50 18l266 274q57 60 90.5 114.5t33.5 103.5q0 86 -48 134t-137 48q-54 0 -96 -22.5t-65.5 -63t-23.5 -91.5h-20q0 59 27.5 103t74.5 68t103 24q93 0 149 -52t56 -148q0 -94 -131 -231l-253 -261h404v-18h-430v18z" />
    <glyph glyph-name="three" unicode="3" horiz-adv-x="560" 
d="M394 381q50 -27 78 -74t28 -107q0 -62 -30 -109.5t-82.5 -74t-117.5 -26.5t-117.5 26.5t-82.5 74t-30 109.5h20q0 -54 25.5 -98t73.5 -69t111 -25t111 25t73.5 69t25.5 98t-25.5 98t-73.5 69t-111 25h-14v12l182 278h-368v18h390v-18l-178 -272q62 -2 112 -29z" />
    <glyph glyph-name="four" unicode="4" horiz-adv-x="560" 
d="M535 160h-90v-160h-20v160h-390v18l276 522h22l-276 -522h368v232h20v-232h90v-18z" />
    <glyph glyph-name="five" unicode="5" horiz-adv-x="550" 
d="M392.5 383.5q52.5 -26.5 82.5 -74t30 -109.5t-30 -109.5t-82.5 -74t-117.5 -26.5t-117.5 26.5t-82.5 74t-30 109.5h20q0 -54 25.5 -98t73.5 -69t111 -25t111 25t73.5 69t25.5 98t-25.5 98t-73.5 69t-111 25h-191l21 308h370v-18h-352l-18 -272h170q65 0 117.5 -26.5z" />
    <glyph glyph-name="six" unicode="6" horiz-adv-x="550" 
d="M395.5 421q53.5 -29 84 -81.5t30.5 -119.5t-30.5 -119.5t-84 -81.5t-120.5 -29t-120.5 29t-84 81.5t-30.5 119.5q0 78 43 139l245 341h22l-202 -283q57 33 127 33q67 0 120.5 -29zM389.5 36q48.5 28 74.5 76.5t26 107.5t-26 107.5t-74.5 76.5t-114.5 28t-114.5 -28
t-74.5 -76.5t-26 -107.5t26 -107.5t74.5 -76.5t114.5 -28t114.5 28z" />
    <glyph glyph-name="seven" unicode="7" horiz-adv-x="490" 
d="M440 700v-18l-287 -682h-20l288 682h-391v18h410z" />
    <glyph glyph-name="eight" unicode="8" horiz-adv-x="554" 
d="M463.5 297.5q40.5 -47.5 40.5 -117.5q0 -87 -61.5 -138.5t-165.5 -51.5t-165.5 51.5t-61.5 138.5q0 70 40.5 117.5t112.5 64.5q-61 18 -96 62.5t-35 106.5q0 52 26 93t72.5 63.5t106.5 22.5t106.5 -22.5t72.5 -63.5t26 -93q0 -62 -35 -106.5t-96 -62.5
q72 -17 112.5 -64.5zM113.5 449.5q21.5 -36.5 63.5 -58t100 -21.5t100 21.5t63.5 58t21.5 81.5t-21.5 81.5t-63.5 58t-100 21.5t-100 -21.5t-63.5 -58t-21.5 -81.5t21.5 -81.5zM430 56q54 48 54 124t-54 124t-153 48t-153 -48t-54 -124t54 -124t153 -48t153 48z" />
    <glyph glyph-name="nine" unicode="9" horiz-adv-x="550" 
d="M467 341l-245 -341h-22l202 283q-57 -33 -127 -33q-67 0 -120.5 29t-84 81.5t-30.5 119.5t30.5 119.5t84 81.5t120.5 29t120.5 -29t84 -81.5t30.5 -119.5q0 -78 -43 -139zM86 372.5q26 -48.5 74.5 -76.5t114.5 -28t114.5 28t74.5 76.5t26 107.5t-26 107.5t-74.5 76.5
t-114.5 28t-114.5 -28t-74.5 -76.5t-26 -107.5t26 -107.5z" />
    <glyph glyph-name="colon" unicode=":" horiz-adv-x="180" 
d="M80 60h20v-60h-20v60zM80 500h20v-60h-20v60z" />
    <glyph glyph-name="semicolon" unicode=";" horiz-adv-x="200" 
d="M120 60v-100q0 -63 -40 -78v17q11 7 15.5 21.5t4.5 39.5v100h20zM100 500h20v-60h-20v60z" />
    <glyph glyph-name="less" unicode="&#x3c;" horiz-adv-x="540" 
d="M470 522l-378 -172l378 -172v-20l-400 183v18l400 183v-20z" />
    <glyph glyph-name="equal" unicode="=" horiz-adv-x="530" 
d="M70 459h390v-18h-390v18zM70 259h390v-18h-390v18z" />
    <glyph glyph-name="greater" unicode="&#x3e;" horiz-adv-x="540" 
d="M470 359v-18l-400 -183v20l378 172l-378 172v20z" />
    <glyph glyph-name="question" unicode="?" horiz-adv-x="525" 
d="M244.5 240q15.5 37 37.5 65.5t59 67.5q48 52 71 87.5t23 79.5q0 69 -44.5 110.5t-130.5 41.5q-54 0 -97.5 -21.5t-68 -58t-24.5 -77.5h-20q0 49 29 89t77.5 63t103.5 23q90 0 142.5 -45.5t52.5 -124.5q0 -47 -24 -84.5t-73 -90.5q-54 -58 -81.5 -102.5t-27.5 -102.5h-20
q0 43 15.5 80zM229 60h20v-60h-20v60z" />
    <glyph glyph-name="at" unicode="@" horiz-adv-x="834" 
d="M610 562.5q80 -49.5 122 -128.5t42 -164q0 -106 -37.5 -154t-92.5 -48q-46 0 -67.5 29t-21.5 70v13q-18 -41 -55.5 -65.5t-86.5 -24.5q-46 0 -83 21t-58 58t-21 81t21 81t58 58t83 21q49 0 86.5 -24.5t55.5 -65.5v83h20v-236q0 -38 18 -59.5t51 -21.5q52 0 81 48.5
t29 135.5q0 90 -43.5 164t-119 117t-167.5 43q-95 0 -174 -45.5t-124.5 -124.5t-45.5 -174q0 -98 47 -176.5t129.5 -123t185.5 -44.5q98 0 167 26l7 -17q-75 -27 -174 -27q-108 0 -195 46.5t-137 129.5t-50 186q0 99 47.5 182t131 131.5t185.5 48.5q106 0 186 -49.5z
M514.5 148.5q40.5 40.5 40.5 101.5t-40.5 101.5t-101.5 40.5t-101.5 -40.5t-40.5 -101.5t40.5 -101.5t101.5 -40.5t101.5 40.5z" />
    <glyph glyph-name="A" unicode="A" horiz-adv-x="628" 
d="M507 191h-386l-75 -191h-21l277 700h24l277 -700h-21zM500 209l-186 470l-186 -470h372z" />
    <glyph glyph-name="B" unicode="B" horiz-adv-x="680" 
d="M596.5 370q43.5 -61 43.5 -140q0 -62 -29 -115t-79.5 -84t-112.5 -31h-309h-10v700h20h240q46 0 82.5 -20t57 -54.5t20.5 -75.5q0 -57 -37 -99q70 -20 113.5 -81zM120 682v-222h300q23 0 42 -4q18 18 28 42.5t10 51.5q0 36 -18 66.5t-50 48t-72 17.5h-240zM522 46.5
q46 28.5 72 77t26 106.5t-26 106.5t-71.5 77t-102.5 28.5h-300v-424h299q57 0 103 28.5z" />
    <glyph glyph-name="C" unicode="C" horiz-adv-x="778" 
d="M235.5 38q-82.5 48 -129 130.5t-46.5 181.5t46.5 181.5t129 130.5t184.5 48q71 0 135.5 -26.5t111.5 -74t70 -109.5h-21q-34 86 -115 139t-181 53q-97 0 -174.5 -46t-121.5 -124t-44 -172t44 -172.5t121.5 -124t174.5 -45.5q100 0 181 53t115 139h22q-36 -94 -122.5 -152
t-195.5 -58q-102 0 -184.5 48z" />
    <glyph glyph-name="D" unicode="D" horiz-adv-x="760" 
d="M539.5 653q75.5 -47 118 -127t42.5 -176t-42.5 -176t-118 -127t-169.5 -47h-260h-10v700h20h250q94 0 169.5 -47zM530 62.5q71 44.5 110.5 120.5t39.5 167t-39.5 167t-110.5 120.5t-160 44.5h-250v-664h250q89 0 160 44.5z" />
    <glyph glyph-name="E" unicode="E" horiz-adv-x="520" 
d="M470 18v-18h-360h-10v700h20h345v-18h-345v-320h320v-18h-320v-326h350z" />
    <glyph glyph-name="F" unicode="F" horiz-adv-x="515" 
d="M120 682v-344h340v-18h-340v-320h-20v700h20h345v-18h-345z" />
    <glyph glyph-name="G" unicode="G" horiz-adv-x="818" 
d="M738 329v-18v-311h-20v157q-34 -80 -113.5 -123.5t-174.5 -43.5q-109 0 -193 48t-130.5 130.5t-46.5 181.5t46.5 181.5t129 130.5t184.5 48q71 0 135.5 -26.5t111.5 -74t70 -109.5h-21q-34 86 -115 139t-181 53q-97 0 -174.5 -46t-121.5 -124t-44 -172q0 -95 43.5 -173
t123.5 -123.5t183 -45.5q70 0 132 25.5t104.5 75.5t51.5 121v81h-290v18h310z" />
    <glyph glyph-name="H" unicode="H" horiz-adv-x="640" 
d="M540 700v-700h-20v351h-400v-351h-20v700h20v-331h400v331h20z" />
    <glyph glyph-name="I" unicode="I" horiz-adv-x="220" 
d="M120 700v-700h-20v700h20z" />
    <glyph glyph-name="J" unicode="J" horiz-adv-x="540" 
d="M140.5 13.5q-46.5 23.5 -73.5 66.5t-27 100v5h20v-5q0 -49 22.5 -88t64.5 -61.5t98 -22.5t98 22.5t64.5 61.5t22.5 88v520h20v-520q0 -57 -27 -100t-73.5 -66.5t-104.5 -23.5t-104.5 23.5z" />
    <glyph glyph-name="K" unicode="K" horiz-adv-x="555" 
d="M518 0l-398 355v-355h-20v700h20v-335l388 335h27l-393 -340l403 -360h-27z" />
    <glyph glyph-name="L" unicode="L" 
d="M470 18v-18h-370v700h20v-682h350z" />
    <glyph glyph-name="M" unicode="M" horiz-adv-x="820" 
d="M720 0h-20v669l-281 -538h-18l-281 538v-669h-20v700h20h6l284 -544l284 544h26v-700z" />
    <glyph glyph-name="N" unicode="N" horiz-adv-x="630" 
d="M530 700v-700h-20l-390 662v-662h-20v700h20l390 -662v662h20z" />
    <glyph glyph-name="O" unicode="O" horiz-adv-x="840" 
d="M239.5 38.5q-82.5 48.5 -131 131t-48.5 180.5t48.5 180.5t131 131t180.5 48.5t180.5 -48.5t131 -131t48.5 -180.5t-48.5 -180.5t-131 -131t-180.5 -48.5t-180.5 48.5zM590.5 54q78.5 46 124 124.5t45.5 171.5t-45.5 171.5t-124 124.5t-170.5 46t-170.5 -46t-124 -124.5
t-45.5 -171.5t45.5 -171.5t124 -124.5t170.5 -46t170.5 46z" />
    <glyph glyph-name="P" unicode="P" horiz-adv-x="570" 
d="M420 673q46 -27 73 -73t27 -100t-27 -100t-73 -73t-100 -27h-200v-300h-20v700h20h200q54 0 100 -27zM410 342.5q41 24.5 65.5 66.5t24.5 91t-24.5 91t-65.5 66.5t-90 24.5h-200v-364h200q49 0 90 24.5z" />
    <glyph glyph-name="Q" unicode="Q" horiz-adv-x="845" 
d="M747.5 200q-32.5 -70 -89.5 -120l85 -97l-14 -12l-85 97q-47 -37 -104 -57.5t-120 -20.5q-98 0 -180.5 48.5t-131 131t-48.5 180.5t48.5 180.5t131 131t180.5 48.5t180.5 -48.5t131 -131t48.5 -180.5q0 -80 -32.5 -150zM532.5 27.5q53.5 19.5 98.5 54.5l-95 108l14 12
l95 -108q54 47 84.5 114t30.5 142q0 93 -45.5 171.5t-124 124.5t-170.5 46t-170.5 -46t-124 -124.5t-45.5 -171.5t45.5 -171.5t124 -124.5t170.5 -46q59 0 112.5 19.5z" />
    <glyph glyph-name="R" unicode="R" horiz-adv-x="620" 
d="M586 0l-265 300h-1h-200v-300h-20v700h20h200q54 0 100 -27t73 -73t27 -100q0 -50 -23.5 -93.5t-63.5 -71.5t-89 -34l266 -301h-24zM120 318h200q49 0 90 24.5t65.5 66.5t24.5 91t-24.5 91t-65.5 66.5t-90 24.5h-200v-364z" />
    <glyph glyph-name="S" unicode="S" horiz-adv-x="550" 
d="M115.5 39.5q-65.5 49.5 -65.5 135.5h20q0 -75 57.5 -121t160.5 -46q58 0 102 20.5t67 56.5t23 80q0 52 -26.5 85t-62.5 51t-107 44l-22 8q-65 24 -103.5 43.5t-64.5 54.5t-26 89q0 48 26 86.5t73 61t106 22.5q55 0 102 -23t75 -63t28 -89h-20q0 42 -23.5 78t-66 57.5
t-95.5 21.5q-58 0 -99.5 -21t-63.5 -56t-22 -75q0 -48 24.5 -79.5t61 -50t97.5 -40.5l21 -8q75 -29 113 -48.5t66.5 -55.5t28.5 -93q0 -52 -27.5 -91.5t-76 -61.5t-108.5 -22q-107 0 -172.5 49.5z" />
    <glyph glyph-name="T" unicode="T" 
d="M470 682h-210v-682h-20v682h-210v18h230h210v-18z" />
    <glyph glyph-name="U" unicode="U" horiz-adv-x="630" 
d="M152.5 43.5q-62.5 53.5 -62.5 146.5v510h20v-510q0 -82 54.5 -132t150.5 -50t150.5 50t54.5 132v510h20v-510q0 -93 -62.5 -146.5t-162.5 -53.5t-162.5 53.5z" />
    <glyph glyph-name="V" unicode="V" horiz-adv-x="598" 
d="M20 700h21l258 -678l258 678h21l-267 -700h-24z" />
    <glyph glyph-name="W" unicode="W" horiz-adv-x="860" 
d="M830 700l-229 -700h-26l-145 443l-145 -443h-26l-229 700h20l222 -678l148 451l-74 227h20l222 -678l222 678h20z" />
    <glyph glyph-name="X" unicode="X" horiz-adv-x="560" 
d="M508 0l-228 340l-228 -340h-22l239 357l-230 343h22l219 -327l219 327h22l-230 -343l239 -357h-22z" />
    <glyph glyph-name="Y" unicode="Y" horiz-adv-x="560" 
d="M290 329v-329h-20v329l-250 371h22l238 -354l238 354h22z" />
    <glyph glyph-name="Z" unicode="Z" horiz-adv-x="510" 
d="M470 18v-18h-420v18l389 664h-379v18h400v-18l-388 -664h398z" />
    <glyph glyph-name="bracketleft" unicode="[" horiz-adv-x="260" 
d="M90 781v-862h160v-19h-170h-10v900h20h160v-19h-160z" />
    <glyph glyph-name="backslash" unicode="\" horiz-adv-x="520" 
d="M50 800h20l400 -900h-20z" />
    <glyph glyph-name="bracketright" unicode="]" horiz-adv-x="260" 
d="M190 -100h-20h-160v19h160v862h-160v19h180v-900z" />
    <glyph glyph-name="asciicircum" unicode="^" horiz-adv-x="506" 
d="M436 400h-22l-161 276l-161 -276h-22l175 300h16z" />
    <glyph glyph-name="underscore" unicode="_" horiz-adv-x="480" 
d="M40 -100h400v-18h-400v18z" />
    <glyph glyph-name="grave" unicode="`" horiz-adv-x="141" 
d="M41 690h-21l84 -120h17z" />
    <glyph glyph-name="a" unicode="a" 
d="M375 464q50 -46 50 -129v-335h-20v71q-19 -42 -64 -61.5t-107 -19.5q-76 0 -127.5 40t-51.5 111t51.5 111t127.5 40q60 0 105.5 -21t65.5 -61v125q0 73 -43 115t-112 42t-112 -37t-43 -100h-20q0 69 48 112t127 43q75 0 125 -46zM357 39.5q48 31.5 48 101.5
q0 69 -49.5 101t-121.5 32t-115.5 -36.5t-43.5 -96.5t43.5 -96.5t115.5 -36.5q75 0 123 31.5z" />
    <glyph glyph-name="b" unicode="b" horiz-adv-x="662" 
d="M482.5 475.5q59.5 -34.5 94.5 -94t35 -131.5t-35 -131.5t-94.5 -94t-131.5 -34.5q-83 0 -148.5 46t-92.5 121v-157h-20v700h20v-357q27 75 92.5 121t148.5 46q72 0 131.5 -34.5zM473 40q55 32 87 87.5t32 122.5t-32 122.5t-87 87.5t-122 32t-122 -32t-87 -87.5
t-32 -122.5t32 -122.5t87 -87.5t122 -32t122 32z" />
    <glyph glyph-name="c" unicode="c" horiz-adv-x="581" 
d="M455.5 31q-62.5 -41 -144.5 -41q-73 0 -133 34t-94 93.5t-34 132.5t34 132.5t94 93.5t133 34q82 0 144.5 -41t85.5 -109h-20q-22 60 -79 96t-131 36q-68 0 -123 -32t-86.5 -87.5t-31.5 -122.5t31.5 -122.5t86.5 -87.5t123 -32q74 0 130.5 36t79.5 96h20
q-23 -68 -85.5 -109z" />
    <glyph glyph-name="d" unicode="d" horiz-adv-x="662" 
d="M572 700v-700h-20v157q-27 -75 -92.5 -121t-148.5 -46q-72 0 -131.5 34.5t-94.5 94t-35 131.5t35 131.5t94.5 94t131.5 34.5q83 0 148.5 -46t92.5 -121v357h20zM433 40q55 32 87 87.5t32 122.5t-32 122.5t-87 87.5t-122 32t-122 -32t-87 -87.5t-32 -122.5t32 -122.5
t87 -87.5t122 -32t122 32z" />
    <glyph glyph-name="e" unicode="e" horiz-adv-x="579" 
d="M425.5 474q54.5 -36 84 -96.5t29.5 -129.5v-10h-18h-451q3 -68 33.5 -120t82.5 -81t116 -29q71 0 125 33t74 88h21q-22 -63 -81 -101t-139 -38q-73 0 -130.5 33.5t-89.5 92.5t-32 134q0 73 31.5 132.5t87.5 93.5t129 34t127.5 -36zM521 256q-4 70 -33.5 123.5t-79 83
t-110.5 29.5q-64 0 -115.5 -30t-81.5 -83.5t-31 -122.5h451z" />
    <glyph glyph-name="f" unicode="f" horiz-adv-x="289" 
d="M268 693q-71 0 -104.5 -40t-33.5 -113v-40h159v-18h-159v-482h-20v482h-90v18h90v40q0 80 39 125.5t117 45.5q15 0 23 -1v-18q-7 1 -21 1z" />
    <glyph glyph-name="g" unicode="g" horiz-adv-x="672" 
d="M582 500v-469q0 -111 -65 -176t-181 -65q-68 0 -122 25t-84 65t-30 82h20q0 -37 27.5 -72.5t76.5 -58.5t112 -23q107 0 166.5 60t59.5 163v126q-27 -75 -92.5 -121t-148.5 -46q-72 0 -131.5 34.5t-94.5 94t-35 131.5t35 131.5t94.5 94t131.5 34.5q83 0 148.5 -46
t92.5 -121v157h20zM443 40q55 32 87 87.5t32 122.5t-32 122.5t-87 87.5t-122 32t-122 -32t-87 -87.5t-32 -122.5t32 -122.5t87 -87.5t122 -32t122 32z" />
    <glyph glyph-name="h" unicode="h" horiz-adv-x="535" 
d="M414 465q46 -45 46 -128v-337h-20v337q0 72 -39.5 113.5t-105.5 41.5q-50 0 -92 -24.5t-67.5 -72t-25.5 -113.5v-282h-20v700h20v-324q20 67 72 100.5t113 33.5q73 0 119 -45z" />
    <glyph glyph-name="i" unicode="i" horiz-adv-x="200" 
d="M90 700h20v-100h-20v100zM90 500h20v-500h-20v500z" />
    <glyph glyph-name="j" unicode="j" horiz-adv-x="219" 
d="M119 700v-100h-20v100h20zM99 500h20v-590q0 -56 -29.5 -88.5t-86.5 -32.5q-15 0 -23 1v18q8 -1 22 -1q49 0 73 27t24 76v590z" />
    <glyph glyph-name="k" unicode="k" horiz-adv-x="461" 
d="M403 0l-293 254v-254h-20v700h20v-434l283 234h28l-290 -240l300 -260h-28z" />
    <glyph glyph-name="l" unicode="l" horiz-adv-x="200" 
d="M90 720h20v-720h-20v720z" />
    <glyph glyph-name="m" unicode="m" horiz-adv-x="795" 
d="M678.5 469.5q41.5 -40.5 41.5 -122.5v-347h-20v347q0 71 -35.5 108t-94.5 37q-40 0 -75.5 -22t-57.5 -65t-22 -103v-302h-20v347q0 71 -35.5 108t-94.5 37q-40 0 -75.5 -22t-57.5 -65t-22 -103v-302h-20v500h20v-107q19 60 62.5 88.5t92.5 28.5q58 0 98 -31.5t49 -94.5
q17 64 62.5 95t95.5 31q67 0 108.5 -40.5z" />
    <glyph glyph-name="n" unicode="n" horiz-adv-x="535" 
d="M414 465q46 -45 46 -128v-337h-20v337q0 72 -39.5 113.5t-105.5 41.5q-50 0 -92 -24.5t-67.5 -72t-25.5 -113.5v-282h-20v500h20v-124q20 67 72 100.5t113 33.5q73 0 119 -45z" />
    <glyph glyph-name="o" unicode="o" horiz-adv-x="622" 
d="M179.5 24.5q-59.5 34.5 -94.5 94t-35 131.5t35 131.5t94.5 94t131.5 34.5t131.5 -34.5t94.5 -94t35 -131.5t-35 -131.5t-94.5 -94t-131.5 -34.5t-131.5 34.5zM433 40q55 32 87 87.5t32 122.5t-32 122.5t-87 87.5t-122 32t-122 -32t-87 -87.5t-32 -122.5t32 -122.5
t87 -87.5t122 -32t122 32z" />
    <glyph glyph-name="p" unicode="p" horiz-adv-x="662" 
d="M482.5 475.5q59.5 -34.5 94.5 -94t35 -131.5t-35 -131.5t-94.5 -94t-131.5 -34.5q-83 0 -148.5 46t-92.5 121v-357h-20v700h20v-157q27 75 92.5 121t148.5 46q72 0 131.5 -34.5zM473 40q55 32 87 87.5t32 122.5t-32 122.5t-87 87.5t-122 32t-122 -32t-87 -87.5
t-32 -122.5t32 -122.5t87 -87.5t122 -32t122 32z" />
    <glyph glyph-name="q" unicode="q" horiz-adv-x="662" 
d="M572 500v-700h-20v357q-27 -75 -92.5 -121t-148.5 -46q-72 0 -131.5 34.5t-94.5 94t-35 131.5t35 131.5t94.5 94t131.5 34.5q83 0 148.5 -46t92.5 -121v157h20zM433 40q55 32 87 87.5t32 122.5t-32 122.5t-87 87.5t-122 32t-122 -32t-87 -87.5t-32 -122.5t32 -122.5
t87 -87.5t122 -32t122 32z" />
    <glyph glyph-name="r" unicode="r" horiz-adv-x="325" 
d="M180 471q52 35 115 35v-18q-50 0 -92 -24.5t-67.5 -72t-25.5 -113.5v-278h-20v500h20v-134q18 70 70 105z" />
    <glyph glyph-name="s" unicode="s" horiz-adv-x="470" 
d="M106 318q21 -23 52.5 -34t83.5 -23q58 -14 92 -26.5t57.5 -40t23.5 -74.5q0 -58 -49 -94t-131 -36q-54 0 -95 17.5t-63 48.5t-22 69h20q0 -53 44 -85t116 -32t116 30t44 82q0 41 -21.5 64.5t-53 35t-85.5 24.5q-56 13 -89.5 25.5t-57 39t-23.5 71.5q0 58 46 94t124 36
q75 0 120.5 -38t45.5 -97h-20q0 53 -40.5 85t-105.5 32q-68 0 -109 -29.5t-41 -82.5q0 -39 21 -62z" />
    <glyph glyph-name="t" unicode="t" horiz-adv-x="320" 
d="M290 482h-120v-482h-20v482h-120v18h120v160h20v-160h120v-18z" />
    <glyph glyph-name="u" unicode="u" horiz-adv-x="535" 
d="M445 500v-500h-20v124q-20 -67 -72 -100.5t-113 -33.5q-73 0 -119 45t-46 128v337h20v-337q0 -72 39.5 -113.5t105.5 -41.5q50 0 92 24.5t67.5 72t25.5 113.5v282h20z" />
    <glyph glyph-name="v" unicode="v" horiz-adv-x="492" 
d="M472 500l-215 -500h-21h-1l-215 500h21l205 -477l205 477h21z" />
    <glyph glyph-name="w" unicode="w" horiz-adv-x="670" 
d="M650 500l-184 -500h-21h-1l-109 296l-109 -296h-21h-1l-184 500h21l174 -473l110 297l-65 176h21l174 -473l174 473h21z" />
    <glyph glyph-name="x" unicode="x" horiz-adv-x="450" 
d="M398 0l-173 242l-173 -242h-22l184 257l-174 243h22l163 -228l163 228h22l-174 -243l184 -257h-22z" />
    <glyph glyph-name="y" unicode="y" horiz-adv-x="470" 
d="M450 500l-272 -700h-21l78 200l-215 500h21l204 -474l184 474h21z" />
    <glyph glyph-name="z" unicode="z" horiz-adv-x="470" 
d="M420 18v-18h-360v11l323 471h-313v18h340v-11l-323 -471h333z" />
    <glyph glyph-name="braceleft" unicode="{" horiz-adv-x="348" 
d="M295 -110q-57 0 -86.5 32.5t-29.5 88.5v229q0 53 -28.5 77.5t-90.5 24.5v18q62 0 90.5 24.5t28.5 77.5v228q0 56 29.5 88.5t86.5 32.5q15 0 23 -1v-18q-8 1 -22 1q-49 0 -73 -27t-24 -76v-228q0 -47 -21 -76t-62 -36q83 -13 83 -110v-229q0 -49 24 -76t73 -27q14 0 22 1
v-18q-8 -1 -23 -1z" />
    <glyph glyph-name="bar" unicode="|" horiz-adv-x="220" 
d="M100 720h20v-920h-20v920z" />
    <glyph glyph-name="braceright" unicode="}" horiz-adv-x="348" 
d="M30 -91q8 -1 22 -1q49 0 73 27t24 76v229q0 97 83 110q-41 7 -62 36t-21 76v228q0 49 -24 76t-73 27q-14 0 -22 -1v18q8 1 23 1q57 0 86.5 -32.5t29.5 -88.5v-228q0 -53 28.5 -77.5t90.5 -24.5v-18q-62 0 -90.5 -24.5t-28.5 -77.5v-229q0 -56 -29.5 -88.5t-86.5 -32.5
q-15 0 -23 1v18z" />
    <glyph glyph-name="asciitilde" unicode="~" horiz-adv-x="572" 
d="M502 396q-8 -34 -34.5 -66.5t-73.5 -32.5q-50 0 -113 45q-60 42 -103 42q-39 0 -60.5 -28t-29.5 -60l-18 8q8 34 34.5 66.5t72.5 32.5q51 0 114 -45q60 -42 103 -42q39 0 60.5 28t29.5 60z" />
    <glyph glyph-name="exclamdown" unicode="&#xa1;" horiz-adv-x="200" 
d="M110 500v-60h-20v60h20zM110 340v-540h-20v540h20z" />
    <glyph glyph-name="cent" unicode="&#xa2;" horiz-adv-x="581" 
d="M441.5 144q56.5 36 79.5 96h20q-23 -68 -85.5 -109t-144.5 -41q-45 0 -83 13l-35 -103h-20l37 109q-73 29 -116.5 94t-43.5 147q0 73 34 132.5t94 93.5t133 34q30 0 65 -7l33 97h20l-35 -102q53 -17 92 -53t55 -85h-20q-16 43 -50.5 74.5t-81.5 45.5l-156 -460
q36 -12 78 -12q74 0 130.5 36zM110 213.5q40 -60.5 106 -87.5l154 459q-25 7 -59 7q-68 0 -123 -32t-86.5 -87.5t-31.5 -122.5q0 -76 40 -136.5z" />
    <glyph glyph-name="sterling" unicode="&#xa3;" horiz-adv-x="600" 
d="M580 18v-18h-530v18h110v283h-90v18h90v206q0 54 25.5 96.5t70 65.5t99.5 23t99.5 -23t70 -65.5t25.5 -96.5v-25h-20v25q0 47 -21 85t-60.5 60t-93.5 22t-93.5 -22t-60.5 -60t-21 -85v-206h260v-18h-260v-283h400z" />
    <glyph glyph-name="currency" unicode="&#xa4;" horiz-adv-x="554" 
d="M473.5 272.5q-14.5 -36.5 -40.5 -64.5l71 -72l-14 -12l-71 70q-28 -26 -64.5 -40t-77.5 -14t-77.5 14t-65.5 40l-70 -70l-14 12l71 71q-26 28 -40.5 65t-14.5 78t14.5 78t40.5 65l-71 71l14 12l71 -70q28 26 64.5 40t77.5 14t77.5 -14t65.5 -40l70 70l14 -12l-71 -71
q26 -28 40.5 -65t14.5 -78t-14.5 -77.5zM111.5 253q25.5 -44 69 -69.5t96.5 -25.5t96.5 25.5t69 69.5t25.5 97t-25.5 97t-69 69.5t-96.5 25.5t-96.5 -25.5t-69 -69.5t-25.5 -97t25.5 -97z" />
    <glyph glyph-name="yen" unicode="&#xa5;" horiz-adv-x="560" 
d="M295 337h191v-18h-196v-110h196v-18h-196v-191h-20v191h-194v18h194v110h-194v18h189l-245 363h22l238 -354l238 354h22z" />
    <glyph glyph-name="brokenbar" unicode="&#xa6;" horiz-adv-x="220" 
d="M100 720h20v-370h-20v370zM100 170h20v-370h-20v370z" />
    <glyph glyph-name="section" unicode="&#xa7;" horiz-adv-x="540" 
d="M450 31q0 -63 -49 -103t-131 -40q-84 0 -137 43t-53 114h20q0 -62 46 -100.5t124 -38.5q72 0 116 34.5t44 90.5t-45.5 91t-129.5 69l-21 9q-52 21 -85 39t-56 45.5t-23 65.5q0 35 19 65t52 49q-51 43 -51 105t48 101.5t123 39.5q78 0 128.5 -42t50.5 -113h-20
q0 61 -43.5 99t-115.5 38q-67 0 -109 -34.5t-42 -88.5q0 -41 23.5 -70.5t58.5 -48.5t93 -43l21 -9q52 -21 85 -39t56 -45.5t23 -65.5q0 -35 -19 -65t-52 -49q51 -43 51 -103zM111 293.5q21 -23.5 50.5 -39.5t80.5 -38l21 -9q80 -31 120 -60q31 16 49 42.5t18 58.5
q0 33 -21 56.5t-50.5 39.5t-80.5 38l-21 9q-47 20 -72.5 32t-47.5 28q-31 -16 -49 -42.5t-18 -58.5q0 -33 21 -56.5z" />
    <glyph glyph-name="dieresis" unicode="&#xa8;" horiz-adv-x="240" 
d="M20 640h20v-60h-20v60zM200 640h20v-60h-20v60z" />
    <glyph glyph-name="copyright" unicode="&#xa9;" horiz-adv-x="844" 
d="M240.5 38q-83.5 48 -132 131t-48.5 181t48.5 181t132 131t181.5 48t181.5 -48t132 -131t48.5 -181t-48.5 -181t-132 -131t-181.5 -48t-181.5 48zM593.5 54q78.5 46 124.5 124.5t46 171.5t-46 171.5t-124.5 124.5t-171.5 46t-171.5 -46t-124.5 -124.5t-46 -171.5
t46 -171.5t124.5 -124.5t171.5 -46t171.5 46zM325.5 183.5q-44.5 25.5 -69.5 69.5t-25 97t25 97t69.5 69.5t99.5 25.5q64 0 111 -34t64 -90h-21q-16 48 -57 77t-97 29q-50 0 -89.5 -23t-62 -63t-22.5 -88t22.5 -88t62 -63t89.5 -23q56 0 97 29t57 77h21q-17 -56 -64 -90
t-111 -34q-55 0 -99.5 25.5z" />
    <glyph glyph-name="ordfeminine" unicode="&#xaa;" horiz-adv-x="275" 
d="M200 687.5q25 -22.5 25 -64.5v-168h-18v27q-21 -32 -77 -32q-38 0 -64 20.5t-26 55.5t26 55t64 20q26 0 46 -8t31 -24v54q0 33 -18.5 52t-50.5 19t-51 -16.5t-19 -44.5h-18q0 35 24 56t64 21q37 0 62 -22.5zM185.5 480q21.5 14 21.5 46q0 31 -22 45t-55 14t-52.5 -16
t-19.5 -43q0 -28 19.5 -44t52.5 -16q34 0 55.5 14z" />
    <glyph glyph-name="guillemotleft" unicode="&#xab;" horiz-adv-x="424" 
d="M122 309l100 -160h-22l-100 160l100 160h22zM224 309l100 -160h-22l-100 160l100 160h22z" />
    <glyph glyph-name="logicalnot" unicode="&#xac;" horiz-adv-x="520" 
d="M450 382v-18v-142h-20v142h-360v18h380z" />
    <glyph glyph-name="registered" unicode="&#xae;" horiz-adv-x="844" 
d="M603.5 662q83.5 -48 132 -131t48.5 -181t-48.5 -181t-132 -131t-181.5 -48t-181.5 48t-132 131t-48.5 181t48.5 181t132 131t181.5 48t181.5 -48zM593.5 54q78.5 46 124.5 124.5t46 171.5t-46 171.5t-124.5 124.5t-171.5 46t-171.5 -46t-124.5 -124.5t-46 -171.5
t46 -171.5t124.5 -124.5t171.5 -46t171.5 46zM536 358.5q-20 -27.5 -63 -36.5l120 -157h-23l-117 153q-9 -1 -27 -1h-84v-152h-20v370h20h84q65 0 97.5 -32.5t32.5 -76.5q0 -40 -20 -67.5zM426 335q110 0 110 91q0 39 -28.5 65t-81.5 26h-84v-182h84z" />
    <glyph glyph-name="macron" unicode="&#xaf;" horiz-adv-x="280" 
d="M20 617h240v-16h-240v16z" />
    <glyph glyph-name="degree" unicode="&#xb0;" horiz-adv-x="386" 
d="M120 549q-33 19 -51.5 51t-18.5 70t18.5 70t51.5 51t73 19t73 -19t51.5 -51t18.5 -70t-18.5 -70t-51 -51t-73.5 -19q-40 0 -73 19zM281 583q35 35 35 87t-35.5 87t-87.5 35t-87.5 -35t-35.5 -87t35.5 -87t87.5 -35q53 0 88 35z" />
    <glyph glyph-name="plusminus" unicode="&#xb1;" horiz-adv-x="520" 
d="M450 419v-18h-180v-181h-20v181h-180v18h180v181h20v-181h180zM70 118h380v-18h-380v18z" />
    <glyph glyph-name="acute" unicode="&#xb4;" horiz-adv-x="141" 
d="M38 570l83 120h-21l-80 -120h18z" />
    <glyph glyph-name="uni00B5" unicode="&#xb5;" horiz-adv-x="570" 
d="M530 18v-18h-20q-33 0 -51.5 18.5t-18.5 51.5v60q-18 -70 -70 -105t-115 -35q-51 0 -89 22.5t-56 65.5v-278h-20v700h20v-337q0 -72 39.5 -113.5t105.5 -41.5q50 0 92 24.5t67.5 72t25.5 113.5v282h20v-430q0 -25 13.5 -38.5t36.5 -13.5h20z" />
    <glyph glyph-name="paragraph" unicode="&#xb6;" horiz-adv-x="550" 
d="M500 682h-60v-882h-20v882h-170v-882h-20v540q-49 0 -90.5 24.5t-65.5 65.5t-24 90t24 90.5t65.5 65.5t90.5 24h20h190h60v-18z" />
    <glyph glyph-name="periodcentered" unicode="&#xb7;" horiz-adv-x="180" 
d="M80 380h20v-60h-20v60z" />
    <glyph glyph-name="cedilla" unicode="&#xb8;" horiz-adv-x="195" 
d="M157.5 -92q27.5 -16 27.5 -48q0 -31 -29.5 -48.5t-86.5 -17.5q-30 0 -59 4v16q29 -4 59 -4q98 0 98 50q0 21 -17.5 33.5t-52.5 12.5q-12 0 -18 -1v95h18v-79q33 3 60.5 -13z" />
    <glyph glyph-name="ordmasculine" unicode="&#xba;" horiz-adv-x="341" 
d="M78 487.5q-38 37.5 -38 92.5t38 92.5t93 37.5q54 0 92 -37.5t38 -92.5q0 -36 -17.5 -65.5t-47 -47t-65.5 -17.5q-55 0 -93 37.5zM250.5 499q32.5 33 32.5 81t-32.5 81t-79.5 33q-48 0 -80.5 -33t-32.5 -81t33 -81t80 -33t79.5 33z" />
    <glyph glyph-name="guillemotright" unicode="&#xbb;" horiz-adv-x="424" 
d="M222 309l-100 -160h-22l100 160l-100 160h22zM324 309l-100 -160h-22l100 160l-100 160h22z" />
    <glyph glyph-name="onequarter" unicode="&#xbc;" horiz-adv-x="844" 
d="M175 700v-400h-20v380l-125 -67v20l125 67h20zM145 0l420 700h20l-420 -700h-20zM814 90h-62v-90h-20v90h-227v18l154 292h20l-153 -292h206v121h20v-121h62v-18z" />
    <glyph glyph-name="onehalf" unicode="&#xbd;" horiz-adv-x="831" 
d="M175 700v-400h-20v380l-125 -67v20l125 67h20zM145 0l420 700h20l-420 -700h-20zM525 15l188 180q24 22 37 49.5t13 54.5q0 37 -28.5 66t-73.5 29q-50 0 -80 -28t-30 -71h-20q0 51 36 84t94 33q36 0 64 -16t43 -41.5t15 -54.5q0 -34 -13.5 -61.5t-42.5 -55.5l-173 -165
h237v-18h-266v15z" />
    <glyph glyph-name="threequarters" unicode="&#xbe;" horiz-adv-x="942" 
d="M271 497q32 -35 32 -85q0 -53 -35.5 -88.5t-98.5 -35.5t-98.5 35.5t-35.5 88.5h20q0 -45 29.5 -75.5t84.5 -30.5t84.5 30.5t29.5 75.5t-29.5 75.5t-84.5 30.5h-10v15l108 149h-217v18h238v-18l-106 -146q57 -4 89 -39zM243 0l420 700h20l-420 -700h-20zM912 90h-62v-90
h-20v90h-227v18l154 292h20l-153 -292h206v121h20v-121h62v-18z" />
    <glyph glyph-name="questiondown" unicode="&#xbf;" horiz-adv-x="515" 
d="M286 440h-20v60h20v-60zM270.5 260q-15.5 -37 -37.5 -65.5t-59 -67.5q-48 -52 -71 -87.5t-23 -79.5q0 -69 44.5 -110.5t130.5 -41.5q54 0 97.5 21.5t68 58t24.5 77.5h20q0 -49 -29 -89t-77.5 -63t-103.5 -23q-90 0 -142.5 45.5t-52.5 124.5q0 47 24 84.5t73 90.5
q54 58 81.5 102.5t27.5 102.5h20q0 -43 -15.5 -80z" />
    <glyph glyph-name="Agrave" unicode="&#xc0;" horiz-adv-x="628" 
d="M507 191h-386l-75 -191h-21l277 700h24l277 -700h-21zM500 209l-186 470l-186 -470h372zM259 890h-21l84 -120h17z" />
    <glyph glyph-name="Aacute" unicode="&#xc1;" horiz-adv-x="628" 
d="M507 191h-386l-75 -191h-21l277 700h24l277 -700h-21zM500 209l-186 470l-186 -470h372zM307 770l83 120h-21l-80 -120h18z" />
    <glyph glyph-name="Acircumflex" unicode="&#xc2;" horiz-adv-x="628" 
d="M507 191h-386l-75 -191h-21l277 700h24l277 -700h-21zM500 209l-186 470l-186 -470h372zM413 770l-101 108l-101 -108h-22l112 120h22l112 -120h-22z" />
    <glyph glyph-name="Atilde" unicode="&#xc3;" horiz-adv-x="628" 
d="M507 191h-386l-75 -191h-21l277 700h24l277 -700h-21zM500 209l-186 470l-186 -470h372zM202 855.5q16 24.5 42 24.5q36 0 75 -42q35 -36 62 -36q20 0 32 19t12 53h17q0 -41 -16.5 -65t-43.5 -24q-35 0 -73 41q-34 37 -63 37q-20 0 -31.5 -19.5t-11.5 -53.5h-17
q0 41 16 65.5z" />
    <glyph glyph-name="Adieresis" unicode="&#xc4;" horiz-adv-x="628" 
d="M507 191h-386l-75 -191h-21l277 700h24l277 -700h-21zM500 209l-186 470l-186 -470h372zM214 840h20v-60h-20v60zM394 840h20v-60h-20v60z" />
    <glyph glyph-name="Aring" unicode="&#xc5;" horiz-adv-x="628" 
d="M507 191h-386l-75 -191h-21l277 700h24l277 -700h-21zM500 209l-186 470l-186 -470h372zM245.5 785.5q-26.5 25.5 -26.5 64.5t26.5 64.5t68.5 25.5q43 0 69 -25.5t26 -64.5t-26 -64.5t-69 -25.5q-42 0 -68.5 25.5zM369.5 796.5q21.5 20.5 21.5 53.5t-21.5 53.5
t-55.5 20.5t-55.5 -20.5t-21.5 -53.5t21.5 -53.5t55.5 -20.5t55.5 20.5z" />
    <glyph glyph-name="AE" unicode="&#xc6;" horiz-adv-x="858" 
d="M808 18v-18h-350h-10v204h-291l-124 -204h-23l428 700h20h10h335v-18h-335v-320h310v-18h-310v-326h340zM448 222v458l-280 -458h280z" />
    <glyph glyph-name="Ccedilla" unicode="&#xc7;" horiz-adv-x="778" 
d="M620 51.5q-83 -57.5 -187 -61.5v-69q33 3 60.5 -13t27.5 -48q0 -31 -29.5 -48.5t-86.5 -17.5q-30 0 -59 4v16q29 -4 59 -4q98 0 98 50q0 21 -17.5 33.5t-52.5 12.5q-12 0 -18 -1v85q-101 1 -182 49.5t-127 130.5t-46 180q0 99 46.5 181.5t129 130.5t184.5 48
q71 0 135.5 -26.5t111.5 -74t70 -109.5h-21q-34 86 -115 139t-181 53q-97 0 -174.5 -46t-121.5 -124t-44 -172t44 -172.5t121.5 -124t174.5 -45.5q100 0 181 53t115 139h22q-35 -91 -118 -148.5z" />
    <glyph glyph-name="Egrave" unicode="&#xc8;" horiz-adv-x="520" 
d="M470 18v-18h-360h-10v700h20h345v-18h-345v-320h320v-18h-320v-326h350zM222 890h-21l84 -120h17z" />
    <glyph glyph-name="Eacute" unicode="&#xc9;" horiz-adv-x="520" 
d="M470 18v-18h-360h-10v700h20h345v-18h-345v-320h320v-18h-320v-326h350zM270 770l83 120h-21l-80 -120h18z" />
    <glyph glyph-name="Ecircumflex" unicode="&#xca;" horiz-adv-x="520" 
d="M470 18v-18h-360h-10v700h20h345v-18h-345v-320h320v-18h-320v-326h350zM376 770l-101 108l-101 -108h-22l112 120h22l112 -120h-22z" />
    <glyph glyph-name="Edieresis" unicode="&#xcb;" horiz-adv-x="520" 
d="M470 18v-18h-360h-10v700h20h345v-18h-345v-320h320v-18h-320v-326h350zM177 840h20v-60h-20v60zM357 840h20v-60h-20v60z" />
    <glyph glyph-name="Igrave" unicode="&#xcc;" horiz-adv-x="220" 
d="M120 700v-700h-20v700h20zM55 890h-21l84 -120h17z" />
    <glyph glyph-name="Iacute" unicode="&#xcd;" horiz-adv-x="220" 
d="M120 700v-700h-20v700h20zM103 770l83 120h-21l-80 -120h18z" />
    <glyph glyph-name="Icircumflex" unicode="&#xce;" horiz-adv-x="220" 
d="M120 700v-700h-20v700h20zM209 770l-101 108l-101 -108h-22l112 120h22l112 -120h-22z" />
    <glyph glyph-name="Idieresis" unicode="&#xcf;" horiz-adv-x="220" 
d="M120 700v-700h-20v700h20zM10 840h20v-60h-20v60zM190 840h20v-60h-20v60z" />
    <glyph glyph-name="Eth" unicode="&#xd0;" horiz-adv-x="780" 
d="M559.5 653q75.5 -47 118 -127t42.5 -176t-42.5 -176t-118 -127t-169.5 -47h-260h-10v341h-60v18h60v341h20h250q94 0 169.5 -47zM550 62.5q71 44.5 110.5 120.5t39.5 167t-39.5 167t-110.5 120.5t-160 44.5h-250v-323h280v-18h-280v-323h250q89 0 160 44.5z" />
    <glyph glyph-name="Ntilde" unicode="&#xd1;" horiz-adv-x="630" 
d="M530 700v-700h-20l-390 662v-662h-20v700h20l390 -662v662h20zM203 855.5q16 24.5 42 24.5q36 0 75 -42q35 -36 62 -36q20 0 32 19t12 53h17q0 -41 -16.5 -65t-43.5 -24q-35 0 -73 41q-34 37 -63 37q-20 0 -31.5 -19.5t-11.5 -53.5h-17q0 41 16 65.5z" />
    <glyph glyph-name="Ograve" unicode="&#xd2;" horiz-adv-x="840" 
d="M239.5 38.5q-82.5 48.5 -131 131t-48.5 180.5t48.5 180.5t131 131t180.5 48.5t180.5 -48.5t131 -131t48.5 -180.5t-48.5 -180.5t-131 -131t-180.5 -48.5t-180.5 48.5zM590.5 54q78.5 46 124 124.5t45.5 171.5t-45.5 171.5t-124 124.5t-170.5 46t-170.5 -46t-124 -124.5
t-45.5 -171.5t45.5 -171.5t124 -124.5t170.5 -46t170.5 46zM365 890h-21l84 -120h17z" />
    <glyph glyph-name="Oacute" unicode="&#xd3;" horiz-adv-x="840" 
d="M239.5 38.5q-82.5 48.5 -131 131t-48.5 180.5t48.5 180.5t131 131t180.5 48.5t180.5 -48.5t131 -131t48.5 -180.5t-48.5 -180.5t-131 -131t-180.5 -48.5t-180.5 48.5zM590.5 54q78.5 46 124 124.5t45.5 171.5t-45.5 171.5t-124 124.5t-170.5 46t-170.5 -46t-124 -124.5
t-45.5 -171.5t45.5 -171.5t124 -124.5t170.5 -46t170.5 46zM413 770l83 120h-21l-80 -120h18z" />
    <glyph glyph-name="Ocircumflex" unicode="&#xd4;" horiz-adv-x="840" 
d="M239.5 38.5q-82.5 48.5 -131 131t-48.5 180.5t48.5 180.5t131 131t180.5 48.5t180.5 -48.5t131 -131t48.5 -180.5t-48.5 -180.5t-131 -131t-180.5 -48.5t-180.5 48.5zM590.5 54q78.5 46 124 124.5t45.5 171.5t-45.5 171.5t-124 124.5t-170.5 46t-170.5 -46t-124 -124.5
t-45.5 -171.5t45.5 -171.5t124 -124.5t170.5 -46t170.5 46zM519 770l-101 108l-101 -108h-22l112 120h22l112 -120h-22z" />
    <glyph glyph-name="Otilde" unicode="&#xd5;" horiz-adv-x="840" 
d="M239.5 38.5q-82.5 48.5 -131 131t-48.5 180.5t48.5 180.5t131 131t180.5 48.5t180.5 -48.5t131 -131t48.5 -180.5t-48.5 -180.5t-131 -131t-180.5 -48.5t-180.5 48.5zM590.5 54q78.5 46 124 124.5t45.5 171.5t-45.5 171.5t-124 124.5t-170.5 46t-170.5 -46t-124 -124.5
t-45.5 -171.5t45.5 -171.5t124 -124.5t170.5 -46t170.5 46zM308 855.5q16 24.5 42 24.5q36 0 75 -42q35 -36 62 -36q20 0 32 19t12 53h17q0 -41 -16.5 -65t-43.5 -24q-35 0 -73 41q-34 37 -63 37q-20 0 -31.5 -19.5t-11.5 -53.5h-17q0 41 16 65.5z" />
    <glyph glyph-name="Odieresis" unicode="&#xd6;" horiz-adv-x="840" 
d="M239.5 38.5q-82.5 48.5 -131 131t-48.5 180.5t48.5 180.5t131 131t180.5 48.5t180.5 -48.5t131 -131t48.5 -180.5t-48.5 -180.5t-131 -131t-180.5 -48.5t-180.5 48.5zM590.5 54q78.5 46 124 124.5t45.5 171.5t-45.5 171.5t-124 124.5t-170.5 46t-170.5 -46t-124 -124.5
t-45.5 -171.5t45.5 -171.5t124 -124.5t170.5 -46t170.5 46zM320 840h20v-60h-20v60zM500 840h20v-60h-20v60z" />
    <glyph glyph-name="multiply" unicode="&#xd7;" horiz-adv-x="464" 
d="M245 350l149 -149l-14 -12l-148 148l-148 -148l-14 12l149 149l-149 149l14 12l148 -148l148 148l14 -12z" />
    <glyph glyph-name="Oslash" unicode="&#xd8;" horiz-adv-x="850" 
d="M758.5 497.5q31.5 -69.5 31.5 -147.5q0 -98 -48.5 -180.5t-131 -131t-180.5 -48.5q-64 0 -122.5 21t-105.5 60l-61 -71h-23l71 83q-56 50 -87.5 119.5t-31.5 147.5q0 98 48.5 180.5t131 131t180.5 48.5q64 0 122.5 -21t105.5 -60l61 71h23l-71 -83q56 -50 87.5 -119.5z
M119.5 210q29.5 -66 81.5 -113l445 518q-45 37 -100.5 57t-115.5 20q-92 0 -170.5 -46t-124 -124.5t-45.5 -171.5q0 -74 29.5 -140zM600.5 54q78.5 46 124 124.5t45.5 171.5q0 74 -29.5 140t-81.5 113l-445 -518q45 -37 100.5 -57t115.5 -20q92 0 170.5 46z" />
    <glyph glyph-name="Ugrave" unicode="&#xd9;" horiz-adv-x="630" 
d="M152.5 43.5q-62.5 53.5 -62.5 146.5v510h20v-510q0 -82 54.5 -132t150.5 -50t150.5 50t54.5 132v510h20v-510q0 -93 -62.5 -146.5t-162.5 -53.5t-162.5 53.5zM255 890h-21l84 -120h17z" />
    <glyph glyph-name="Uacute" unicode="&#xda;" horiz-adv-x="630" 
d="M152.5 43.5q-62.5 53.5 -62.5 146.5v510h20v-510q0 -82 54.5 -132t150.5 -50t150.5 50t54.5 132v510h20v-510q0 -93 -62.5 -146.5t-162.5 -53.5t-162.5 53.5zM303 770l83 120h-21l-80 -120h18z" />
    <glyph glyph-name="Ucircumflex" unicode="&#xdb;" horiz-adv-x="630" 
d="M152.5 43.5q-62.5 53.5 -62.5 146.5v510h20v-510q0 -82 54.5 -132t150.5 -50t150.5 50t54.5 132v510h20v-510q0 -93 -62.5 -146.5t-162.5 -53.5t-162.5 53.5zM409 770l-101 108l-101 -108h-22l112 120h22l112 -120h-22z" />
    <glyph glyph-name="Udieresis" unicode="&#xdc;" horiz-adv-x="630" 
d="M152.5 43.5q-62.5 53.5 -62.5 146.5v510h20v-510q0 -82 54.5 -132t150.5 -50t150.5 50t54.5 132v510h20v-510q0 -93 -62.5 -146.5t-162.5 -53.5t-162.5 53.5zM210 840h20v-60h-20v60zM390 840h20v-60h-20v60z" />
    <glyph glyph-name="Yacute" unicode="&#xdd;" horiz-adv-x="560" 
d="M290 329v-329h-20v329l-250 371h22l238 -354l238 354h22zM273 770l83 120h-21l-80 -120h18z" />
    <glyph glyph-name="Thorn" unicode="&#xde;" horiz-adv-x="570" 
d="M420 523q46 -27 73 -73t27 -100t-27 -100t-73 -73t-100 -27h-200v-150h-20v700h20v-150h200q54 0 100 -27zM410 192.5q41 24.5 65.5 66.5t24.5 91t-24.5 91t-65.5 66.5t-90 24.5h-200v-364h200q49 0 90 24.5z" />
    <glyph glyph-name="germandbls" unicode="&#xdf;" horiz-adv-x="496" 
d="M281 13q75 -4 120 31.5t45 96.5q0 39 -21.5 70t-63.5 73q-35 36 -51 58t-16 47q0 20 11 38t33 44q25 29 38.5 52t13.5 52q0 52 -35 84.5t-92 32.5q-72 0 -112.5 -44.5t-40.5 -122.5v-525h-20v525q0 88 47.5 136.5t125.5 48.5q66 0 106.5 -38.5t40.5 -96.5q0 -34 -15 -60
t-44 -59q-20 -23 -29.5 -37.5t-9.5 -29.5q0 -19 14.5 -38t46.5 -51q45 -45 69 -80t24 -79q0 -69 -51 -109.5t-134 -36.5v18z" />
    <glyph glyph-name="agrave" unicode="&#xe0;" 
d="M375 464q50 -46 50 -129v-335h-20v71q-19 -42 -64 -61.5t-107 -19.5q-76 0 -127.5 40t-51.5 111t51.5 111t127.5 40q60 0 105.5 -21t65.5 -61v125q0 73 -43 115t-112 42t-112 -37t-43 -100h-20q0 69 48 112t127 43q75 0 125 -46zM357 39.5q48 31.5 48 101.5
q0 69 -49.5 101t-121.5 32t-115.5 -36.5t-43.5 -96.5t43.5 -96.5t115.5 -36.5q75 0 123 31.5zM195 690h-21l84 -120h17z" />
    <glyph glyph-name="aacute" unicode="&#xe1;" 
d="M375 464q50 -46 50 -129v-335h-20v71q-19 -42 -64 -61.5t-107 -19.5q-76 0 -127.5 40t-51.5 111t51.5 111t127.5 40q60 0 105.5 -21t65.5 -61v125q0 73 -43 115t-112 42t-112 -37t-43 -100h-20q0 69 48 112t127 43q75 0 125 -46zM357 39.5q48 31.5 48 101.5
q0 69 -49.5 101t-121.5 32t-115.5 -36.5t-43.5 -96.5t43.5 -96.5t115.5 -36.5q75 0 123 31.5zM243 570l83 120h-21l-80 -120h18z" />
    <glyph glyph-name="acircumflex" unicode="&#xe2;" 
d="M375 464q50 -46 50 -129v-335h-20v71q-19 -42 -64 -61.5t-107 -19.5q-76 0 -127.5 40t-51.5 111t51.5 111t127.5 40q60 0 105.5 -21t65.5 -61v125q0 73 -43 115t-112 42t-112 -37t-43 -100h-20q0 69 48 112t127 43q75 0 125 -46zM357 39.5q48 31.5 48 101.5
q0 69 -49.5 101t-121.5 32t-115.5 -36.5t-43.5 -96.5t43.5 -96.5t115.5 -36.5q75 0 123 31.5zM349 570l-101 108l-101 -108h-22l112 120h22l112 -120h-22z" />
    <glyph glyph-name="atilde" unicode="&#xe3;" 
d="M375 464q50 -46 50 -129v-335h-20v71q-19 -42 -64 -61.5t-107 -19.5q-76 0 -127.5 40t-51.5 111t51.5 111t127.5 40q60 0 105.5 -21t65.5 -61v125q0 73 -43 115t-112 42t-112 -37t-43 -100h-20q0 69 48 112t127 43q75 0 125 -46zM357 39.5q48 31.5 48 101.5
q0 69 -49.5 101t-121.5 32t-115.5 -36.5t-43.5 -96.5t43.5 -96.5t115.5 -36.5q75 0 123 31.5zM138 655.5q16 24.5 42 24.5q36 0 75 -42q35 -36 62 -36q20 0 32 19t12 53h17q0 -41 -16.5 -65t-43.5 -24q-35 0 -73 41q-34 37 -63 37q-20 0 -31.5 -19.5t-11.5 -53.5h-17
q0 41 16 65.5z" />
    <glyph glyph-name="adieresis" unicode="&#xe4;" 
d="M375 464q50 -46 50 -129v-335h-20v71q-19 -42 -64 -61.5t-107 -19.5q-76 0 -127.5 40t-51.5 111t51.5 111t127.5 40q60 0 105.5 -21t65.5 -61v125q0 73 -43 115t-112 42t-112 -37t-43 -100h-20q0 69 48 112t127 43q75 0 125 -46zM357 39.5q48 31.5 48 101.5
q0 69 -49.5 101t-121.5 32t-115.5 -36.5t-43.5 -96.5t43.5 -96.5t115.5 -36.5q75 0 123 31.5zM150 640h20v-60h-20v60zM330 640h20v-60h-20v60z" />
    <glyph glyph-name="aring" unicode="&#xe5;" 
d="M375 464q50 -46 50 -129v-335h-20v71q-19 -42 -64 -61.5t-107 -19.5q-76 0 -127.5 40t-51.5 111t51.5 111t127.5 40q60 0 105.5 -21t65.5 -61v125q0 73 -43 115t-112 42t-112 -37t-43 -100h-20q0 69 48 112t127 43q75 0 125 -46zM357 39.5q48 31.5 48 101.5
q0 69 -49.5 101t-121.5 32t-115.5 -36.5t-43.5 -96.5t43.5 -96.5t115.5 -36.5q75 0 123 31.5zM181.5 585.5q-26.5 25.5 -26.5 64.5t26.5 64.5t68.5 25.5q43 0 69 -25.5t26 -64.5t-26 -64.5t-69 -25.5q-42 0 -68.5 25.5zM305.5 596.5q21.5 20.5 21.5 53.5t-21.5 53.5
t-55.5 20.5t-55.5 -20.5t-21.5 -53.5t21.5 -53.5t55.5 -20.5t55.5 20.5z" />
    <glyph glyph-name="ae" unicode="&#xe6;" horiz-adv-x="854" 
d="M720.5 474q45.5 -36 69.5 -96t24 -130v-10h-17h-374q3 -105 53.5 -167.5t138.5 -62.5q59 0 103.5 32t60.5 89h20q-18 -65 -67.5 -102t-116.5 -37q-72 0 -121 40.5t-71 111.5q-1 -47 -26.5 -81.5t-67 -52.5t-89.5 -18q-81 0 -133 40t-52 111t51.5 111t127.5 40
q60 0 105.5 -21t65.5 -61v125q0 73 -43 115t-112 42t-112 -37t-43 -100h-20q0 69 48 112t127 43q69 0 117 -40.5t54 -114.5q20 72 68.5 113.5t123.5 41.5q62 0 107.5 -36zM797 256q-3 70 -26.5 123.5t-64.5 83t-93 29.5q-88 0 -138 -64.5t-52 -171.5h374zM358 45
q47 37 47 96q0 69 -49.5 101t-121.5 32t-115.5 -36.5t-43.5 -96.5q0 -61 44 -97t121 -36q71 0 118 37z" />
    <glyph glyph-name="ccedilla" unicode="&#xe7;" horiz-adv-x="581" 
d="M441.5 44q56.5 36 79.5 96h20q-22 -65 -79.5 -105.5t-134.5 -44.5v-69q33 3 60.5 -13t27.5 -48q0 -31 -29.5 -48.5t-86.5 -17.5q-30 0 -59 4v16q29 -4 59 -4q98 0 98 50q0 21 -17.5 33.5t-52.5 12.5q-12 0 -18 -1v85q-73 0 -132 34.5t-93 94t-34 131.5q0 73 34 132.5
t94 93.5t133 34q82 0 144.5 -41t85.5 -109h-20q-22 60 -79 96t-131 36q-68 0 -123 -32t-86.5 -87.5t-31.5 -122.5t31.5 -122.5t86.5 -87.5t123 -32q74 0 130.5 36z" />
    <glyph glyph-name="egrave" unicode="&#xe8;" horiz-adv-x="579" 
d="M425.5 474q54.5 -36 84 -96.5t29.5 -129.5v-10h-18h-451q3 -68 33.5 -120t82.5 -81t116 -29q71 0 125 33t74 88h21q-22 -63 -81 -101t-139 -38q-73 0 -130.5 33.5t-89.5 92.5t-32 134q0 73 31.5 132.5t87.5 93.5t129 34t127.5 -36zM521 256q-4 70 -33.5 123.5t-79 83
t-110.5 29.5q-64 0 -115.5 -30t-81.5 -83.5t-31 -122.5h451zM242 690h-21l84 -120h17z" />
    <glyph glyph-name="eacute" unicode="&#xe9;" horiz-adv-x="579" 
d="M425.5 474q54.5 -36 84 -96.5t29.5 -129.5v-10h-18h-451q3 -68 33.5 -120t82.5 -81t116 -29q71 0 125 33t74 88h21q-22 -63 -81 -101t-139 -38q-73 0 -130.5 33.5t-89.5 92.5t-32 134q0 73 31.5 132.5t87.5 93.5t129 34t127.5 -36zM521 256q-4 70 -33.5 123.5t-79 83
t-110.5 29.5q-64 0 -115.5 -30t-81.5 -83.5t-31 -122.5h451zM290 570l83 120h-21l-80 -120h18z" />
    <glyph glyph-name="ecircumflex" unicode="&#xea;" horiz-adv-x="579" 
d="M425.5 474q54.5 -36 84 -96.5t29.5 -129.5v-10h-18h-451q3 -68 33.5 -120t82.5 -81t116 -29q71 0 125 33t74 88h21q-22 -63 -81 -101t-139 -38q-73 0 -130.5 33.5t-89.5 92.5t-32 134q0 73 31.5 132.5t87.5 93.5t129 34t127.5 -36zM521 256q-4 70 -33.5 123.5t-79 83
t-110.5 29.5q-64 0 -115.5 -30t-81.5 -83.5t-31 -122.5h451zM396 570l-101 108l-101 -108h-22l112 120h22l112 -120h-22z" />
    <glyph glyph-name="edieresis" unicode="&#xeb;" horiz-adv-x="579" 
d="M425.5 474q54.5 -36 84 -96.5t29.5 -129.5v-10h-18h-451q3 -68 33.5 -120t82.5 -81t116 -29q71 0 125 33t74 88h21q-22 -63 -81 -101t-139 -38q-73 0 -130.5 33.5t-89.5 92.5t-32 134q0 73 31.5 132.5t87.5 93.5t129 34t127.5 -36zM521 256q-4 70 -33.5 123.5t-79 83
t-110.5 29.5q-64 0 -115.5 -30t-81.5 -83.5t-31 -122.5h451zM197 640h20v-60h-20v60zM377 640h20v-60h-20v60z" />
    <glyph glyph-name="igrave" unicode="&#xec;" horiz-adv-x="200" 
d="M51 690h-21l68 -120h18zM90 0v500h20v-500h-20z" />
    <glyph glyph-name="iacute" unicode="&#xed;" horiz-adv-x="200" 
d="M98 570l68 120h-21l-65 -120h18zM90 500h20v-500h-20v500z" />
    <glyph glyph-name="icircumflex" unicode="&#xee;" horiz-adv-x="200" 
d="M193 570h-22l-71 104l-71 -104h-22l82 120h22zM90 500h20v-500h-20v500z" />
    <glyph glyph-name="idieresis" unicode="&#xef;" horiz-adv-x="200" 
d="M30 640h20v-60h-20v60zM150 640h20v-60h-20v60zM90 500h20v-500h-20v500z" />
    <glyph glyph-name="eth" unicode="&#xf0;" horiz-adv-x="590" 
d="M540 230q0 -71 -34 -126t-89.5 -84.5t-119.5 -29.5q-65 0 -121.5 29.5t-91 84.5t-34.5 126q0 67 34 120t89.5 82.5t117.5 29.5q43 0 76.5 -9t63.5 -28l-132 177l-133 -82v20l123 76l-63 84h22l56 -75l109 67v-20l-99 -61l180 -241q46 -62 46 -140zM411 37q51 29 80 79.5
t29 113.5q0 76 -40 129q-37 50 -83 67.5t-106 17.5q-61 0 -111.5 -28.5t-80 -77.5t-29.5 -108q0 -63 30 -113.5t81.5 -79.5t115.5 -29q63 0 114 29z" />
    <glyph glyph-name="ntilde" unicode="&#xf1;" horiz-adv-x="535" 
d="M414 465q46 -45 46 -128v-337h-20v337q0 72 -39.5 113.5t-105.5 41.5q-50 0 -92 -24.5t-67.5 -72t-25.5 -113.5v-282h-20v500h20v-124q20 67 72 100.5t113 33.5q73 0 119 -45zM163 655.5q16 24.5 42 24.5q36 0 75 -42q35 -36 62 -36q20 0 32 19t12 53h17q0 -41 -16.5 -65
t-43.5 -24q-35 0 -73 41q-34 37 -63 37q-20 0 -31.5 -19.5t-11.5 -53.5h-17q0 41 16 65.5z" />
    <glyph glyph-name="ograve" unicode="&#xf2;" horiz-adv-x="622" 
d="M179.5 24.5q-59.5 34.5 -94.5 94t-35 131.5t35 131.5t94.5 94t131.5 34.5t131.5 -34.5t94.5 -94t35 -131.5t-35 -131.5t-94.5 -94t-131.5 -34.5t-131.5 34.5zM433 40q55 32 87 87.5t32 122.5t-32 122.5t-87 87.5t-122 32t-122 -32t-87 -87.5t-32 -122.5t32 -122.5
t87 -87.5t122 -32t122 32zM248 690h-21l84 -120h17z" />
    <glyph glyph-name="oacute" unicode="&#xf3;" horiz-adv-x="622" 
d="M179.5 24.5q-59.5 34.5 -94.5 94t-35 131.5t35 131.5t94.5 94t131.5 34.5t131.5 -34.5t94.5 -94t35 -131.5t-35 -131.5t-94.5 -94t-131.5 -34.5t-131.5 34.5zM433 40q55 32 87 87.5t32 122.5t-32 122.5t-87 87.5t-122 32t-122 -32t-87 -87.5t-32 -122.5t32 -122.5
t87 -87.5t122 -32t122 32zM296 570l83 120h-21l-80 -120h18z" />
    <glyph glyph-name="ocircumflex" unicode="&#xf4;" horiz-adv-x="622" 
d="M179.5 24.5q-59.5 34.5 -94.5 94t-35 131.5t35 131.5t94.5 94t131.5 34.5t131.5 -34.5t94.5 -94t35 -131.5t-35 -131.5t-94.5 -94t-131.5 -34.5t-131.5 34.5zM433 40q55 32 87 87.5t32 122.5t-32 122.5t-87 87.5t-122 32t-122 -32t-87 -87.5t-32 -122.5t32 -122.5
t87 -87.5t122 -32t122 32zM402 570l-101 108l-101 -108h-22l112 120h22l112 -120h-22z" />
    <glyph glyph-name="otilde" unicode="&#xf5;" horiz-adv-x="622" 
d="M179.5 24.5q-59.5 34.5 -94.5 94t-35 131.5t35 131.5t94.5 94t131.5 34.5t131.5 -34.5t94.5 -94t35 -131.5t-35 -131.5t-94.5 -94t-131.5 -34.5t-131.5 34.5zM433 40q55 32 87 87.5t32 122.5t-32 122.5t-87 87.5t-122 32t-122 -32t-87 -87.5t-32 -122.5t32 -122.5
t87 -87.5t122 -32t122 32zM191 655.5q16 24.5 42 24.5q36 0 75 -42q35 -36 62 -36q20 0 32 19t12 53h17q0 -41 -16.5 -65t-43.5 -24q-35 0 -73 41q-34 37 -63 37q-20 0 -31.5 -19.5t-11.5 -53.5h-17q0 41 16 65.5z" />
    <glyph glyph-name="odieresis" unicode="&#xf6;" horiz-adv-x="622" 
d="M179.5 24.5q-59.5 34.5 -94.5 94t-35 131.5t35 131.5t94.5 94t131.5 34.5t131.5 -34.5t94.5 -94t35 -131.5t-35 -131.5t-94.5 -94t-131.5 -34.5t-131.5 34.5zM433 40q55 32 87 87.5t32 122.5t-32 122.5t-87 87.5t-122 32t-122 -32t-87 -87.5t-32 -122.5t32 -122.5
t87 -87.5t122 -32t122 32zM203 640h20v-60h-20v60zM383 640h20v-60h-20v60z" />
    <glyph glyph-name="divide" unicode="&#xf7;" horiz-adv-x="580" 
d="M272.5 519.5q-7.5 7.5 -7.5 17.5q0 11 7.5 18t17.5 7q11 0 18 -7t7 -18q0 -10 -7 -17.5t-18 -7.5q-10 0 -17.5 7.5zM70 359h440v-18h-440v18zM272.5 145.5q-7.5 7.5 -7.5 17.5q0 11 7.5 18t17.5 7q11 0 18 -7t7 -18q0 -10 -7 -17.5t-18 -7.5q-10 0 -17.5 7.5z" />
    <glyph glyph-name="oslash" unicode="&#xf8;" horiz-adv-x="622" 
d="M551.5 352.5q20.5 -48.5 20.5 -102.5q0 -72 -35 -131.5t-94.5 -94t-131.5 -34.5q-49 0 -92.5 16t-78.5 46l-48 -52h-23l59 63q-37 36 -57.5 84.5t-20.5 102.5q0 72 35 131.5t94.5 94t131.5 34.5q49 0 92.5 -16t78.5 -46l48 52h23l-59 -63q37 -36 57.5 -84.5zM88.5 155.5
q18.5 -44.5 51.5 -78.5l329 357q-32 28 -72.5 43t-85.5 15q-67 0 -122 -32t-87 -87.5t-32 -122.5q0 -50 18.5 -94.5zM433 40q55 32 87 87.5t32 122.5q0 50 -18.5 94.5t-51.5 78.5l-329 -357q32 -28 72.5 -43t85.5 -15q67 0 122 32z" />
    <glyph glyph-name="ugrave" unicode="&#xf9;" horiz-adv-x="535" 
d="M445 500v-500h-20v124q-20 -67 -72 -100.5t-113 -33.5q-73 0 -119 45t-46 128v337h20v-337q0 -72 39.5 -113.5t105.5 -41.5q50 0 92 24.5t67.5 72t25.5 113.5v282h20zM202 690h-21l84 -120h17z" />
    <glyph glyph-name="uacute" unicode="&#xfa;" horiz-adv-x="535" 
d="M445 500v-500h-20v124q-20 -67 -72 -100.5t-113 -33.5q-73 0 -119 45t-46 128v337h20v-337q0 -72 39.5 -113.5t105.5 -41.5q50 0 92 24.5t67.5 72t25.5 113.5v282h20zM250 570l83 120h-21l-80 -120h18z" />
    <glyph glyph-name="ucircumflex" unicode="&#xfb;" horiz-adv-x="535" 
d="M445 500v-500h-20v124q-20 -67 -72 -100.5t-113 -33.5q-73 0 -119 45t-46 128v337h20v-337q0 -72 39.5 -113.5t105.5 -41.5q50 0 92 24.5t67.5 72t25.5 113.5v282h20zM356 570l-101 108l-101 -108h-22l112 120h22l112 -120h-22z" />
    <glyph glyph-name="udieresis" unicode="&#xfc;" horiz-adv-x="535" 
d="M445 500v-500h-20v124q-20 -67 -72 -100.5t-113 -33.5q-73 0 -119 45t-46 128v337h20v-337q0 -72 39.5 -113.5t105.5 -41.5q50 0 92 24.5t67.5 72t25.5 113.5v282h20zM157 640h20v-60h-20v60zM337 640h20v-60h-20v60z" />
    <glyph glyph-name="yacute" unicode="&#xfd;" horiz-adv-x="470" 
d="M450 500l-272 -700h-21l78 200l-215 500h21l204 -474l184 474h21zM228 570l83 120h-21l-80 -120h18z" />
    <glyph glyph-name="thorn" unicode="&#xfe;" horiz-adv-x="662" 
d="M482.5 475.5q59.5 -34.5 94.5 -94t35 -131.5t-35 -131.5t-94.5 -94t-131.5 -34.5q-83 0 -148.5 46t-92.5 121v-357h-20v900h20v-357q27 75 92.5 121t148.5 46q72 0 131.5 -34.5zM473 40q55 32 87 87.5t32 122.5t-32 122.5t-87 87.5t-122 32t-122 -32t-87 -87.5
t-32 -122.5t32 -122.5t87 -87.5t122 -32t122 32z" />
    <glyph glyph-name="ydieresis" unicode="&#xff;" horiz-adv-x="470" 
d="M450 500l-272 -700h-21l78 200l-215 500h21l204 -474l184 474h21zM135 640h20v-60h-20v60zM315 640h20v-60h-20v60z" />
    <glyph glyph-name="Amacron" unicode="&#x100;" horiz-adv-x="628" 
d="M507 191h-386l-75 -191h-21l277 700h24l277 -700h-21zM500 209l-186 470l-186 -470h372zM194 817h240v-16h-240v16z" />
    <glyph glyph-name="amacron" unicode="&#x101;" 
d="M375 464q50 -46 50 -129v-335h-20v71q-19 -42 -64 -61.5t-107 -19.5q-76 0 -127.5 40t-51.5 111t51.5 111t127.5 40q60 0 105.5 -21t65.5 -61v125q0 73 -43 115t-112 42t-112 -37t-43 -100h-20q0 69 48 112t127 43q75 0 125 -46zM357 39.5q48 31.5 48 101.5
q0 69 -49.5 101t-121.5 32t-115.5 -36.5t-43.5 -96.5t43.5 -96.5t115.5 -36.5q75 0 123 31.5zM130 617h240v-16h-240v16z" />
    <glyph glyph-name="Abreve" unicode="&#x102;" horiz-adv-x="628" 
d="M507 191h-386l-75 -191h-21l277 700h24l277 -700h-21zM500 209l-186 470l-186 -470h372zM227 801q-33 29 -33 76h18q0 -40 28 -64.5t74 -24.5t74 24.5t28 64.5h18q0 -47 -33 -76t-87 -29t-87 29z" />
    <glyph glyph-name="abreve" unicode="&#x103;" 
d="M375 464q50 -46 50 -129v-335h-20v71q-19 -42 -64 -61.5t-107 -19.5q-76 0 -127.5 40t-51.5 111t51.5 111t127.5 40q60 0 105.5 -21t65.5 -61v125q0 73 -43 115t-112 42t-112 -37t-43 -100h-20q0 69 48 112t127 43q75 0 125 -46zM357 39.5q48 31.5 48 101.5
q0 69 -49.5 101t-121.5 32t-115.5 -36.5t-43.5 -96.5t43.5 -96.5t115.5 -36.5q75 0 123 31.5zM163 601q-33 29 -33 76h18q0 -40 28 -64.5t74 -24.5t74 24.5t28 64.5h18q0 -47 -33 -76t-87 -29t-87 29z" />
    <glyph glyph-name="Aogonek" unicode="&#x104;" horiz-adv-x="628" 
d="M520.5 -180.5q14.5 -13.5 37.5 -13.5q29 0 45 8v-16q-15 -8 -45 -8q-32 0 -51 17.5t-19 48.5q0 66 92 149l-73 186h-386l-75 -191h-21l277 700h24l277 -700q-49 -42 -73 -76t-24 -68q0 -23 14.5 -36.5zM500 209l-186 470l-186 -470h372z" />
    <glyph glyph-name="aogonek" unicode="&#x105;" 
d="M352 -76q-24 -34 -24 -68q0 -23 14.5 -36.5t37.5 -13.5q26 0 45 8v-16q-17 -8 -45 -8q-32 0 -51 17.5t-19 48.5q0 70 95 149v66q-19 -42 -64 -61.5t-107 -19.5q-76 0 -127.5 40t-51.5 111t51.5 111t127.5 40q60 0 105.5 -21t65.5 -61v125q0 73 -43 115t-112 42t-112 -37
t-43 -100h-20q0 69 48 112t127 43q75 0 125 -46t50 -129v-335q-49 -42 -73 -76zM357 39.5q48 31.5 48 101.5q0 69 -49.5 101t-121.5 32t-115.5 -36.5t-43.5 -96.5t43.5 -96.5t115.5 -36.5q75 0 123 31.5z" />
    <glyph glyph-name="Cacute" unicode="&#x106;" horiz-adv-x="778" 
d="M235.5 38q-82.5 48 -129 130.5t-46.5 181.5t46.5 181.5t129 130.5t184.5 48q71 0 135.5 -26.5t111.5 -74t70 -109.5h-21q-34 86 -115 139t-181 53q-97 0 -174.5 -46t-121.5 -124t-44 -172t44 -172.5t121.5 -124t174.5 -45.5q100 0 181 53t115 139h22q-36 -94 -122.5 -152
t-195.5 -58q-102 0 -184.5 48zM413 770l83 120h-21l-80 -120h18z" />
    <glyph glyph-name="cacute" unicode="&#x107;" horiz-adv-x="581" 
d="M455.5 31q-62.5 -41 -144.5 -41q-73 0 -133 34t-94 93.5t-34 132.5t34 132.5t94 93.5t133 34q82 0 144.5 -41t85.5 -109h-20q-22 60 -79 96t-131 36q-68 0 -123 -32t-86.5 -87.5t-31.5 -122.5t31.5 -122.5t86.5 -87.5t123 -32q74 0 130.5 36t79.5 96h20
q-23 -68 -85.5 -109zM305 570l83 120h-21l-80 -120h18z" />
    <glyph glyph-name="Cdotaccent" unicode="&#x10a;" horiz-adv-x="778" 
d="M235.5 38q-82.5 48 -129 130.5t-46.5 181.5t46.5 181.5t129 130.5t184.5 48q71 0 135.5 -26.5t111.5 -74t70 -109.5h-21q-34 86 -115 139t-181 53q-97 0 -174.5 -46t-121.5 -124t-44 -172t44 -172.5t121.5 -124t174.5 -45.5q100 0 181 53t115 139h22q-36 -94 -122.5 -152
t-195.5 -58q-102 0 -184.5 48zM410 850h20v-70h-20v70z" />
    <glyph glyph-name="cdotaccent" unicode="&#x10b;" horiz-adv-x="581" 
d="M455.5 31q-62.5 -41 -144.5 -41q-73 0 -133 34t-94 93.5t-34 132.5t34 132.5t94 93.5t133 34q82 0 144.5 -41t85.5 -109h-20q-22 60 -79 96t-131 36q-68 0 -123 -32t-86.5 -87.5t-31.5 -122.5t31.5 -122.5t86.5 -87.5t123 -32q74 0 130.5 36t79.5 96h20
q-23 -68 -85.5 -109zM302 650h20v-70h-20v70z" />
    <glyph glyph-name="Ccaron" unicode="&#x10c;" horiz-adv-x="778" 
d="M235.5 38q-82.5 48 -129 130.5t-46.5 181.5t46.5 181.5t129 130.5t184.5 48q71 0 135.5 -26.5t111.5 -74t70 -109.5h-21q-34 86 -115 139t-181 53q-97 0 -174.5 -46t-121.5 -124t-44 -172t44 -172.5t121.5 -124t174.5 -45.5q100 0 181 53t115 139h22q-36 -94 -122.5 -152
t-195.5 -58q-102 0 -184.5 48zM541 890l-112 -120h-22l-112 120h22l101 -108l101 108h22z" />
    <glyph glyph-name="ccaron" unicode="&#x10d;" horiz-adv-x="581" 
d="M455.5 31q-62.5 -41 -144.5 -41q-73 0 -133 34t-94 93.5t-34 132.5t34 132.5t94 93.5t133 34q82 0 144.5 -41t85.5 -109h-20q-22 60 -79 96t-131 36q-68 0 -123 -32t-86.5 -87.5t-31.5 -122.5t31.5 -122.5t86.5 -87.5t123 -32q74 0 130.5 36t79.5 96h20
q-23 -68 -85.5 -109zM433 690l-112 -120h-22l-112 120h22l101 -108l101 108h22z" />
    <glyph glyph-name="Dcaron" unicode="&#x10e;" horiz-adv-x="760" 
d="M539.5 653q75.5 -47 118 -127t42.5 -176t-42.5 -176t-118 -127t-169.5 -47h-260h-10v700h20h250q94 0 169.5 -47zM530 62.5q71 44.5 110.5 120.5t39.5 167t-39.5 167t-110.5 120.5t-160 44.5h-250v-664h250q89 0 160 44.5zM471 890l-112 -120h-22l-112 120h22l101 -108
l101 108h22z" />
    <glyph glyph-name="dcaron" unicode="&#x10f;" horiz-adv-x="686" 
d="M552 700h20v-700h-20v157q-27 -75 -92.5 -121t-148.5 -46q-72 0 -131.5 34.5t-94.5 94t-35 131.5t35 131.5t94.5 94t131.5 34.5q83 0 148.5 -46t92.5 -121v357zM686 700l-14 -170h-16l10 170h20zM433 40q55 32 87 87.5t32 122.5t-32 122.5t-87 87.5t-122 32t-122 -32
t-87 -87.5t-32 -122.5t32 -122.5t87 -87.5t122 -32t122 32z" />
    <glyph glyph-name="Dcroat" unicode="&#x110;" horiz-adv-x="780" 
d="M559.5 653q75.5 -47 118 -127t42.5 -176t-42.5 -176t-118 -127t-169.5 -47h-260h-10v341h-60v18h60v341h20h250q94 0 169.5 -47zM550 62.5q71 44.5 110.5 120.5t39.5 167t-39.5 167t-110.5 120.5t-160 44.5h-250v-323h280v-18h-280v-323h250q89 0 160 44.5z" />
    <glyph glyph-name="dcroat" unicode="&#x111;" horiz-adv-x="666" 
d="M636 595h-64v-595h-20v157q-27 -75 -92.5 -121t-148.5 -46q-72 0 -131.5 34.5t-94.5 94t-35 131.5t35 131.5t94.5 94t131.5 34.5q83 0 148.5 -46t92.5 -121v252h-236v17h236v88h20v-88h64v-17zM433 40q55 32 87 87.5t32 122.5t-32 122.5t-87 87.5t-122 32t-122 -32
t-87 -87.5t-32 -122.5t32 -122.5t87 -87.5t122 -32t122 32z" />
    <glyph glyph-name="Emacron" unicode="&#x112;" horiz-adv-x="520" 
d="M470 18v-18h-360h-10v700h20h345v-18h-345v-320h320v-18h-320v-326h350zM157 817h240v-16h-240v16z" />
    <glyph glyph-name="emacron" unicode="&#x113;" horiz-adv-x="579" 
d="M425.5 474q54.5 -36 84 -96.5t29.5 -129.5v-10h-18h-451q3 -68 33.5 -120t82.5 -81t116 -29q71 0 125 33t74 88h21q-22 -63 -81 -101t-139 -38q-73 0 -130.5 33.5t-89.5 92.5t-32 134q0 73 31.5 132.5t87.5 93.5t129 34t127.5 -36zM521 256q-4 70 -33.5 123.5t-79 83
t-110.5 29.5q-64 0 -115.5 -30t-81.5 -83.5t-31 -122.5h451zM177 617h240v-16h-240v16z" />
    <glyph glyph-name="Edotaccent" unicode="&#x116;" horiz-adv-x="520" 
d="M470 18v-18h-360h-10v700h20h345v-18h-345v-320h320v-18h-320v-326h350zM267 850h20v-70h-20v70z" />
    <glyph glyph-name="edotaccent" unicode="&#x117;" horiz-adv-x="579" 
d="M425.5 474q54.5 -36 84 -96.5t29.5 -129.5v-10h-18h-451q3 -68 33.5 -120t82.5 -81t116 -29q71 0 125 33t74 88h21q-22 -63 -81 -101t-139 -38q-73 0 -130.5 33.5t-89.5 92.5t-32 134q0 73 31.5 132.5t87.5 93.5t129 34t127.5 -36zM521 256q-4 70 -33.5 123.5t-79 83
t-110.5 29.5q-64 0 -115.5 -30t-81.5 -83.5t-31 -122.5h451zM287 650h20v-70h-20v70z" />
    <glyph glyph-name="Eogonek" unicode="&#x118;" horiz-adv-x="522" 
d="M470 18v-18h-360h-10v700h20h345v-18h-345v-320h320v-18h-320v-326h350zM374.5 -192.5q-19.5 17.5 -19.5 48.5q0 68 92 144h23q-49 -42 -73 -76t-24 -68q0 -23 15 -36.5t39 -13.5q26 0 45 8v-16q-17 -8 -45 -8q-33 0 -52.5 17.5z" />
    <glyph glyph-name="eogonek" unicode="&#x119;" horiz-adv-x="579" 
d="M425.5 474q54.5 -36 84 -96.5t29.5 -129.5v-10h-18h-451q3 -68 33.5 -120t82.5 -81t116 -29q71 0 125 33t74 88h21q-13 -40 -45 -72q-83 -92 -111 -130.5t-28 -70.5q0 -23 15 -36.5t39 -13.5q26 0 45 8v-16q-17 -8 -45 -8q-33 0 -52.5 17.5t-19.5 48.5q0 58 98 159
q-53 -25 -116 -25q-73 0 -130.5 33.5t-89.5 92.5t-32 134q0 73 31.5 132.5t87.5 93.5t129 34t127.5 -36zM521 256q-4 70 -33.5 123.5t-79 83t-110.5 29.5q-64 0 -115.5 -30t-81.5 -83.5t-31 -122.5h451z" />
    <glyph glyph-name="Ecaron" unicode="&#x11a;" horiz-adv-x="520" 
d="M470 18v-18h-360h-10v700h20h345v-18h-345v-320h320v-18h-320v-326h350zM398 890l-112 -120h-22l-112 120h22l101 -108l101 108h22z" />
    <glyph glyph-name="ecaron" unicode="&#x11b;" horiz-adv-x="579" 
d="M425.5 474q54.5 -36 84 -96.5t29.5 -129.5v-10h-18h-451q3 -68 33.5 -120t82.5 -81t116 -29q71 0 125 33t74 88h21q-22 -63 -81 -101t-139 -38q-73 0 -130.5 33.5t-89.5 92.5t-32 134q0 73 31.5 132.5t87.5 93.5t129 34t127.5 -36zM521 256q-4 70 -33.5 123.5t-79 83
t-110.5 29.5q-64 0 -115.5 -30t-81.5 -83.5t-31 -122.5h451zM418 690l-112 -120h-22l-112 120h22l101 -108l101 108h22z" />
    <glyph glyph-name="Gbreve" unicode="&#x11e;" horiz-adv-x="818" 
d="M738 329v-18v-311h-20v157q-34 -80 -113.5 -123.5t-174.5 -43.5q-109 0 -193 48t-130.5 130.5t-46.5 181.5t46.5 181.5t129 130.5t184.5 48q71 0 135.5 -26.5t111.5 -74t70 -109.5h-21q-34 86 -115 139t-181 53q-97 0 -174.5 -46t-121.5 -124t-44 -172q0 -95 43.5 -173
t123.5 -123.5t183 -45.5q70 0 132 25.5t104.5 75.5t51.5 121v81h-290v18h310zM333 801q-33 29 -33 76h18q0 -40 28 -64.5t74 -24.5t74 24.5t28 64.5h18q0 -47 -33 -76t-87 -29t-87 29z" />
    <glyph glyph-name="gbreve" unicode="&#x11f;" horiz-adv-x="672" 
d="M582 500v-469q0 -111 -65 -176t-181 -65q-68 0 -122 25t-84 65t-30 82h20q0 -37 27.5 -72.5t76.5 -58.5t112 -23q107 0 166.5 60t59.5 163v126q-27 -75 -92.5 -121t-148.5 -46q-72 0 -131.5 34.5t-94.5 94t-35 131.5t35 131.5t94.5 94t131.5 34.5q83 0 148.5 -46
t92.5 -121v157h20zM443 40q55 32 87 87.5t32 122.5t-32 122.5t-87 87.5t-122 32t-122 -32t-87 -87.5t-32 -122.5t32 -122.5t87 -87.5t122 -32t122 32zM241 601q-33 29 -33 76h18q0 -40 28 -64.5t74 -24.5t74 24.5t28 64.5h18q0 -47 -33 -76t-87 -29t-87 29z" />
    <glyph glyph-name="Gdotaccent" unicode="&#x120;" horiz-adv-x="818" 
d="M738 329v-18v-311h-20v157q-34 -80 -113.5 -123.5t-174.5 -43.5q-109 0 -193 48t-130.5 130.5t-46.5 181.5t46.5 181.5t129 130.5t184.5 48q71 0 135.5 -26.5t111.5 -74t70 -109.5h-21q-34 86 -115 139t-181 53q-97 0 -174.5 -46t-121.5 -124t-44 -172q0 -95 43.5 -173
t123.5 -123.5t183 -45.5q70 0 132 25.5t104.5 75.5t51.5 121v81h-290v18h310zM410 850h20v-70h-20v70z" />
    <glyph glyph-name="gdotaccent" unicode="&#x121;" horiz-adv-x="672" 
d="M582 500v-469q0 -111 -65 -176t-181 -65q-68 0 -122 25t-84 65t-30 82h20q0 -37 27.5 -72.5t76.5 -58.5t112 -23q107 0 166.5 60t59.5 163v126q-27 -75 -92.5 -121t-148.5 -46q-72 0 -131.5 34.5t-94.5 94t-35 131.5t35 131.5t94.5 94t131.5 34.5q83 0 148.5 -46
t92.5 -121v157h20zM443 40q55 32 87 87.5t32 122.5t-32 122.5t-87 87.5t-122 32t-122 -32t-87 -87.5t-32 -122.5t32 -122.5t87 -87.5t122 -32t122 32zM318 650h20v-70h-20v70z" />
    <glyph glyph-name="Gcommaaccent" unicode="&#x122;" horiz-adv-x="818" 
d="M738 329v-18v-311h-20v157q-34 -80 -113.5 -123.5t-174.5 -43.5q-109 0 -193 48t-130.5 130.5t-46.5 181.5t46.5 181.5t129 130.5t184.5 48q71 0 135.5 -26.5t111.5 -74t70 -109.5h-21q-34 86 -115 139t-181 53q-97 0 -174.5 -46t-121.5 -124t-44 -172q0 -95 43.5 -173
t123.5 -123.5t183 -45.5q70 0 132 25.5t104.5 75.5t51.5 121v81h-290v18h310zM442 -70h-20l-10 -170h16z" />
    <glyph glyph-name="gcommaaccent" unicode="&#x123;" horiz-adv-x="672" 
d="M582 500v-469q0 -111 -65 -176t-181 -65q-68 0 -122 25t-84 65t-30 82h20q0 -37 27.5 -72.5t76.5 -58.5t112 -23q107 0 166.5 60t59.5 163v126q-27 -75 -92.5 -121t-148.5 -46q-72 0 -131.5 34.5t-94.5 94t-35 131.5t35 131.5t94.5 94t131.5 34.5q83 0 148.5 -46
t92.5 -121v157h20zM443 40q55 32 87 87.5t32 122.5t-32 122.5t-87 87.5t-122 32t-122 -32t-87 -87.5t-32 -122.5t32 -122.5t87 -87.5t122 -32t122 32zM309 590h20l10 170h-16z" />
    <glyph glyph-name="Hbar" unicode="&#x126;" horiz-adv-x="700" 
d="M640 531h-70v-531h-20v351h-400v-351h-20v531h-70v18h70v151h20v-151h400v151h20v-151h70v-18zM550 531h-400v-162h400v162z" />
    <glyph glyph-name="hbar" unicode="&#x127;" horiz-adv-x="555" 
d="M434 465q46 -45 46 -128v-337h-20v337q0 72 -39.5 113.5t-105.5 41.5q-50 0 -92 -24.5t-67.5 -72t-25.5 -113.5v-282h-20v595h-80v17h80v88h20v-88h180v-17h-180v-225q18 70 70 105t115 35q73 0 119 -45z" />
    <glyph glyph-name="Imacron" unicode="&#x12a;" horiz-adv-x="220" 
d="M120 700v-700h-20v700h20zM-10 817h240v-16h-240v16z" />
    <glyph glyph-name="imacron" unicode="&#x12b;" horiz-adv-x="200" 
d="M20 617h160v-16h-160v16zM90 500h20v-500h-20v500z" />
    <glyph glyph-name="Iogonek" unicode="&#x12e;" horiz-adv-x="220" 
d="M167 -186v-16q-17 -8 -45 -8q-33 0 -52.5 17.5t-19.5 48.5q0 54 50 144v700h20v-700q-29 -57 -40.5 -85t-11.5 -59q0 -23 15 -36.5t39 -13.5q26 0 45 8z" />
    <glyph glyph-name="iogonek" unicode="&#x12f;" horiz-adv-x="200" 
d="M110 600h-20v100h20v-100zM157 -186v-16q-17 -8 -45 -8q-33 0 -52.5 19.5t-19.5 50.5q0 56 50 145v495h20v-500q-30 -56 -41 -82t-11 -58q0 -23 15 -38.5t39 -15.5q26 0 45 8z" />
    <glyph glyph-name="Idotaccent" unicode="&#x130;" horiz-adv-x="220" 
d="M120 700v-700h-20v700h20zM100 850h20v-70h-20v70z" />
    <glyph glyph-name="dotlessi" unicode="&#x131;" horiz-adv-x="200" 
d="M90 500h20v-500h-20v500z" />
    <glyph glyph-name="Kcommaaccent" unicode="&#x136;" horiz-adv-x="555" 
d="M518 0l-398 355v-355h-20v700h20v-335l388 335h27l-393 -340l403 -360h-27zM329 -70h-20l-10 -170h16z" />
    <glyph glyph-name="kcommaaccent" unicode="&#x137;" horiz-adv-x="461" 
d="M403 0l-293 254v-254h-20v700h20v-434l283 234h28l-290 -240l300 -260h-28zM267 -70h-20l-10 -170h16z" />
    <glyph glyph-name="Lacute" unicode="&#x139;" 
d="M470 18v-18h-370v700h20v-682h350zM115 770l83 120h-21l-80 -120h18z" />
    <glyph glyph-name="lacute" unicode="&#x13a;" horiz-adv-x="200" 
d="M90 720h20v-720h-20v720zM108 770l83 120h-21l-80 -120h18z" />
    <glyph glyph-name="Lcommaaccent" unicode="&#x13b;" 
d="M470 18v-18h-370v700h20v-682h350zM297 -70h-20l-10 -170h16z" />
    <glyph glyph-name="lcommaaccent" unicode="&#x13c;" horiz-adv-x="200" 
d="M90 720h20v-720h-20v720zM111 -70h-20l-10 -170h16z" />
    <glyph glyph-name="Lcaron" unicode="&#x13d;" 
d="M470 18v-18h-370v700h20v-682h350zM292 530h-16l10 170h20z" />
    <glyph glyph-name="lcaron" unicode="&#x13e;" horiz-adv-x="226" 
d="M90 720h20v-720h-20v720zM226 720h-20l-10 -170h16z" />
    <glyph glyph-name="Lslash" unicode="&#x141;" horiz-adv-x="510" 
d="M480 18v-18h-370v265l-60 -40v20l60 40v415h20v-402l210 138v-20l-210 -138v-260h350z" />
    <glyph glyph-name="lslash" unicode="&#x142;" horiz-adv-x="240" 
d="M220 419l-90 -62v-357h-20v344l-90 -62v21l90 62v355h20v-342l90 62v-21z" />
    <glyph glyph-name="Nacute" unicode="&#x143;" horiz-adv-x="630" 
d="M530 700v-700h-20l-390 662v-662h-20v700h20l390 -662v662h20zM308 770l83 120h-21l-80 -120h18z" />
    <glyph glyph-name="nacute" unicode="&#x144;" horiz-adv-x="535" 
d="M414 465q46 -45 46 -128v-337h-20v337q0 72 -39.5 113.5t-105.5 41.5q-50 0 -92 -24.5t-67.5 -72t-25.5 -113.5v-282h-20v500h20v-124q20 67 72 100.5t113 33.5q73 0 119 -45zM268 570l83 120h-21l-80 -120h18z" />
    <glyph glyph-name="Ncommaaccent" unicode="&#x145;" horiz-adv-x="630" 
d="M530 700v-700h-20l-390 662v-662h-20v700h20l390 -662v662h20zM327 -70h-20l-10 -170h16z" />
    <glyph glyph-name="ncommaaccent" unicode="&#x146;" horiz-adv-x="535" 
d="M414 465q46 -45 46 -128v-337h-20v337q0 72 -39.5 113.5t-105.5 41.5q-50 0 -92 -24.5t-67.5 -72t-25.5 -113.5v-282h-20v500h20v-124q20 67 72 100.5t113 33.5q73 0 119 -45zM290 -70h-20l-10 -170h16z" />
    <glyph glyph-name="Ncaron" unicode="&#x147;" horiz-adv-x="630" 
d="M530 700v-700h-20l-390 662v-662h-20v700h20l390 -662v662h20zM436 890l-112 -120h-22l-112 120h22l101 -108l101 108h22z" />
    <glyph glyph-name="ncaron" unicode="&#x148;" horiz-adv-x="535" 
d="M414 465q46 -45 46 -128v-337h-20v337q0 72 -39.5 113.5t-105.5 41.5q-50 0 -92 -24.5t-67.5 -72t-25.5 -113.5v-282h-20v500h20v-124q20 67 72 100.5t113 33.5q73 0 119 -45zM396 690l-112 -120h-22l-112 120h22l101 -108l101 108h22z" />
    <glyph glyph-name="Eng" unicode="&#x14a;" horiz-adv-x="630" 
d="M530 700v-700q0 -106 -50 -153t-145 -47v18q91 0 133 43.5t42 138.5l-390 662v-662h-20v700h20l390 -662v662h20z" />
    <glyph glyph-name="eng" unicode="&#x14b;" horiz-adv-x="535" 
d="M414 465q46 -45 46 -128v-427q0 -56 -29.5 -88.5t-86.5 -32.5q-15 0 -23 1v18q8 -1 22 -1q49 0 73 27t24 76v427q0 72 -39.5 113.5t-105.5 41.5q-50 0 -92 -24.5t-67.5 -72t-25.5 -113.5v-282h-20v500h20v-130q18 70 70 105t115 35q73 0 119 -45z" />
    <glyph glyph-name="Omacron" unicode="&#x14c;" horiz-adv-x="840" 
d="M239.5 38.5q-82.5 48.5 -131 131t-48.5 180.5t48.5 180.5t131 131t180.5 48.5t180.5 -48.5t131 -131t48.5 -180.5t-48.5 -180.5t-131 -131t-180.5 -48.5t-180.5 48.5zM590.5 54q78.5 46 124 124.5t45.5 171.5t-45.5 171.5t-124 124.5t-170.5 46t-170.5 -46t-124 -124.5
t-45.5 -171.5t45.5 -171.5t124 -124.5t170.5 -46t170.5 46zM300 817h240v-16h-240v16z" />
    <glyph glyph-name="omacron" unicode="&#x14d;" horiz-adv-x="622" 
d="M179.5 24.5q-59.5 34.5 -94.5 94t-35 131.5t35 131.5t94.5 94t131.5 34.5t131.5 -34.5t94.5 -94t35 -131.5t-35 -131.5t-94.5 -94t-131.5 -34.5t-131.5 34.5zM433 40q55 32 87 87.5t32 122.5t-32 122.5t-87 87.5t-122 32t-122 -32t-87 -87.5t-32 -122.5t32 -122.5
t87 -87.5t122 -32t122 32zM183 617h240v-16h-240v16z" />
    <glyph glyph-name="Ohungarumlaut" unicode="&#x150;" horiz-adv-x="840" 
d="M239.5 38.5q-82.5 48.5 -131 131t-48.5 180.5t48.5 180.5t131 131t180.5 48.5t180.5 -48.5t131 -131t48.5 -180.5t-48.5 -180.5t-131 -131t-180.5 -48.5t-180.5 48.5zM590.5 54q78.5 46 124 124.5t45.5 171.5t-45.5 171.5t-124 124.5t-170.5 46t-170.5 -46t-124 -124.5
t-45.5 -171.5t45.5 -171.5t124 -124.5t170.5 -46t170.5 46zM337 770l74 130h-21l-70 -130h17zM476 770l84 130h-21l-80 -130h17z" />
    <glyph glyph-name="ohungarumlaut" unicode="&#x151;" horiz-adv-x="622" 
d="M179.5 24.5q-59.5 34.5 -94.5 94t-35 131.5t35 131.5t94.5 94t131.5 34.5t131.5 -34.5t94.5 -94t35 -131.5t-35 -131.5t-94.5 -94t-131.5 -34.5t-131.5 34.5zM433 40q55 32 87 87.5t32 122.5t-32 122.5t-87 87.5t-122 32t-122 -32t-87 -87.5t-32 -122.5t32 -122.5
t87 -87.5t122 -32t122 32zM220 570l74 130h-21l-70 -130h17zM359 570l84 130h-21l-80 -130h17z" />
    <glyph glyph-name="OE" unicode="&#x152;" horiz-adv-x="906" 
d="M856 18v-18h-340h-10q-45 -10 -96 -10q-102 0 -182 48t-124 130.5t-44 181.5t44 181.5t124 130.5t182 48q51 0 96 -10h20h325v-18h-325v-320h300v-18h-300v-326h330zM506 681q-42 11 -96 11q-97 0 -172 -45.5t-116.5 -124t-41.5 -172.5t41.5 -172.5t116.5 -124t172 -45.5
q54 0 96 11v662z" />
    <glyph glyph-name="oe" unicode="&#x153;" horiz-adv-x="1076" 
d="M924 474q54 -36 83 -96t29 -130v-10h-18h-451q3 -67 34 -119.5t83.5 -81.5t116.5 -29q71 0 124 33t73 88h21q-22 -64 -80.5 -101.5t-137.5 -37.5q-92 0 -158 52.5t-86 138.5q-21 -85 -88.5 -138t-157.5 -53q-72 0 -131.5 34.5t-94.5 94t-35 131.5t35 131.5t94.5 94
t131.5 34.5q90 0 157.5 -53t88.5 -138q20 86 84.5 138.5t155.5 52.5q73 0 127 -36zM431 40q54 32 85 87.5t31 122.5t-31 122.5t-85 87.5t-120 32q-67 0 -122 -32t-87 -87.5t-32 -122.5t32 -122.5t87 -87.5t122 -32q66 0 120 32zM1018 256q-4 70 -33 123.5t-78 83t-110 29.5
q-64 0 -116 -30t-82.5 -84t-31.5 -122h451z" />
    <glyph glyph-name="Racute" unicode="&#x154;" horiz-adv-x="620" 
d="M586 0l-265 300h-1h-200v-300h-20v700h20h200q54 0 100 -27t73 -73t27 -100q0 -50 -23.5 -93.5t-63.5 -71.5t-89 -34l266 -301h-24zM120 318h200q49 0 90 24.5t65.5 66.5t24.5 91t-24.5 91t-65.5 66.5t-90 24.5h-200v-364zM263 770l83 120h-21l-80 -120h18z" />
    <glyph glyph-name="racute" unicode="&#x155;" horiz-adv-x="325" 
d="M180 471q52 35 115 35v-18q-50 0 -92 -24.5t-67.5 -72t-25.5 -113.5v-278h-20v500h20v-134q18 70 70 105zM185 570l83 120h-21l-80 -120h18z" />
    <glyph glyph-name="Rcommaaccent" unicode="&#x156;" horiz-adv-x="620" 
d="M586 0l-265 300h-1h-200v-300h-20v700h20h200q54 0 100 -27t73 -73t27 -100q0 -50 -23.5 -93.5t-63.5 -71.5t-89 -34l266 -301h-24zM120 318h200q49 0 90 24.5t65.5 66.5t24.5 91t-24.5 91t-65.5 66.5t-90 24.5h-200v-364zM352 -70h-20l-10 -170h16z" />
    <glyph glyph-name="rcommaaccent" unicode="&#x157;" horiz-adv-x="325" 
d="M180 471q52 35 115 35v-18q-50 0 -92 -24.5t-67.5 -72t-25.5 -113.5v-278h-20v500h20v-134q18 70 70 105zM110 -70h-20l-10 -170h16z" />
    <glyph glyph-name="Rcaron" unicode="&#x158;" horiz-adv-x="620" 
d="M586 0l-265 300h-1h-200v-300h-20v700h20h200q54 0 100 -27t73 -73t27 -100q0 -50 -23.5 -93.5t-63.5 -71.5t-89 -34l266 -301h-24zM120 318h200q49 0 90 24.5t65.5 66.5t24.5 91t-24.5 91t-65.5 66.5t-90 24.5h-200v-364zM391 890l-112 -120h-22l-112 120h22l101 -108
l101 108h22z" />
    <glyph glyph-name="rcaron" unicode="&#x159;" horiz-adv-x="325" 
d="M180 471q52 35 115 35v-18q-50 0 -92 -24.5t-67.5 -72t-25.5 -113.5v-278h-20v500h20v-134q18 70 70 105zM313 690l-112 -120h-22l-112 120h22l101 -108l101 108h22z" />
    <glyph glyph-name="Sacute" unicode="&#x15a;" horiz-adv-x="550" 
d="M115.5 39.5q-65.5 49.5 -65.5 135.5h20q0 -75 57.5 -121t160.5 -46q58 0 102 20.5t67 56.5t23 80q0 52 -26.5 85t-62.5 51t-107 44l-22 8q-65 24 -103.5 43.5t-64.5 54.5t-26 89q0 48 26 86.5t73 61t106 22.5q55 0 102 -23t75 -63t28 -89h-20q0 42 -23.5 78t-66 57.5
t-95.5 21.5q-58 0 -99.5 -21t-63.5 -56t-22 -75q0 -48 24.5 -79.5t61 -50t97.5 -40.5l21 -8q75 -29 113 -48.5t66.5 -55.5t28.5 -93q0 -52 -27.5 -91.5t-76 -61.5t-108.5 -22q-107 0 -172.5 49.5zM264 770l83 120h-21l-80 -120h18z" />
    <glyph glyph-name="sacute" unicode="&#x15b;" horiz-adv-x="470" 
d="M106 318q21 -23 52.5 -34t83.5 -23q58 -14 92 -26.5t57.5 -40t23.5 -74.5q0 -58 -49 -94t-131 -36q-54 0 -95 17.5t-63 48.5t-22 69h20q0 -53 44 -85t116 -32t116 30t44 82q0 41 -21.5 64.5t-53 35t-85.5 24.5q-56 13 -89.5 25.5t-57 39t-23.5 71.5q0 58 46 94t124 36
q75 0 120.5 -38t45.5 -97h-20q0 53 -40.5 85t-105.5 32q-68 0 -109 -29.5t-41 -82.5q0 -39 21 -62zM223 570l83 120h-21l-80 -120h18z" />
    <glyph glyph-name="Scedilla" unicode="&#x15e;" horiz-adv-x="550" 
d="M473 74.5q-27 -39.5 -74.5 -61.5t-106.5 -23v-69q33 3 60.5 -13t27.5 -48q0 -31 -29.5 -48.5t-86.5 -17.5q-30 0 -59 4v16q29 -4 59 -4q98 0 98 50q0 21 -17.5 33.5t-52.5 12.5q-12 0 -18 -1v85q-101 4 -162.5 53t-61.5 132h20q0 -75 57.5 -121t160.5 -46q58 0 102 20.5
t67 56.5t23 80q0 52 -26.5 85t-62.5 51t-107 44l-22 8q-65 24 -103.5 43.5t-64.5 54.5t-26 89q0 48 26 86.5t73 61t106 22.5q55 0 102 -23t75 -63t28 -89h-20q0 42 -23.5 78t-66 57.5t-95.5 21.5q-58 0 -99.5 -21t-63.5 -56t-22 -75q0 -48 24.5 -79.5t61 -50t97.5 -40.5
l21 -8q75 -29 113 -48.5t66.5 -55.5t28.5 -93q0 -51 -27 -90.5z" />
    <glyph glyph-name="scedilla" unicode="&#x15f;" horiz-adv-x="470" 
d="M371.5 29.5q-43.5 -35.5 -118.5 -39.5v-69q33 3 60.5 -13t27.5 -48q0 -31 -29.5 -48.5t-86.5 -17.5q-30 0 -59 4v16q29 -4 59 -4q98 0 98 50q0 21 -17.5 33.5t-52.5 12.5q-12 0 -18 -1v85q-54 0 -95 17.5t-63 48.5t-22 69h20q0 -53 44 -85t116 -32t116 30t44 82
q0 41 -21.5 64.5t-53 35t-85.5 24.5q-56 13 -89.5 25.5t-57 39t-23.5 71.5q0 58 46 94t124 36q75 0 120.5 -38t45.5 -97h-20q0 53 -40.5 85t-105.5 32q-68 0 -109 -29.5t-41 -82.5q0 -39 21 -62t52.5 -34t83.5 -23q58 -14 92 -26.5t57.5 -40t23.5 -74.5q0 -55 -43.5 -90.5z
" />
    <glyph glyph-name="Scaron" unicode="&#x160;" horiz-adv-x="550" 
d="M115.5 39.5q-65.5 49.5 -65.5 135.5h20q0 -75 57.5 -121t160.5 -46q58 0 102 20.5t67 56.5t23 80q0 52 -26.5 85t-62.5 51t-107 44l-22 8q-65 24 -103.5 43.5t-64.5 54.5t-26 89q0 48 26 86.5t73 61t106 22.5q55 0 102 -23t75 -63t28 -89h-20q0 42 -23.5 78t-66 57.5
t-95.5 21.5q-58 0 -99.5 -21t-63.5 -56t-22 -75q0 -48 24.5 -79.5t61 -50t97.5 -40.5l21 -8q75 -29 113 -48.5t66.5 -55.5t28.5 -93q0 -52 -27.5 -91.5t-76 -61.5t-108.5 -22q-107 0 -172.5 49.5zM392 890l-112 -120h-22l-112 120h22l101 -108l101 108h22z" />
    <glyph glyph-name="scaron" unicode="&#x161;" horiz-adv-x="470" 
d="M106 318q21 -23 52.5 -34t83.5 -23q58 -14 92 -26.5t57.5 -40t23.5 -74.5q0 -58 -49 -94t-131 -36q-54 0 -95 17.5t-63 48.5t-22 69h20q0 -53 44 -85t116 -32t116 30t44 82q0 41 -21.5 64.5t-53 35t-85.5 24.5q-56 13 -89.5 25.5t-57 39t-23.5 71.5q0 58 46 94t124 36
q75 0 120.5 -38t45.5 -97h-20q0 53 -40.5 85t-105.5 32q-68 0 -109 -29.5t-41 -82.5q0 -39 21 -62zM351 690l-112 -120h-22l-112 120h22l101 -108l101 108h22z" />
    <glyph glyph-name="uni0162" unicode="&#x162;" 
d="M470 682h-210v-682h-20v682h-210v18h230h210v-18zM262 -70h-20l-10 -170h16z" />
    <glyph glyph-name="uni0163" unicode="&#x163;" horiz-adv-x="320" 
d="M290 482h-120v-482h-20v482h-120v18h120v160h20v-160h120v-18zM168 -70h-20l-10 -170h16z" />
    <glyph glyph-name="Tcaron" unicode="&#x164;" 
d="M470 682h-210v-682h-20v682h-210v18h230h210v-18zM371 890l-112 -120h-22l-112 120h22l101 -108l101 108h22z" />
    <glyph glyph-name="tcaron" unicode="&#x165;" horiz-adv-x="320" 
d="M252 570h-16l10 150h20zM290 482h-120v-482h-20v482h-120v18h120v160h20v-160h120v-18z" />
    <glyph glyph-name="Tbar" unicode="&#x166;" 
d="M260 682v-323h170v-18h-170v-341h-20v341h-170v18h170v323h-210v18h230h210v-18h-210z" />
    <glyph glyph-name="tbar" unicode="&#x167;" horiz-adv-x="320" 
d="M170 482v-173h90v-17h-90v-292h-20v292h-90v17h90v173h-120v18h120v160h20v-160h120v-18h-120z" />
    <glyph glyph-name="Umacron" unicode="&#x16a;" horiz-adv-x="630" 
d="M152.5 43.5q-62.5 53.5 -62.5 146.5v510h20v-510q0 -82 54.5 -132t150.5 -50t150.5 50t54.5 132v510h20v-510q0 -93 -62.5 -146.5t-162.5 -53.5t-162.5 53.5zM190 817h240v-16h-240v16z" />
    <glyph glyph-name="umacron" unicode="&#x16b;" horiz-adv-x="535" 
d="M445 500v-500h-20v124q-20 -67 -72 -100.5t-113 -33.5q-73 0 -119 45t-46 128v337h20v-337q0 -72 39.5 -113.5t105.5 -41.5q50 0 92 24.5t67.5 72t25.5 113.5v282h20zM137 617h240v-16h-240v16z" />
    <glyph glyph-name="Uring" unicode="&#x16e;" horiz-adv-x="630" 
d="M152.5 43.5q-62.5 53.5 -62.5 146.5v510h20v-510q0 -82 54.5 -132t150.5 -50t150.5 50t54.5 132v510h20v-510q0 -93 -62.5 -146.5t-162.5 -53.5t-162.5 53.5zM241.5 785.5q-26.5 25.5 -26.5 64.5t26.5 64.5t68.5 25.5q43 0 69 -25.5t26 -64.5t-26 -64.5t-69 -25.5
q-42 0 -68.5 25.5zM365.5 796.5q21.5 20.5 21.5 53.5t-21.5 53.5t-55.5 20.5t-55.5 -20.5t-21.5 -53.5t21.5 -53.5t55.5 -20.5t55.5 20.5z" />
    <glyph glyph-name="uring" unicode="&#x16f;" horiz-adv-x="535" 
d="M445 500v-500h-20v124q-20 -67 -72 -100.5t-113 -33.5q-73 0 -119 45t-46 128v337h20v-337q0 -72 39.5 -113.5t105.5 -41.5q50 0 92 24.5t67.5 72t25.5 113.5v282h20zM188.5 585.5q-26.5 25.5 -26.5 64.5t26.5 64.5t68.5 25.5q43 0 69 -25.5t26 -64.5t-26 -64.5
t-69 -25.5q-42 0 -68.5 25.5zM312.5 596.5q21.5 20.5 21.5 53.5t-21.5 53.5t-55.5 20.5t-55.5 -20.5t-21.5 -53.5t21.5 -53.5t55.5 -20.5t55.5 20.5z" />
    <glyph glyph-name="Uhungarumlaut" unicode="&#x170;" horiz-adv-x="630" 
d="M152.5 43.5q-62.5 53.5 -62.5 146.5v510h20v-510q0 -82 54.5 -132t150.5 -50t150.5 50t54.5 132v510h20v-510q0 -93 -62.5 -146.5t-162.5 -53.5t-162.5 53.5zM227 770l74 130h-21l-70 -130h17zM366 770l84 130h-21l-80 -130h17z" />
    <glyph glyph-name="uhungarumlaut" unicode="&#x171;" horiz-adv-x="535" 
d="M445 500v-500h-20v124q-20 -67 -72 -100.5t-113 -33.5q-73 0 -119 45t-46 128v337h20v-337q0 -72 39.5 -113.5t105.5 -41.5q50 0 92 24.5t67.5 72t25.5 113.5v282h20zM174 570l74 130h-21l-70 -130h17zM313 570l84 130h-21l-80 -130h17z" />
    <glyph glyph-name="Uogonek" unicode="&#x172;" horiz-adv-x="630" 
d="M540 700v-510q0 -48 -17.5 -86t-49.5 -64q-59 -51 -88.5 -81t-42 -53.5t-12.5 -49.5q0 -23 15 -36.5t39 -13.5q26 0 45 8v-16q-17 -8 -45 -8q-33 0 -52.5 17.5t-19.5 48.5q0 66 98 149q-42 -15 -95 -15q-100 0 -162.5 53.5t-62.5 146.5v510h20v-510q0 -82 54.5 -132
t150.5 -50t150.5 50t54.5 132v510h20z" />
    <glyph glyph-name="uogonek" unicode="&#x173;" horiz-adv-x="535" 
d="M372 -76q-24 -34 -24 -68q0 -23 14.5 -36.5t37.5 -13.5q26 0 45 8v-16q-17 -8 -45 -8q-32 0 -51 17.5t-19 48.5q0 32 22.5 68.5t72.5 80.5v119q-20 -67 -72 -100.5t-113 -33.5q-73 0 -119 45t-46 128v337h20v-337q0 -72 39.5 -113.5t105.5 -41.5q50 0 92 24.5t67.5 72
t25.5 113.5v282h20v-500q-49 -42 -73 -76z" />
    <glyph glyph-name="Wcircumflex" unicode="&#x174;" horiz-adv-x="860" 
d="M830 700l-229 -700h-26l-145 443l-145 -443h-26l-229 700h20l222 -678l148 451l-74 227h20l222 -678l222 678h20zM530 770l-101 108l-101 -108h-22l112 120h22l112 -120h-22z" />
    <glyph glyph-name="wcircumflex" unicode="&#x175;" horiz-adv-x="670" 
d="M650 500l-184 -500h-21h-1l-109 296l-109 -296h-21h-1l-184 500h21l174 -473l110 297l-65 176h21l174 -473l174 473h21zM439 570l-101 108l-101 -108h-22l112 120h22l112 -120h-22z" />
    <glyph glyph-name="Ycircumflex" unicode="&#x176;" horiz-adv-x="560" 
d="M290 329v-329h-20v329l-250 371h22l238 -354l238 354h22zM379 770l-101 108l-101 -108h-22l112 120h22l112 -120h-22z" />
    <glyph glyph-name="ycircumflex" unicode="&#x177;" horiz-adv-x="470" 
d="M450 500l-272 -700h-21l78 200l-215 500h21l204 -474l184 474h21zM334 570l-101 108l-101 -108h-22l112 120h22l112 -120h-22z" />
    <glyph glyph-name="Ydieresis" unicode="&#x178;" horiz-adv-x="560" 
d="M290 329v-329h-20v329l-250 371h22l238 -354l238 354h22zM180 840h20v-60h-20v60zM360 840h20v-60h-20v60z" />
    <glyph glyph-name="Zacute" unicode="&#x179;" horiz-adv-x="510" 
d="M470 18v-18h-420v18l389 664h-379v18h400v-18l-388 -664h398zM253 770l83 120h-21l-80 -120h18z" />
    <glyph glyph-name="zacute" unicode="&#x17a;" horiz-adv-x="470" 
d="M420 18v-18h-360v11l323 471h-313v18h340v-11l-323 -471h333zM233 570l83 120h-21l-80 -120h18z" />
    <glyph glyph-name="Zdotaccent" unicode="&#x17b;" horiz-adv-x="510" 
d="M470 18v-18h-420v18l389 664h-379v18h400v-18l-388 -664h398zM250 850h20v-70h-20v70z" />
    <glyph glyph-name="zdotaccent" unicode="&#x17c;" horiz-adv-x="470" 
d="M420 18v-18h-360v11l323 471h-313v18h340v-11l-323 -471h333zM230 650h20v-70h-20v70z" />
    <glyph glyph-name="Zcaron" unicode="&#x17d;" horiz-adv-x="510" 
d="M470 18v-18h-420v18l389 664h-379v18h400v-18l-388 -664h398zM381 890l-112 -120h-22l-112 120h22l101 -108l101 108h22z" />
    <glyph glyph-name="zcaron" unicode="&#x17e;" horiz-adv-x="470" 
d="M420 18v-18h-360v11l323 471h-313v18h340v-11l-323 -471h333zM361 690l-112 -120h-22l-112 120h22l101 -108l101 108h22z" />
    <glyph glyph-name="florin" unicode="&#x192;" horiz-adv-x="431" 
d="M307.5 678q33.5 32 78.5 32q21 0 45 -8v-20q-21 10 -45 10q-38 0 -65.5 -28t-36.5 -78l-39 -226h131v-19h-134l-75 -435q-10 -56 -43.5 -88t-78.5 -32q-21 0 -45 8v20q21 -10 45 -10q38 0 65.5 28t36.5 78l74 431h-125v19h128l40 230q10 56 43.5 88z" />
    <glyph glyph-name="Scommaaccent" unicode="&#x218;" horiz-adv-x="550" 
d="M115.5 39.5q-65.5 49.5 -65.5 135.5h20q0 -75 57.5 -121t160.5 -46q58 0 102 20.5t67 56.5t23 80q0 52 -26.5 85t-62.5 51t-107 44l-22 8q-65 24 -103.5 43.5t-64.5 54.5t-26 89q0 48 26 86.5t73 61t106 22.5q55 0 102 -23t75 -63t28 -89h-20q0 42 -23.5 78t-66 57.5
t-95.5 21.5q-58 0 -99.5 -21t-63.5 -56t-22 -75q0 -48 24.5 -79.5t61 -50t97.5 -40.5l21 -8q75 -29 113 -48.5t66.5 -55.5t28.5 -93q0 -52 -27.5 -91.5t-76 -61.5t-108.5 -22q-107 0 -172.5 49.5zM291 -70h-20l-10 -170h16z" />
    <glyph glyph-name="scommaaccent" unicode="&#x219;" horiz-adv-x="470" 
d="M106 318q21 -23 52.5 -34t83.5 -23q58 -14 92 -26.5t57.5 -40t23.5 -74.5q0 -58 -49 -94t-131 -36q-54 0 -95 17.5t-63 48.5t-22 69h20q0 -53 44 -85t116 -32t116 30t44 82q0 41 -21.5 64.5t-53 35t-85.5 24.5q-56 13 -89.5 25.5t-57 39t-23.5 71.5q0 58 46 94t124 36
q75 0 120.5 -38t45.5 -97h-20q0 53 -40.5 85t-105.5 32q-68 0 -109 -29.5t-41 -82.5q0 -39 21 -62zM252 -70h-20l-10 -170h16z" />
    <glyph glyph-name="uni021A" unicode="&#x21a;" 
d="M470 682h-210v-682h-20v682h-210v18h230h210v-18zM262 -70h-20l-10 -170h16z" />
    <glyph glyph-name="uni021B" unicode="&#x21b;" horiz-adv-x="320" 
d="M290 482h-120v-482h-20v482h-120v18h120v160h20v-160h120v-18zM168 -70h-20l-10 -170h16z" />
    <glyph glyph-name="circumflex" unicode="&#x2c6;" horiz-adv-x="286" 
d="M244 570l-101 108l-101 -108h-22l112 120h22l112 -120h-22z" />
    <glyph glyph-name="caron" unicode="&#x2c7;" horiz-adv-x="286" 
d="M266 690l-112 -120h-22l-112 120h22l101 -108l101 108h22z" />
    <glyph glyph-name="breve" unicode="&#x2d8;" horiz-adv-x="280" 
d="M53 601q-33 29 -33 76h18q0 -40 28 -64.5t74 -24.5t74 24.5t28 64.5h18q0 -47 -33 -76t-87 -29t-87 29z" />
    <glyph glyph-name="dotaccent" unicode="&#x2d9;" horiz-adv-x="60" 
d="M20 650h20v-70h-20v70z" />
    <glyph glyph-name="ring" unicode="&#x2da;" horiz-adv-x="230" 
d="M46.5 585.5q-26.5 25.5 -26.5 64.5t26.5 64.5t68.5 25.5q43 0 69 -25.5t26 -64.5t-26 -64.5t-69 -25.5q-42 0 -68.5 25.5zM170.5 596.5q21.5 20.5 21.5 53.5t-21.5 53.5t-55.5 20.5t-55.5 -20.5t-21.5 -53.5t21.5 -53.5t55.5 -20.5t55.5 20.5z" />
    <glyph glyph-name="ogonek" unicode="&#x2db;" horiz-adv-x="157" 
d="M39.5 -192.5q-19.5 17.5 -19.5 48.5q0 68 92 144h23q-49 -42 -73 -76t-24 -68q0 -23 15 -36.5t39 -13.5q26 0 45 8v-16q-17 -8 -45 -8q-33 0 -52.5 17.5z" />
    <glyph glyph-name="tilde" unicode="&#x2dc;" horiz-adv-x="296" 
d="M36 655.5q16 24.5 42 24.5q36 0 75 -42q35 -36 62 -36q20 0 32 19t12 53h17q0 -41 -16.5 -65t-43.5 -24q-35 0 -73 41q-34 37 -63 37q-20 0 -31.5 -19.5t-11.5 -53.5h-17q0 41 16 65.5z" />
    <glyph glyph-name="hungarumlaut" unicode="&#x2dd;" horiz-adv-x="280" 
d="M37 570l74 130h-21l-70 -130h17zM176 570l84 130h-21l-80 -130h17z" />
    <glyph glyph-name="gravecomb" unicode="&#x300;" horiz-adv-x="0" 
d="M-100 690h-21l84 -120h17z" />
    <glyph glyph-name="acutecomb" unicode="&#x301;" horiz-adv-x="0" 
d="M-103 570l83 120h-21l-80 -120h18z" />
    <glyph glyph-name="uni0302" unicode="&#x302;" horiz-adv-x="0" 
d="M-42 570l-101 108l-101 -108h-22l112 120h22l112 -120h-22z" />
    <glyph glyph-name="tildecomb" unicode="&#x303;" horiz-adv-x="0" 
d="M-260 655.5q16 24.5 42 24.5q36 0 75 -42q35 -36 62 -36q20 0 32 19t12 53h17q0 -41 -16.5 -65t-43.5 -24q-35 0 -73 41q-34 37 -63 37q-20 0 -31.5 -19.5t-11.5 -53.5h-17q0 41 16 65.5z" />
    <glyph glyph-name="uni0304" unicode="&#x304;" horiz-adv-x="0" 
d="M-260 617h240v-16h-240v16z" />
    <glyph glyph-name="uni0306" unicode="&#x306;" horiz-adv-x="0" 
d="M-247 601q-33 29 -33 76h18q0 -40 28 -64.5t74 -24.5t74 24.5t28 64.5h18q0 -47 -33 -76t-87 -29t-87 29z" />
    <glyph glyph-name="uni0307" unicode="&#x307;" horiz-adv-x="0" 
d="M-40 650h20v-70h-20v70z" />
    <glyph glyph-name="uni0308" unicode="&#x308;" horiz-adv-x="0" 
d="M-220 640h20v-60h-20v60zM-40 640h20v-60h-20v60z" />
    <glyph glyph-name="uni030A" unicode="&#x30a;" horiz-adv-x="0" 
d="M-183.5 585.5q-26.5 25.5 -26.5 64.5t26.5 64.5t68.5 25.5q43 0 69 -25.5t26 -64.5t-26 -64.5t-69 -25.5q-42 0 -68.5 25.5zM-59.5 596.5q21.5 20.5 21.5 53.5t-21.5 53.5t-55.5 20.5t-55.5 -20.5t-21.5 -53.5t21.5 -53.5t55.5 -20.5t55.5 20.5z" />
    <glyph glyph-name="uni030B" unicode="&#x30b;" horiz-adv-x="0" 
d="M-233 570l74 130h-21l-70 -130h17zM-94 570l84 130h-21l-80 -130h17z" />
    <glyph glyph-name="uni030C" unicode="&#x30c;" horiz-adv-x="0" 
d="M-20 690l-112 -120h-22l-112 120h22l101 -108l101 108h22z" />
    <glyph glyph-name="uni0312" unicode="&#x312;" horiz-adv-x="0" 
d="M-50 790h20l10 170h-16z" />
    <glyph glyph-name="uni0326" unicode="&#x326;" horiz-adv-x="0" 
d="M-20 -70h-20l-10 -170h16z" />
    <glyph glyph-name="uni0327" unicode="&#x327;" horiz-adv-x="0" 
d="M-47.5 -92q27.5 -16 27.5 -48q0 -31 -29.5 -48.5t-86.5 -17.5q-30 0 -59 4v16q29 -4 59 -4q98 0 98 50q0 21 -17.5 33.5t-52.5 12.5q-12 0 -18 -1v95h18v-79q33 3 60.5 -13z" />
    <glyph glyph-name="uni0328" unicode="&#x328;" horiz-adv-x="0" 
d="M-117.5 -192.5q-19.5 17.5 -19.5 48.5q0 68 92 144h23q-49 -42 -73 -76t-24 -68q0 -23 15 -36.5t39 -13.5q26 0 45 8v-16q-17 -8 -45 -8q-33 0 -52.5 17.5z" />
    <glyph glyph-name="uni0394" unicode="&#x394;" horiz-adv-x="618" 
d="M598 0h-21h-543h-14l277 700h24zM570 18l-261 661l-261 -661h522z" />
    <glyph glyph-name="uni03A9" unicode="&#x3a9;" horiz-adv-x="840" 
d="M751 208.5q-29 -66.5 -81 -116t-118 -74.5h218v-18h-268v18q74 18 132.5 66.5t92 117.5t33.5 148q0 93 -45.5 171.5t-124 124.5t-170.5 46t-170.5 -46t-124 -124.5t-45.5 -171.5q0 -79 33.5 -148t92 -117.5t132.5 -66.5v-18h-268v18h218q-66 25 -118 74.5t-81 116
t-29 141.5q0 98 48.5 180.5t131 131t180.5 48.5t180.5 -48.5t131 -131t48.5 -180.5q0 -75 -29 -141.5z" />
    <glyph glyph-name="pi" unicode="&#x3c0;" horiz-adv-x="620" 
d="M580 482h-83v-482h-20v482h-330v-482h-20v482h-87v18h107h350h83v-18z" />
    <glyph glyph-name="uni0401" unicode="&#x401;" horiz-adv-x="520" 
d="M470 18v-18h-360h-10v700h20h345v-18h-345v-320h320v-18h-320v-326h350zM177 840h20v-60h-20v60zM357 840h20v-60h-20v60z" />
    <glyph glyph-name="uni0402" unicode="&#x402;" horiz-adv-x="670" 
d="M512.5 450.5q39.5 -19.5 63.5 -59t24 -94.5v-182q0 -56 -29.5 -88.5t-86.5 -32.5q-15 0 -23 1v18q8 -1 22 -1q49 0 73 27t24 76v182q0 71 -44 113t-111 42q-49 0 -90.5 -13.5t-84.5 -39.5v-399h-20v682h-200v18h220h250v-18h-250v-263q44 26 83.5 38.5t91.5 12.5
q48 0 87.5 -19.5z" />
    <glyph glyph-name="uni0403" unicode="&#x403;" 
d="M470 682h-350v-682h-20v700h370v-18zM269 769l83 120h-21l-80 -120h18z" />
    <glyph glyph-name="uni0404" unicode="&#x404;" horiz-adv-x="788" 
d="M738 200q-36 -95 -122 -152.5t-201 -57.5q-102 0 -183 48t-126.5 130.5t-45.5 181.5t45.5 181.5t126.5 130.5t183 48q114 0 200.5 -57.5t121.5 -152.5h-21q-34 87 -114.5 139.5t-186.5 52.5q-95 0 -171 -44.5t-119 -120.5t-45 -168h418v-18h-418q2 -92 45 -168
t119 -120.5t171 -44.5q107 0 187 52.5t114 139.5h22z" />
    <glyph glyph-name="uni0405" unicode="&#x405;" horiz-adv-x="550" 
d="M115.5 39.5q-65.5 49.5 -65.5 135.5h20q0 -75 57.5 -121t160.5 -46q58 0 102 20.5t67 56.5t23 80q0 52 -26.5 85t-62.5 51t-107 44l-22 8q-65 24 -103.5 43.5t-64.5 54.5t-26 89q0 48 26 86.5t73 61t106 22.5q55 0 102 -23t75 -63t28 -89h-20q0 42 -23.5 78t-66 57.5
t-95.5 21.5q-58 0 -99.5 -21t-63.5 -56t-22 -75q0 -48 24.5 -79.5t61 -50t97.5 -40.5l21 -8q75 -29 113 -48.5t66.5 -55.5t28.5 -93q0 -52 -27.5 -91.5t-76 -61.5t-108.5 -22q-107 0 -172.5 49.5z" />
    <glyph glyph-name="uni0406" unicode="&#x406;" horiz-adv-x="220" 
d="M120 700v-700h-20v700h20z" />
    <glyph glyph-name="uni0407" unicode="&#x407;" horiz-adv-x="220" 
d="M120 700v-700h-20v700h20zM10 840h20v-60h-20v60zM190 840h20v-60h-20v60z" />
    <glyph glyph-name="uni0408" unicode="&#x408;" horiz-adv-x="540" 
d="M140.5 13.5q-46.5 23.5 -73.5 66.5t-27 100v5h20v-5q0 -49 22.5 -88t64.5 -61.5t98 -22.5t98 22.5t64.5 61.5t22.5 88v520h20v-520q0 -57 -27 -100t-73.5 -66.5t-104.5 -23.5t-104.5 23.5z" />
    <glyph glyph-name="uni0409" unicode="&#x409;" horiz-adv-x="955" 
d="M805.5 355.5q45.5 -24.5 72.5 -68t27 -97.5t-27 -97.5t-72.5 -68t-100.5 -24.5h-190h-10v682h-300v-412q0 -138 -44 -208.5t-136 -63.5v18q74 -6 117 53t43 201v430h340v-320h180q55 0 100.5 -24.5zM795.5 40q41.5 22 65.5 61.5t24 88.5t-24 88.5t-65.5 61.5t-90.5 22
h-180v-344h180q49 0 90.5 22z" />
    <glyph glyph-name="uni040A" unicode="&#x40a;" horiz-adv-x="950" 
d="M800.5 355.5q45.5 -24.5 72.5 -68t27 -97.5t-27 -97.5t-72.5 -68t-100.5 -24.5h-190h-10v362h-380v-362h-20v700h20v-320h380v320h20v-320h180q55 0 100.5 -24.5zM790.5 40q41.5 22 65.5 61.5t24 88.5t-24 88.5t-65.5 61.5t-90.5 22h-180v-344h180q49 0 90.5 22z" />
    <glyph glyph-name="uni040B" unicode="&#x40b;" horiz-adv-x="680" 
d="M512.5 450.5q39.5 -19.5 63.5 -59t24 -94.5v-297h-20v297q0 71 -44 113t-111 42q-49 0 -90.5 -13.5t-84.5 -39.5v-399h-20v682h-200v18h220h250v-18h-250v-263q44 26 83.5 38.5t91.5 12.5q48 0 87.5 -19.5z" />
    <glyph glyph-name="uni040C" unicode="&#x40c;" horiz-adv-x="555" 
d="M518 0l-398 355v-355h-20v700h20v-335l388 335h27l-393 -340l403 -360h-27zM279 769l83 120h-21l-80 -120h18z" />
    <glyph glyph-name="uni040E" unicode="&#x40e;" horiz-adv-x="559" 
d="M539 700l-233 -547q-66 -154 -178 -154l-15 1v18q56 -5 99 30t76 112l8 19l-256 521h20l246 -498l213 498h20zM166 816h240v-16h-240v16z" />
    <glyph glyph-name="uni040F" unicode="&#x40f;" horiz-adv-x="640" 
d="M540 700v-700h-20h-190v-144h-20v144h-195h-15v700h20v-682h400v682h20z" />
    <glyph glyph-name="uni0410" unicode="&#x410;" horiz-adv-x="628" 
d="M507 191h-386l-75 -191h-21l277 700h24l277 -700h-21zM500 209l-186 470l-186 -470h372z" />
    <glyph glyph-name="uni0411" unicode="&#x411;" horiz-adv-x="585" 
d="M440 373q46 -27 73 -73t27 -100t-27 -100t-73 -73t-100 -27h-230h-10v700h20h370v-18h-370v-282h220q54 0 100 -27zM430 42.5q41 24.5 65.5 66.5t24.5 91t-24.5 91t-65.5 66.5t-90 24.5h-220v-364h220q49 0 90 24.5z" />
    <glyph glyph-name="uni0412" unicode="&#x412;" horiz-adv-x="680" 
d="M596.5 370q43.5 -61 43.5 -140q0 -62 -29 -115t-79.5 -84t-112.5 -31h-309h-10v700h20h240q46 0 82.5 -20t57 -54.5t20.5 -75.5q0 -57 -37 -99q70 -20 113.5 -81zM120 682v-222h300q23 0 42 -4q18 18 28 42.5t10 51.5q0 36 -18 66.5t-50 48t-72 17.5h-240zM522 46.5
q46 28.5 72 77t26 106.5t-26 106.5t-71.5 77t-102.5 28.5h-300v-424h299q57 0 103 28.5z" />
    <glyph glyph-name="uni0413" unicode="&#x413;" 
d="M470 682h-350v-682h-20v700h370v-18z" />
    <glyph glyph-name="uni0414" unicode="&#x414;" horiz-adv-x="650" 
d="M605 18v-18v-144h-20v144h-540v-144h-20v160v2h53q33 33 55 96.5t22 157.5v428h380v-682h70zM157.5 127q-17.5 -66 -53.5 -109h411v664h-340v-410q0 -79 -17.5 -145z" />
    <glyph glyph-name="uni0415" unicode="&#x415;" horiz-adv-x="520" 
d="M470 18v-18h-360h-10v700h20h345v-18h-345v-320h320v-18h-320v-326h350z" />
    <glyph glyph-name="uni0416" unicode="&#x416;" horiz-adv-x="808" 
d="M763 0l-349 355v-355h-20v355l-349 -355h-25l353 360l-343 340h25l339 -335v335h20v-335l339 335h25l-343 -340l353 -360h-25z" />
    <glyph glyph-name="uni0417" unicode="&#x417;" horiz-adv-x="530" 
d="M469.5 326.5q30.5 -51.5 30.5 -111.5q0 -63 -28.5 -114.5t-81 -81t-121.5 -29.5q-72 0 -126 28.5t-83.5 78.5t-29.5 113h20q0 -59 27.5 -105t77.5 -71.5t114 -25.5q62 0 110 26.5t74.5 73.5t26.5 107q0 56 -27.5 102.5t-75.5 73.5t-107 27h-30v18h30q52 0 97 -20
q26 19 42 52.5t16 70.5q0 69 -44.5 111t-117.5 42q-75 0 -122.5 -42.5t-47.5 -110.5h-20q0 47 23.5 86t66.5 62t100 23q56 0 97.5 -23t63 -61.5t21.5 -86.5q0 -37 -15.5 -73t-43.5 -59q53 -29 83.5 -80.5z" />
    <glyph glyph-name="uni0418" unicode="&#x418;" horiz-adv-x="630" 
d="M510 662l-390 -662h-20v700h20v-662l390 662h20v-700h-20v662z" />
    <glyph glyph-name="uni0419" unicode="&#x419;" horiz-adv-x="630" 
d="M510 662l-390 -662h-20v700h20v-662l390 662h20v-700h-20v662zM205 817h240v-16h-240v16z" />
    <glyph glyph-name="uni041A" unicode="&#x41a;" horiz-adv-x="555" 
d="M518 0l-398 355v-355h-20v700h20v-335l388 335h27l-393 -340l403 -360h-27z" />
    <glyph glyph-name="uni041B" unicode="&#x41b;" horiz-adv-x="645" 
d="M25 16q74 -6 117 53t43 201v430h360v-700h-20v682h-320v-412q0 -138 -44 -208.5t-136 -63.5v18z" />
    <glyph glyph-name="uni041C" unicode="&#x41c;" horiz-adv-x="820" 
d="M720 0h-20v669l-281 -538h-18l-281 538v-669h-20v700h20h6l284 -544l284 544h26v-700z" />
    <glyph glyph-name="uni041D" unicode="&#x41d;" horiz-adv-x="640" 
d="M540 700v-700h-20v351h-400v-351h-20v700h20v-331h400v331h20z" />
    <glyph glyph-name="uni041E" unicode="&#x41e;" horiz-adv-x="840" 
d="M239.5 38.5q-82.5 48.5 -131 131t-48.5 180.5t48.5 180.5t131 131t180.5 48.5t180.5 -48.5t131 -131t48.5 -180.5t-48.5 -180.5t-131 -131t-180.5 -48.5t-180.5 48.5zM590.5 54q78.5 46 124 124.5t45.5 171.5t-45.5 171.5t-124 124.5t-170.5 46t-170.5 -46t-124 -124.5
t-45.5 -171.5t45.5 -171.5t124 -124.5t170.5 -46t170.5 46z" />
    <glyph glyph-name="uni041F" unicode="&#x41f;" horiz-adv-x="640" 
d="M540 0h-20v682h-400v-682h-20v700h20h420v-700z" />
    <glyph glyph-name="uni0420" unicode="&#x420;" horiz-adv-x="570" 
d="M420 673q46 -27 73 -73t27 -100t-27 -100t-73 -73t-100 -27h-200v-300h-20v700h20h200q54 0 100 -27zM410 342.5q41 24.5 65.5 66.5t24.5 91t-24.5 91t-65.5 66.5t-90 24.5h-200v-364h200q49 0 90 24.5z" />
    <glyph glyph-name="uni0421" unicode="&#x421;" horiz-adv-x="778" 
d="M235.5 38q-82.5 48 -129 130.5t-46.5 181.5t46.5 181.5t129 130.5t184.5 48q71 0 135.5 -26.5t111.5 -74t70 -109.5h-21q-34 86 -115 139t-181 53q-97 0 -174.5 -46t-121.5 -124t-44 -172t44 -172.5t121.5 -124t174.5 -45.5q100 0 181 53t115 139h22q-36 -94 -122.5 -152
t-195.5 -58q-102 0 -184.5 48z" />
    <glyph glyph-name="uni0422" unicode="&#x422;" 
d="M470 682h-210v-682h-20v682h-210v18h230h210v-18z" />
    <glyph glyph-name="uni0423" unicode="&#x423;" horiz-adv-x="559" 
d="M539 700l-233 -547q-66 -154 -178 -154l-15 1v18q56 -5 99 30t76 112l8 19l-256 521h20l246 -498l213 498h20z" />
    <glyph glyph-name="uni0424" unicode="&#x424;" horiz-adv-x="804" 
d="M718.5 203.5q-45.5 -60.5 -125.5 -92t-181 -33.5v-78h-20v78q-101 2 -181 33.5t-125.5 92t-45.5 146.5t45.5 146.5t125.5 92t181 33.5v78h20v-78q101 -2 181 -33.5t125.5 -92t45.5 -146.5t-45.5 -146.5zM100.5 216.5q40.5 -56.5 115.5 -88t176 -32.5v508
q-101 -1 -176 -32.5t-115.5 -88t-40.5 -133.5t40.5 -133.5zM588 128.5q75 31.5 115.5 88t40.5 133.5t-40.5 133.5t-115.5 88t-176 32.5v-508q101 1 176 32.5z" />
    <glyph glyph-name="uni0425" unicode="&#x425;" horiz-adv-x="560" 
d="M508 0l-228 340l-228 -340h-22l239 357l-230 343h22l219 -327l219 327h22l-230 -343l239 -357h-22z" />
    <glyph glyph-name="uni0426" unicode="&#x426;" horiz-adv-x="650" 
d="M610 18v-162h-20v144h-490v700h20v-682h400v682h20v-682h70z" />
    <glyph glyph-name="uni0427" unicode="&#x427;" horiz-adv-x="620" 
d="M520 700v-700h-20v317q-53 -25 -100 -36t-100 -11q-71 0 -120.5 25t-74.5 68t-25 97v240h20v-240q0 -77 53 -124.5t147 -47.5q51 0 98 11.5t102 37.5v363h20z" />
    <glyph glyph-name="uni0428" unicode="&#x428;" horiz-adv-x="930" 
d="M830 700v-700h-730v700h20v-682h335v682h20v-682h335v682h20z" />
    <glyph glyph-name="uni0429" unicode="&#x429;" horiz-adv-x="940" 
d="M900 18v-162h-20v144h-780v700h20v-682h335v682h20v-682h335v682h20v-682h70z" />
    <glyph glyph-name="uni042A" unicode="&#x42a;" horiz-adv-x="670" 
d="M200 682h-200v18h220v-300h200q54 0 100 -27t73 -73t27 -100t-27 -100t-73 -73t-100 -27h-220v682zM420 18q49 0 90 24.5t65.5 66.5t24.5 91t-24.5 91t-65.5 66.5t-90 24.5h-200v-364h200z" />
    <glyph glyph-name="uni042B" unicode="&#x42b;" horiz-adv-x="730" 
d="M100 700h20v-300h200q54 0 100 -27t73 -73t27 -100t-27 -100t-73 -73t-100 -27h-220v700zM610 700h20v-700h-20v700zM320 18q49 0 90 24.5t65.5 66.5t24.5 91t-24.5 91t-65.5 66.5t-90 24.5h-200v-364h200z" />
    <glyph glyph-name="uni042C" unicode="&#x42c;" horiz-adv-x="570" 
d="M420 373q46 -27 73 -73t27 -100t-27 -100t-73 -73t-100 -27h-210h-10v700h20v-300h200q54 0 100 -27zM410 42.5q41 24.5 65.5 66.5t24.5 91t-24.5 91t-65.5 66.5t-90 24.5h-200v-364h200q49 0 90 24.5z" />
    <glyph glyph-name="uni042D" unicode="&#x42d;" horiz-adv-x="788" 
d="M556 662q81 -48 126.5 -130.5t45.5 -181.5t-45.5 -181.5t-126.5 -130.5t-183 -48q-115 0 -201 57.5t-122 152.5h22q34 -87 114 -139.5t187 -52.5q95 0 171 44.5t119 120.5t45 168h-418v18h418q-2 92 -45 168t-119 120.5t-171 44.5q-106 0 -186.5 -52.5t-114.5 -139.5h-21
q35 95 121.5 152.5t200.5 57.5q102 0 183 -48z" />
    <glyph glyph-name="uni042E" unicode="&#x42e;" horiz-adv-x="1060" 
d="M820.5 661.5q82.5 -48.5 131 -131t48.5 -180.5t-48.5 -180.5t-131 -131t-180.5 -48.5t-180.5 48.5t-131 131t-48.5 180.5v1h-160v-351h-20v700h20v-331h160q5 94 54.5 172t130 123.5t175.5 45.5q98 0 180.5 -48.5zM810.5 54q78.5 46 124 124.5t45.5 171.5t-45.5 171.5
t-124 124.5t-170.5 46t-170.5 -46t-124 -124.5t-45.5 -171.5t45.5 -171.5t124 -124.5t170.5 -46t170.5 46z" />
    <glyph glyph-name="uni042F" unicode="&#x42f;" horiz-adv-x="610" 
d="M510 0h-20v300h-161l-265 -300h-24l265 300h-15q-54 0 -100 27t-73 73t-27 100t27 100t73 73t100 27h220v-700zM490 318v364h-200q-49 0 -90 -24.5t-65.5 -66.5t-24.5 -91t24.5 -91t65.5 -66.5t90 -24.5h200z" />
    <glyph glyph-name="uni0430" unicode="&#x430;" 
d="M375 464q50 -46 50 -129v-335h-20v71q-19 -42 -64 -61.5t-107 -19.5q-76 0 -127.5 40t-51.5 111t51.5 111t127.5 40q60 0 105.5 -21t65.5 -61v125q0 73 -43 115t-112 42t-112 -37t-43 -100h-20q0 69 48 112t127 43q75 0 125 -46zM357 39.5q48 31.5 48 101.5
q0 69 -49.5 101t-121.5 32t-115.5 -36.5t-43.5 -96.5t43.5 -96.5t115.5 -36.5q75 0 123 31.5z" />
    <glyph glyph-name="uni0431" unicode="&#x431;" horiz-adv-x="580" 
d="M171.5 20.5q-56.5 31.5 -89 89.5t-32.5 135q0 87 40 150.5t94 103.5t136 87q67 38 97 61.5t30 51.5h20q0 -24 -17.5 -45.5t-44.5 -39t-77 -45.5q-68 -39 -113.5 -70t-84 -77.5t-52.5 -107.5q33 64 95.5 102t130.5 38q66 0 120 -30t85 -83t31 -120t-30.5 -120t-85.5 -82.5
t-126 -29.5q-70 0 -126.5 31.5zM413.5 34q50.5 27 78.5 75.5t28 111.5q0 61 -28 110t-77.5 77t-110.5 28q-54 0 -102.5 -24.5t-83.5 -68t-48 -98.5q0 -69 29 -123t81 -84.5t118 -30.5q65 0 115.5 27z" />
    <glyph glyph-name="uni0432" unicode="&#x432;" horiz-adv-x="530" 
d="M477 240q23 -36 23 -82q0 -69 -46.5 -113.5t-133.5 -44.5h-230v500h180q73 0 116.5 -39t43.5 -100q0 -34 -19 -66q43 -19 66 -55zM110 482v-170h210q37 0 72 -10q18 26 18 59q0 55 -38 88t-102 33h-160zM437.5 55.5q42.5 37.5 42.5 102.5q0 63 -43 99.5t-117 36.5h-210
v-276h210q75 0 117.5 37.5z" />
    <glyph glyph-name="uni0433" unicode="&#x433;" horiz-adv-x="380" 
d="M370 482h-260v-482h-20v500h280v-18z" />
    <glyph glyph-name="uni0434" unicode="&#x434;" horiz-adv-x="570" 
d="M530 18v-18v-144h-20v144h-70h-390v-144h-20v153v9h53q31 45 45.5 98.5t14.5 126.5v257h20h288h9v-482h70zM440 18v464h-277v-239q0 -74 -14.5 -128t-42.5 -97h334z" />
    <glyph glyph-name="uni0435" unicode="&#x435;" horiz-adv-x="579" 
d="M425.5 474q54.5 -36 84 -96.5t29.5 -129.5v-10h-18h-451q3 -68 33.5 -120t82.5 -81t116 -29q71 0 125 33t74 88h21q-22 -63 -81 -101t-139 -38q-73 0 -130.5 33.5t-89.5 92.5t-32 134q0 73 31.5 132.5t87.5 93.5t129 34t127.5 -36zM521 256q-4 70 -33.5 123.5t-79 83
t-110.5 29.5q-64 0 -115.5 -30t-81.5 -83.5t-31 -122.5h451z" />
    <glyph glyph-name="uni0436" unicode="&#x436;" horiz-adv-x="642" 
d="M586 0l-255 253v-253h-20v253l-255 -253h-26l261 260l-251 240h26l245 -233v233h20v-233l245 233h26l-251 -240l261 -260h-26z" />
    <glyph glyph-name="uni0437" unicode="&#x437;" horiz-adv-x="430" 
d="M381 224q19 -34 19 -76t-22 -78t-63 -58t-96 -22q-59 0 -102 21.5t-65 57.5t-22 79h20q0 -63 46.5 -101.5t122.5 -38.5q70 0 115.5 39t45.5 101q0 63 -42.5 99.5t-112.5 36.5h-25v18h25q48 0 84 -15q17 15 26.5 36t9.5 44q0 54 -38 89.5t-95 35.5q-63 0 -100.5 -34.5
t-37.5 -90.5h-20q0 63 43 103t115 40q45 0 80 -19.5t54 -52t19 -71.5q0 -51 -38 -89q35 -20 54 -54z" />
    <glyph glyph-name="uni0438" unicode="&#x438;" horiz-adv-x="550" 
d="M460 500v-500h-20v466l-330 -466h-20v500h20v-466l330 466h20z" />
    <glyph glyph-name="uni0439" unicode="&#x439;" horiz-adv-x="550" 
d="M460 500v-500h-20v466l-330 -466h-20v500h20v-466l330 466h20zM155 617h240v-16h-240v16z" />
    <glyph glyph-name="uni043A" unicode="&#x43a;" horiz-adv-x="461" 
d="M403 0l-293 254v-254h-20v500h20v-234l283 234h28l-290 -240l300 -260h-28z" />
    <glyph glyph-name="uni043B" unicode="&#x43b;" horiz-adv-x="540" 
d="M450 0h-20v482h-262v-279q0 -204 -132 -204l-16 1v18q65 -5 96.5 40t31.5 145v297h20h282v-500z" />
    <glyph glyph-name="uni043C" unicode="&#x43c;" horiz-adv-x="650" 
d="M560 0h-20v474l-207 -369h-16l-207 369v-474h-20v500h20h7l208 -371l208 371h27v-500z" />
    <glyph glyph-name="uni043D" unicode="&#x43d;" horiz-adv-x="550" 
d="M460 500v-500h-20v241h-330v-241h-20v500h20v-241h330v241h20z" />
    <glyph glyph-name="uni043E" unicode="&#x43e;" horiz-adv-x="622" 
d="M179.5 24.5q-59.5 34.5 -94.5 94t-35 131.5t35 131.5t94.5 94t131.5 34.5t131.5 -34.5t94.5 -94t35 -131.5t-35 -131.5t-94.5 -94t-131.5 -34.5t-131.5 34.5zM433 40q55 32 87 87.5t32 122.5t-32 122.5t-87 87.5t-122 32t-122 -32t-87 -87.5t-32 -122.5t32 -122.5
t87 -87.5t122 -32t122 32z" />
    <glyph glyph-name="uni043F" unicode="&#x43f;" horiz-adv-x="550" 
d="M460 0h-20v482h-330v-482h-20v500h20h350v-500z" />
    <glyph glyph-name="uni0440" unicode="&#x440;" horiz-adv-x="662" 
d="M482.5 475.5q59.5 -34.5 94.5 -94t35 -131.5t-35 -131.5t-94.5 -94t-131.5 -34.5q-83 0 -148.5 46t-92.5 121v-357h-20v700h20v-157q27 75 92.5 121t148.5 46q72 0 131.5 -34.5zM473 40q55 32 87 87.5t32 122.5t-32 122.5t-87 87.5t-122 32t-122 -32t-87 -87.5
t-32 -122.5t32 -122.5t87 -87.5t122 -32t122 32z" />
    <glyph glyph-name="uni0441" unicode="&#x441;" horiz-adv-x="581" 
d="M455.5 31q-62.5 -41 -144.5 -41q-73 0 -133 34t-94 93.5t-34 132.5t34 132.5t94 93.5t133 34q82 0 144.5 -41t85.5 -109h-20q-22 60 -79 96t-131 36q-68 0 -123 -32t-86.5 -87.5t-31.5 -122.5t31.5 -122.5t86.5 -87.5t123 -32q74 0 130.5 36t79.5 96h20
q-23 -68 -85.5 -109z" />
    <glyph glyph-name="uni0442" unicode="&#x442;" horiz-adv-x="400" 
d="M380 482h-170v-482h-20v482h-170v18h190h170v-18z" />
    <glyph glyph-name="uni0443" unicode="&#x443;" horiz-adv-x="490" 
d="M475 500l-199 -546q-27 -74 -79.5 -116.5t-111.5 -37.5v18q53 -5 100.5 34t72.5 108l6 17l-219 523h20l208 -498l182 498h20z" />
    <glyph glyph-name="uni0444" unicode="&#x444;" horiz-adv-x="670" 
d="M585 119q-35 -59 -97.5 -94t-142.5 -37v-188h-20v188q-80 2 -142.5 37t-97.5 94t-35 131t35 131t97.5 94t142.5 37v188h20v-188q80 -2 142.5 -37t97.5 -94t35 -131t-35 -131zM102.5 127q32.5 -55 90.5 -87t132 -34v488q-74 -2 -132 -34t-90.5 -87t-32.5 -123t32.5 -123z
M477 40q58 32 90.5 87t32.5 123t-32.5 123t-90.5 87t-132 34v-488q74 2 132 34z" />
    <glyph glyph-name="uni0445" unicode="&#x445;" horiz-adv-x="450" 
d="M398 0l-173 242l-173 -242h-22l184 257l-174 243h22l163 -228l163 228h22l-174 -243l184 -257h-22z" />
    <glyph glyph-name="uni0446" unicode="&#x446;" horiz-adv-x="570" 
d="M530 18v-162h-20v144h-420v500h20v-482h320v482h20v-482h80z" />
    <glyph glyph-name="uni0447" unicode="&#x447;" horiz-adv-x="520" 
d="M430 500v-500h-20v208q-81 -38 -157 -38q-84 0 -133.5 42.5t-49.5 117.5v170h20v-170q0 -66 43 -104t120 -38q74 0 157 40v272h20z" />
    <glyph glyph-name="uni0448" unicode="&#x448;" horiz-adv-x="770" 
d="M680 500v-500h-20h-285h-273h-12v500h20v-482h265v482h20v-482h265v482h20z" />
    <glyph glyph-name="uni0449" unicode="&#x449;" horiz-adv-x="790" 
d="M750 18v-18v-144h-20v144h-70h-285h-273h-12v500h20v-482h265v482h20v-482h265v482h20v-482h70z" />
    <glyph glyph-name="uni044A" unicode="&#x44a;" horiz-adv-x="540" 
d="M418.5 280q37.5 -18 59.5 -51.5t22 -78.5t-22 -79t-59.5 -52.5t-80.5 -18.5h-174h-14v482h-150v18h160h10v-202h168q43 0 80.5 -18zM439.5 55.5q40.5 37.5 40.5 94.5t-40 93.5t-102 36.5h-168v-262h168q61 0 101.5 37.5z" />
    <glyph glyph-name="uni044B" unicode="&#x44b;" horiz-adv-x="640" 
d="M358.5 280q37.5 -18 59.5 -51.5t22 -78.5t-22 -79t-59.5 -52.5t-80.5 -18.5h-174h-14v500h20v-202h168q43 0 80.5 -18zM379.5 55.5q40.5 37.5 40.5 94.5t-40 93.5t-102 36.5h-168v-262h168q61 0 101.5 37.5zM530 500h20v-500h-20v500z" />
    <glyph glyph-name="uni044C" unicode="&#x44c;" horiz-adv-x="480" 
d="M358.5 280q37.5 -18 59.5 -51.5t22 -78.5t-22 -79t-59.5 -52.5t-80.5 -18.5h-174h-14v500h20v-202h168q43 0 80.5 -18zM379.5 55.5q40.5 37.5 40.5 94.5t-40 93.5t-102 36.5h-168v-262h168q61 0 101.5 37.5z" />
    <glyph glyph-name="uni044D" unicode="&#x44d;" horiz-adv-x="580" 
d="M406.5 476q58.5 -34 91 -93.5t32.5 -132.5t-32.5 -132.5t-91 -93.5t-131.5 -34q-85 0 -146.5 40.5t-88.5 109.5h20q27 -61 83 -96.5t132 -35.5q67 0 119.5 30.5t83 83.5t32.5 119h-277v18h277q-2 66 -32.5 119t-83 83.5t-119.5 30.5q-77 0 -133 -35.5t-82 -96.5h-20
q27 69 88.5 109.5t146.5 40.5q73 0 131.5 -34z" />
    <glyph glyph-name="uni044E" unicode="&#x44e;" horiz-adv-x="810" 
d="M630.5 475.5q59.5 -34.5 94.5 -94t35 -131.5t-35 -131.5t-94.5 -94t-131.5 -34.5q-70 0 -129 33t-94.5 90.5t-37.5 127.5h-128v-241h-20v500h20v-241h128q2 70 37.5 127.5t94.5 90.5t129 33q72 0 131.5 -34.5zM621 40q55 32 87 87.5t32 122.5t-32 122.5t-87 87.5t-122 32
t-122 -32t-87 -87.5t-32 -122.5t32 -122.5t87 -87.5t122 -32t122 32z" />
    <glyph glyph-name="uni044F" unicode="&#x44f;" 
d="M410 0h-20v202h-153l-181 -202h-26l184 202q-65 2 -109.5 42.5t-44.5 105.5q0 45 22 79t59.5 52.5t80.5 18.5h188v-500zM390 220v262h-168q-61 0 -101.5 -37.5t-40.5 -94.5t40 -93.5t102 -36.5h168z" />
    <glyph glyph-name="uni0451" unicode="&#x451;" horiz-adv-x="579" 
d="M425.5 474q54.5 -36 84 -96.5t29.5 -129.5v-10h-18h-451q3 -68 33.5 -120t82.5 -81t116 -29q71 0 125 33t74 88h21q-22 -63 -81 -101t-139 -38q-73 0 -130.5 33.5t-89.5 92.5t-32 134q0 73 31.5 132.5t87.5 93.5t129 34t127.5 -36zM521 256q-4 70 -33.5 123.5t-79 83
t-110.5 29.5q-64 0 -115.5 -30t-81.5 -83.5t-31 -122.5h451zM197 640h20v-60h-20v60zM377 640h20v-60h-20v60z" />
    <glyph glyph-name="uni0452" unicode="&#x452;" horiz-adv-x="550" 
d="M434 465q46 -45 46 -128v-427q0 -56 -29.5 -88.5t-86.5 -32.5q-15 0 -23 1v18q8 -1 22 -1q49 0 73 27t24 76v427q0 72 -39.5 113.5t-105.5 41.5q-50 0 -92 -24.5t-67.5 -72t-25.5 -113.5v-282h-20v595h-80v17h80v88h20v-88h180v-17h-180v-225q18 70 70 105t115 35
q73 0 119 -45z" />
    <glyph glyph-name="uni0453" unicode="&#x453;" horiz-adv-x="380" 
d="M370 482h-260v-482h-20v500h280v-18zM199 570l83 120h-21l-80 -120h18z" />
    <glyph glyph-name="uni0454" unicode="&#x454;" horiz-adv-x="580" 
d="M437 43.5q56 35.5 83 96.5h20q-27 -69 -88.5 -109.5t-146.5 -40.5q-73 0 -131.5 34t-91 93.5t-32.5 132.5t32.5 132.5t91 93.5t131.5 34q85 0 146.5 -40.5t88.5 -109.5h-20q-26 61 -82 96.5t-133 35.5q-67 0 -119.5 -30.5t-83 -83.5t-32.5 -119h277v-18h-277
q2 -66 32.5 -119t83 -83.5t119.5 -30.5q76 0 132 35.5z" />
    <glyph glyph-name="uni0455" unicode="&#x455;" horiz-adv-x="470" 
d="M106 318q21 -23 52.5 -34t83.5 -23q58 -14 92 -26.5t57.5 -40t23.5 -74.5q0 -58 -49 -94t-131 -36q-54 0 -95 17.5t-63 48.5t-22 69h20q0 -53 44 -85t116 -32t116 30t44 82q0 41 -21.5 64.5t-53 35t-85.5 24.5q-56 13 -89.5 25.5t-57 39t-23.5 71.5q0 58 46 94t124 36
q75 0 120.5 -38t45.5 -97h-20q0 53 -40.5 85t-105.5 32q-68 0 -109 -29.5t-41 -82.5q0 -39 21 -62z" />
    <glyph glyph-name="uni0456" unicode="&#x456;" horiz-adv-x="200" 
d="M90 700h20v-100h-20v100zM90 500h20v-500h-20v500z" />
    <glyph glyph-name="uni0457" unicode="&#x457;" horiz-adv-x="200" 
d="M90 500h20v-500h-20v500zM0 640h20v-60h-20v60zM180 640h20v-60h-20v60z" />
    <glyph glyph-name="uni0458" unicode="&#x458;" horiz-adv-x="219" 
d="M119 700v-100h-20v100h20zM99 500h20v-590q0 -56 -29.5 -88.5t-86.5 -32.5q-15 0 -23 1v18q8 -1 22 -1q49 0 73 27t24 76v590z" />
    <glyph glyph-name="uni0459" unicode="&#x459;" horiz-adv-x="790" 
d="M706.5 242q43.5 -36 43.5 -102t-44 -103t-108 -37h-164h-14v482h-252v-279q0 -204 -132 -204l-16 1v18q65 -5 96.5 40t31.5 145v297h20h262h10v-222h158q65 0 108.5 -36zM693.5 51q36.5 33 36.5 89t-36.5 88t-95.5 32h-158v-242h158q59 0 95.5 33z" />
    <glyph glyph-name="uni045A" unicode="&#x45a;" horiz-adv-x="780" 
d="M696.5 242q43.5 -36 43.5 -102t-44 -103t-108 -37h-164h-14v260h-310v-260h-20v500h20v-222h310v222h20v-222h158q65 0 108.5 -36zM683.5 51q36.5 33 36.5 89t-36.5 88t-95.5 32h-158v-242h158q59 0 95.5 33z" />
    <glyph glyph-name="uni045B" unicode="&#x45b;" horiz-adv-x="555" 
d="M434 465q46 -45 46 -128v-337h-20v337q0 72 -39.5 113.5t-105.5 41.5q-50 0 -92 -24.5t-67.5 -72t-25.5 -113.5v-282h-20v595h-80v17h80v88h20v-88h180v-17h-180v-225q18 70 70 105t115 35q73 0 119 -45z" />
    <glyph glyph-name="uni045C" unicode="&#x45c;" horiz-adv-x="461" 
d="M403 0l-293 254v-254h-20v500h20v-234l283 234h28l-290 -240l300 -260h-28zM229 570l83 120h-21l-80 -120h18z" />
    <glyph glyph-name="uni045E" unicode="&#x45e;" horiz-adv-x="490" 
d="M475 500l-199 -546q-27 -74 -79.5 -116.5t-111.5 -37.5v18q53 -5 100.5 34t72.5 108l6 17l-219 523h20l208 -498l182 498h20zM138 617h240v-16h-240v16z" />
    <glyph glyph-name="uni045F" unicode="&#x45f;" horiz-adv-x="550" 
d="M460 500v-500h-20h-155v-144h-20v144h-167h-8v500h20v-482h330v482h20z" />
    <glyph glyph-name="uni0490" unicode="&#x490;" 
d="M470 820v-130v-8h-350v-682h-20v700h350v120h20z" />
    <glyph glyph-name="uni0491" unicode="&#x491;" horiz-adv-x="380" 
d="M370 604v-122h-260v-482h-20v500h260v104h20z" />
    <glyph glyph-name="Wgrave" unicode="&#x1e80;" horiz-adv-x="860" 
d="M830 700l-229 -700h-26l-145 443l-145 -443h-26l-229 700h20l222 -678l148 451l-74 227h20l222 -678l222 678h20zM376 890h-21l84 -120h17z" />
    <glyph glyph-name="wgrave" unicode="&#x1e81;" horiz-adv-x="670" 
d="M650 500l-184 -500h-21h-1l-109 296l-109 -296h-21h-1l-184 500h21l174 -473l110 297l-65 176h21l174 -473l174 473h21zM285 690h-21l84 -120h17z" />
    <glyph glyph-name="Wacute" unicode="&#x1e82;" horiz-adv-x="860" 
d="M830 700l-229 -700h-26l-145 443l-145 -443h-26l-229 700h20l222 -678l148 451l-74 227h20l222 -678l222 678h20zM424 770l83 120h-21l-80 -120h18z" />
    <glyph glyph-name="wacute" unicode="&#x1e83;" horiz-adv-x="670" 
d="M650 500l-184 -500h-21h-1l-109 296l-109 -296h-21h-1l-184 500h21l174 -473l110 297l-65 176h21l174 -473l174 473h21zM333 570l83 120h-21l-80 -120h18z" />
    <glyph glyph-name="Wdieresis" unicode="&#x1e84;" horiz-adv-x="860" 
d="M830 700l-229 -700h-26l-145 443l-145 -443h-26l-229 700h20l222 -678l148 451l-74 227h20l222 -678l222 678h20zM331 840h20v-60h-20v60zM511 840h20v-60h-20v60z" />
    <glyph glyph-name="wdieresis" unicode="&#x1e85;" horiz-adv-x="670" 
d="M650 500l-184 -500h-21h-1l-109 296l-109 -296h-21h-1l-184 500h21l174 -473l110 297l-65 176h21l174 -473l174 473h21zM240 640h20v-60h-20v60zM420 640h20v-60h-20v60z" />
    <glyph glyph-name="Ygrave" unicode="&#x1ef2;" horiz-adv-x="560" 
d="M290 329v-329h-20v329l-250 371h22l238 -354l238 354h22zM225 890h-21l84 -120h17z" />
    <glyph glyph-name="ygrave" unicode="&#x1ef3;" horiz-adv-x="470" 
d="M450 500l-272 -700h-21l78 200l-215 500h21l204 -474l184 474h21zM180 690h-21l84 -120h17z" />
    <glyph glyph-name="endash" unicode="&#x2013;" horiz-adv-x="700" 
d="M100 318h500v-18h-500v18z" />
    <glyph glyph-name="emdash" unicode="&#x2014;" horiz-adv-x="800" 
d="M100 318h600v-18h-600v18z" />
    <glyph glyph-name="quoteleft" unicode="&#x2018;" horiz-adv-x="200" 
d="M120 705v-17q-11 -7 -15.5 -21.5t-4.5 -39.5v-100h-20v100q0 63 40 78z" />
    <glyph glyph-name="quoteright" unicode="&#x2019;" horiz-adv-x="200" 
d="M120 700v-100q0 -63 -40 -78v17q11 7 15.5 21.5t4.5 39.5v100h20z" />
    <glyph glyph-name="quotesinglbase" unicode="&#x201a;" horiz-adv-x="200" 
d="M120 60v-100q0 -63 -40 -78v17q11 7 15.5 21.5t4.5 39.5v100h20z" />
    <glyph glyph-name="quotedblleft" unicode="&#x201c;" horiz-adv-x="300" 
d="M120 705v-17q-11 -7 -15.5 -21.5t-4.5 -39.5v-100h-20v100q0 63 40 78zM220 705v-17q-11 -7 -15.5 -21.5t-4.5 -39.5v-100h-20v100q0 63 40 78z" />
    <glyph glyph-name="quotedblright" unicode="&#x201d;" horiz-adv-x="300" 
d="M120 700v-100q0 -63 -40 -78v17q11 7 15.5 21.5t4.5 39.5v100h20zM220 700v-100q0 -63 -40 -78v17q11 7 15.5 21.5t4.5 39.5v100h20z" />
    <glyph glyph-name="quotedblbase" unicode="&#x201e;" horiz-adv-x="300" 
d="M120 60v-100q0 -63 -40 -78v17q11 7 15.5 21.5t4.5 39.5v100h20zM220 60v-100q0 -63 -40 -78v17q11 7 15.5 21.5t4.5 39.5v100h20z" />
    <glyph glyph-name="dagger" unicode="&#x2020;" horiz-adv-x="460" 
d="M390 494h-150v-494h-20v494h-150v18h150v188h20v-188h150v-18z" />
    <glyph glyph-name="daggerdbl" unicode="&#x2021;" horiz-adv-x="460" 
d="M240 494v-288h150v-18h-150v-188h-20v188h-150v18h150v288h-150v18h150v188h20v-188h150v-18h-150z" />
    <glyph glyph-name="bullet" unicode="&#x2022;" horiz-adv-x="240" 
d="M78 308q-18 18 -18 43t17.5 42t43.5 17q25 0 42 -17t17 -42q0 -26 -17 -43.5t-42 -17.5t-43 18z" />
    <glyph glyph-name="ellipsis" unicode="&#x2026;" horiz-adv-x="560" 
d="M80 60h20v-60h-20v60zM270 60h20v-60h-20v60zM460 60h20v-60h-20v60z" />
    <glyph glyph-name="perthousand" unicode="&#x2030;" horiz-adv-x="1129" 
d="M145 433.5q-35 19.5 -55 53.5t-20 75t20 75t55 53.5t78 19.5t78 -19.5t55 -53.5t20 -75t-19.5 -75t-54.5 -53.5t-79 -19.5q-43 0 -78 19.5zM619 700h22l-492 -700h-21zM318.5 469q37.5 37 37.5 93t-38 93t-95 37t-95 -37t-38 -93t38 -93t95 -37q58 0 95.5 37zM468 9.5
q-35 19.5 -55 53.5t-20 75t20 75t55 53.5t78 19.5t78 -19.5t55 -53.5t20 -75t-20 -75t-55 -53.5t-78 -19.5t-78 19.5zM838 9.5q-35 19.5 -55 53.5t-20 75t20 75t55 53.5t78 19.5t78 -19.5t55 -53.5t20 -75t-20 -75t-55 -53.5t-78 -19.5t-78 19.5zM641 45q38 37 38 93t-38 93
t-95 37t-95 -37t-38 -93t38 -93t95 -37t95 37zM1011 45q38 37 38 93t-38 93t-95 37t-95 -37t-38 -93t38 -93t95 -37t95 37z" />
    <glyph glyph-name="guilsinglleft" unicode="&#x2039;" horiz-adv-x="322" 
d="M122 309l100 -160h-22l-100 160l100 160h22z" />
    <glyph glyph-name="guilsinglright" unicode="&#x203a;" horiz-adv-x="322" 
d="M222 309l-100 -160h-22l100 160l-100 160h22z" />
    <glyph glyph-name="fraction" unicode="&#x2044;" horiz-adv-x="240" 
d="M-100 0l420 700h20l-420 -700h-20z" />
    <glyph glyph-name="Euro" unicode="&#x20ac;" horiz-adv-x="622" 
d="M490 58.5q55 50.5 72 141.5h20q-18 -98 -78 -154t-149 -56q-104 0 -169.5 75.5t-81.5 206.5h-94v18h93q-3 29 -3 60q0 32 3 60h-93v18h94q16 131 81.5 206.5t169.5 75.5q89 0 149 -56t78 -154h-20q-18 91 -72.5 141.5t-134.5 50.5q-94 0 -155 -70t-76 -194h296v-18h-297
q-3 -28 -3 -60q0 -31 3 -60h297v-18h-296q15 -124 76 -194t155 -70q80 0 135 50.5z" />
    <glyph glyph-name="uni20BD" unicode="&#x20bd;" horiz-adv-x="550" 
d="M110 300v-122h280v-18h-280v-160h-20v160h-90v18h90v122h-90v18h90v382h20h200q54 0 100 -27t73 -73t27 -100t-27 -100t-73 -73t-100 -27h-200zM110 318h200q49 0 90 24.5t65.5 66.5t24.5 91t-24.5 91t-65.5 66.5t-90 24.5h-200v-364z" />
    <glyph glyph-name="uni2116" unicode="&#x2116;" horiz-adv-x="966" 
d="M690 449q-33 19 -51.5 51t-18.5 70t18.5 70t51.5 51t73 19t73 -19t51.5 -51t18.5 -70t-18.5 -70t-51 -51t-73.5 -19q-40 0 -73 19zM530 700v-700h-20l-390 662v-662h-20v700h20l390 -662v662h20zM851 483q35 35 35 87t-35.5 87t-87.5 35t-87.5 -35t-35.5 -87t35.5 -87
t87.5 -35q53 0 88 35zM630 332h266v-18h-266v18z" />
    <glyph glyph-name="trademark" unicode="&#x2122;" horiz-adv-x="507" 
d="M212 681h-62v-181h-20v181h-60v19h142v-19zM437 500h-20v178l-68 -135h-17l-67 135v-178h-20v200h20h10l65 -132l67 132h30v-200z" />
    <glyph glyph-name="estimated" unicode="&#x212e;" horiz-adv-x="860" 
d="M622.5 662q84.5 -48 131 -130.5t46.5 -181.5q0 -15 -15 -15h-560q-15 0 -15 -15v-192q0 -11 7 -19q84 -89 233 -89q73 0 131.5 25t99.5 72q8 9 18 9h37q6 0 10 -2.5t4 -6.5q0 -5 -5 -10q-52 -55 -127 -86t-168 -31q-117 0 -205.5 48t-136.5 130t-48 182q0 99 46.5 181.5
t131 130.5t192.5 48t192.5 -48zM643 591q-41 43 -95.5 66t-117.5 23t-117.5 -23t-95.5 -66q-7 -8 -7 -19v-192q0 -15 15 -15h410q15 0 15 15v192q0 11 -7 19z" />
    <glyph glyph-name="oneeighth" unicode="&#x215b;" horiz-adv-x="840" 
d="M175 700v-400h-20v380l-125 -67v20l125 67h20zM145 0l420 700h20l-420 -700h-20zM777.5 169q22.5 -29 22.5 -68q0 -51 -38 -82t-99 -31t-99.5 31t-38.5 82q0 39 23 68t61 41q-32 12 -51.5 36t-19.5 57q0 51 36 80t89 29t88.5 -29t35.5 -80q0 -33 -19.5 -57t-50.5 -36
q38 -12 60.5 -41zM589 241.5q31 -23.5 74 -23.5q42 0 73 23.5t31 61.5q0 43 -30 67t-74 24q-45 0 -75 -24t-30 -67q0 -38 31 -61.5zM747.5 31.5q32.5 25.5 32.5 69.5q0 45 -33 72t-84 27t-84.5 -27t-33.5 -72q0 -44 32.5 -69.5t85.5 -25.5q52 0 84.5 25.5z" />
    <glyph glyph-name="threeeighths" unicode="&#x215c;" horiz-adv-x="938" 
d="M271 497q32 -35 32 -85q0 -53 -35.5 -88.5t-98.5 -35.5t-98.5 35.5t-35.5 88.5h20q0 -45 29.5 -75.5t84.5 -30.5t84.5 30.5t29.5 75.5t-29.5 75.5t-84.5 30.5h-10v15l108 149h-217v18h238v-18l-106 -146q57 -4 89 -39zM243 0l420 700h20l-420 -700h-20zM875.5 169
q22.5 -29 22.5 -68q0 -51 -38 -82t-99 -31t-99.5 31t-38.5 82q0 39 23 68t61 41q-32 12 -51.5 36t-19.5 57q0 51 36 80t89 29t88.5 -29t35.5 -80q0 -33 -19.5 -57t-50.5 -36q38 -12 60.5 -41zM687 241.5q31 -23.5 74 -23.5q42 0 73 23.5t31 61.5q0 43 -30 67t-74 24
q-45 0 -75 -24t-30 -67q0 -38 31 -61.5zM845.5 31.5q32.5 25.5 32.5 69.5q0 45 -33 72t-84 27t-84.5 -27t-33.5 -72q0 -44 32.5 -69.5t85.5 -25.5q52 0 84.5 25.5z" />
    <glyph glyph-name="fiveeighths" unicode="&#x215d;" horiz-adv-x="931" 
d="M259.5 501q36.5 -35 36.5 -89t-36.5 -89t-96.5 -35t-96.5 35t-36.5 89h20q0 -49 31 -77.5t82 -28.5t82 28.5t31 77.5t-31 77.5t-82 28.5h-110l15 182h212v-18h-194l-13 -146h90q60 0 96.5 -35zM236 0l420 700h20l-420 -700h-20zM868.5 169q22.5 -29 22.5 -68
q0 -51 -38 -82t-99 -31t-99.5 31t-38.5 82q0 39 23 68t61 41q-32 12 -51.5 36t-19.5 57q0 51 36 80t89 29t88.5 -29t35.5 -80q0 -33 -19.5 -57t-50.5 -36q38 -12 60.5 -41zM680 241.5q31 -23.5 74 -23.5q42 0 73 23.5t31 61.5q0 43 -30 67t-74 24q-45 0 -75 -24t-30 -67
q0 -38 31 -61.5zM838.5 31.5q32.5 25.5 32.5 69.5q0 45 -33 72t-84 27t-84.5 -27t-33.5 -72q0 -44 32.5 -69.5t85.5 -25.5q52 0 84.5 25.5z" />
    <glyph glyph-name="seveneighths" unicode="&#x215e;" horiz-adv-x="931" 
d="M296 700v-16l-168 -384h-22l167 382h-243v18h266zM236 0l420 700h20l-420 -700h-20zM868.5 169q22.5 -29 22.5 -68q0 -51 -38 -82t-99 -31t-99.5 31t-38.5 82q0 39 23 68t61 41q-32 12 -51.5 36t-19.5 57q0 51 36 80t89 29t88.5 -29t35.5 -80q0 -33 -19.5 -57t-50.5 -36
q38 -12 60.5 -41zM680 241.5q31 -23.5 74 -23.5q42 0 73 23.5t31 61.5q0 43 -30 67t-74 24q-45 0 -75 -24t-30 -67q0 -38 31 -61.5zM838.5 31.5q32.5 25.5 32.5 69.5q0 45 -33 72t-84 27t-84.5 -27t-33.5 -72q0 -44 32.5 -69.5t85.5 -25.5q52 0 84.5 25.5z" />
    <glyph glyph-name="arrowleft" unicode="&#x2190;" horiz-adv-x="840" 
d="M770 341h-664l291 -291h-27l-300 300l300 300h27l-291 -291h664v-18z" />
    <glyph glyph-name="arrowup" unicode="&#x2191;" horiz-adv-x="740" 
d="M670 373l-290 290v-663h-20v663l-290 -290v27l300 300l300 -300v-27z" />
    <glyph glyph-name="arrowright" unicode="&#x2192;" horiz-adv-x="840" 
d="M770 350l-300 -300h-27l291 291h-664v18h664l-291 291h27z" />
    <glyph glyph-name="arrowdown" unicode="&#x2193;" horiz-adv-x="740" 
d="M670 327v-27l-300 -300l-300 300v27l290 -290v663h20v-663z" />
    <glyph glyph-name="arrowboth" unicode="&#x2194;" horiz-adv-x="1020" 
d="M950 350l-240 -240h-27l231 231h-808l231 -231h-27l-240 240l240 240h27l-231 -231h808l-231 231h27z" />
    <glyph glyph-name="arrowupdn" unicode="&#x2195;" horiz-adv-x="640" 
d="M330 753v-806l230 230v-27l-240 -240l-240 240v27l230 -230v806l-230 -230v27l240 240l240 -240v-27z" />
    <glyph glyph-name="uni2196" unicode="&#x2196;" horiz-adv-x="642" 
d="M557 85l-468 469v-410l-19 19v424h424l19 -19h-410l469 -468z" />
    <glyph glyph-name="uni2197" unicode="&#x2197;" horiz-adv-x="642" 
d="M572 587v-424l-19 -19v410l-468 -469l-15 15l469 468h-410l19 19h424z" />
    <glyph glyph-name="uni2198" unicode="&#x2198;" horiz-adv-x="642" 
d="M572 513v-424h-424l-19 19h410l-469 468l15 15l468 -469v410z" />
    <glyph glyph-name="uni2199" unicode="&#x2199;" horiz-adv-x="642" 
d="M103 108h410l-19 -19h-424v424l19 19v-410l468 469l15 -15z" />
    <glyph glyph-name="partialdiff" unicode="&#x2202;" horiz-adv-x="580" 
d="M375.5 665.5q62.5 -44.5 98.5 -126t36 -189.5q0 -114 -32 -195t-88.5 -123t-128.5 -42q-61 0 -106.5 27.5t-70 75.5t-24.5 107q0 67 27 119.5t77.5 81.5t118.5 29q115 0 207 -60q-3 92 -35.5 165.5t-89 115t-129.5 41.5q-70 0 -120 -33l-11 15q56 36 131 36
q77 0 139.5 -44.5zM381 49q51 41 79.5 117.5t29.5 179.5q-48 34 -98 50t-109 16q-92 0 -147.5 -57.5t-55.5 -154.5q0 -56 23 -100t64 -68t94 -24q69 0 120 41z" />
    <glyph glyph-name="emptyset" unicode="&#x2205;" horiz-adv-x="844" 
d="M751 500.5q33 -70.5 33 -150.5q0 -98 -48.5 -181t-132 -131t-181.5 -48q-62 0 -119.5 20t-103.5 56l-72 -86h-24l81 98q-58 51 -91 121.5t-33 150.5q0 98 48.5 181t132 131t181.5 48q62 0 119.5 -20t103.5 -56l72 86h24l-81 -98q58 -51 91 -121.5zM111 207
q31 -67 85 -114l437 526q-44 35 -98 54t-113 19q-93 0 -171.5 -46t-124.5 -124.5t-46 -171.5q0 -76 31 -143zM593.5 54q78.5 46 124.5 124.5t46 171.5q0 76 -31 143t-85 114l-437 -526q44 -35 98 -54t113 -19q93 0 171.5 46z" />
    <glyph glyph-name="product" unicode="&#x220f;" horiz-adv-x="640" 
d="M100 700h440v-900h-20v882h-400v-882h-20v900z" />
    <glyph glyph-name="summation" unicode="&#x2211;" horiz-adv-x="542" 
d="M70 -183l279 443l-266 423v17h404v-18h-382l266 -422l-279 -442h410v-18h-432v17z" />
    <glyph glyph-name="minus" unicode="&#x2212;" horiz-adv-x="540" 
d="M70 359h400v-18h-400v18z" />
    <glyph glyph-name="radical" unicode="&#x221a;" horiz-adv-x="629" 
d="M146 282h-76v18h86l167 -280l256 780h20l-263 -800h-22z" />
    <glyph glyph-name="infinity" unicode="&#x221e;" horiz-adv-x="819" 
d="M707.5 458.5q41.5 -41.5 41.5 -108.5t-41.5 -108.5t-104.5 -41.5q-43 0 -78.5 20t-59.5 46t-55 68q-31 -41 -55.5 -67.5t-60 -46.5t-78.5 -20q-63 0 -104.5 41.5t-41.5 108.5t41.5 108.5t104.5 41.5q43 0 78.5 -20t60 -46.5t55.5 -67.5q31 42 55 68t59.5 46t78.5 20
q63 0 104.5 -41.5zM288.5 237.5q32.5 19.5 55.5 45t54 67.5q-31 42 -54 67.5t-55.5 45t-72.5 19.5q-56 0 -91 -36.5t-35 -95.5t35 -95.5t91 -36.5q40 0 72.5 19.5zM694 254.5q35 36.5 35 95.5t-35 95.5t-91 36.5q-39 0 -71.5 -19.5t-55.5 -45t-54 -67.5q31 -42 54 -67.5
t55.5 -45t71.5 -19.5q56 0 91 36.5z" />
    <glyph glyph-name="integral" unicode="&#x222b;" horiz-adv-x="431" 
d="M0 -184q21 -10 44 -10q36 0 62 28t35 78l117 680q10 57 42 88.5t79 31.5q25 0 52 -9v-19q-26 10 -50 10q-40 0 -67 -27.5t-36 -78.5l-117 -680q-10 -56 -42 -88t-75 -32q-20 0 -44 8v20z" />
    <glyph glyph-name="approxequal" unicode="&#x2248;" horiz-adv-x="572" 
d="M178 463q-39 0 -60.5 -27.5t-29.5 -59.5l-18 8q8 34 34.5 66.5t73.5 32.5q50 0 113 -45q60 -42 103 -42q39 0 60.5 28t29.5 60l18 -8q-8 -34 -34.5 -66.5t-72.5 -32.5q-51 0 -114 45q-59 41 -103 41zM70 224q8 34 34.5 66.5t73.5 32.5q50 0 113 -45q60 -42 103 -42
q39 0 60.5 28t29.5 60l18 -8q-8 -34 -34.5 -66.5t-72.5 -32.5q-51 0 -114 45q-59 41 -103 41q-39 0 -60.5 -27.5t-29.5 -59.5z" />
    <glyph glyph-name="notequal" unicode="&#x2260;" horiz-adv-x="530" 
d="M323 441l-85 -182h222v-18h-230l-78 -166h-20l78 166h-140v18h148l85 182h-233v18h241l78 166h20l-78 -166h129v-18h-137z" />
    <glyph glyph-name="lessequal" unicode="&#x2264;" horiz-adv-x="540" 
d="M470 560l-378 -152l378 -152v-20l-400 163v18l400 163v-20zM70 138h400v-18h-400v18z" />
    <glyph glyph-name="greaterequal" unicode="&#x2265;" horiz-adv-x="540" 
d="M470 417v-18l-400 -163v20l378 152l-378 152v20zM70 138h400v-18h-400v18z" />
    <glyph glyph-name="lozenge" unicode="&#x25ca;" horiz-adv-x="534" 
d="M70 350l187 350h20l187 -350l-187 -350h-20zM442 350l-175 327l-175 -327l175 -327z" />
    <glyph glyph-name="i.loclTRK" horiz-adv-x="200" 
d="M90 500h20v-500h-20v500zM90 650h20v-70h-20v70z" />
    <glyph glyph-name="a.ss01" horiz-adv-x="662" 
d="M572 500v-500h-20v153q-29 -74 -94 -118.5t-147 -44.5q-72 0 -131.5 34.5t-94.5 94t-35 131.5t35 131.5t94.5 94t131.5 34.5q82 0 147 -44.5t94 -118.5v153h20zM433 40q55 32 87 87.5t32 122.5t-32 122.5t-87 87.5t-122 32t-122 -32t-87 -87.5t-32 -122.5t32 -122.5
t87 -87.5t122 -32t122 32z" />
    <glyph glyph-name="aacute.ss01" horiz-adv-x="662" 
d="M572 500v-500h-20v153q-29 -74 -94 -118.5t-147 -44.5q-72 0 -131.5 34.5t-94.5 94t-35 131.5t35 131.5t94.5 94t131.5 34.5q82 0 147 -44.5t94 -118.5v153h20zM433 40q55 32 87 87.5t32 122.5t-32 122.5t-87 87.5t-122 32t-122 -32t-87 -87.5t-32 -122.5t32 -122.5
t87 -87.5t122 -32t122 32zM303 570l83 120h-21l-80 -120h18z" />
    <glyph glyph-name="abreve.ss01" horiz-adv-x="662" 
d="M572 500v-500h-20v153q-29 -74 -94 -118.5t-147 -44.5q-72 0 -131.5 34.5t-94.5 94t-35 131.5t35 131.5t94.5 94t131.5 34.5q82 0 147 -44.5t94 -118.5v153h20zM433 40q55 32 87 87.5t32 122.5t-32 122.5t-87 87.5t-122 32t-122 -32t-87 -87.5t-32 -122.5t32 -122.5
t87 -87.5t122 -32t122 32zM223 601q-33 29 -33 76h18q0 -40 28 -64.5t74 -24.5t74 24.5t28 64.5h18q0 -47 -33 -76t-87 -29t-87 29z" />
    <glyph glyph-name="acircumflex.ss01" horiz-adv-x="662" 
d="M572 500v-500h-20v153q-29 -74 -94 -118.5t-147 -44.5q-72 0 -131.5 34.5t-94.5 94t-35 131.5t35 131.5t94.5 94t131.5 34.5q82 0 147 -44.5t94 -118.5v153h20zM433 40q55 32 87 87.5t32 122.5t-32 122.5t-87 87.5t-122 32t-122 -32t-87 -87.5t-32 -122.5t32 -122.5
t87 -87.5t122 -32t122 32zM409 570l-101 108l-101 -108h-22l112 120h22l112 -120h-22z" />
    <glyph glyph-name="adieresis.ss01" horiz-adv-x="662" 
d="M572 500v-500h-20v153q-29 -74 -94 -118.5t-147 -44.5q-72 0 -131.5 34.5t-94.5 94t-35 131.5t35 131.5t94.5 94t131.5 34.5q82 0 147 -44.5t94 -118.5v153h20zM433 40q55 32 87 87.5t32 122.5t-32 122.5t-87 87.5t-122 32t-122 -32t-87 -87.5t-32 -122.5t32 -122.5
t87 -87.5t122 -32t122 32zM210 640h20v-60h-20v60zM390 640h20v-60h-20v60z" />
    <glyph glyph-name="agrave.ss01" horiz-adv-x="662" 
d="M572 500v-500h-20v153q-29 -74 -94 -118.5t-147 -44.5q-72 0 -131.5 34.5t-94.5 94t-35 131.5t35 131.5t94.5 94t131.5 34.5q82 0 147 -44.5t94 -118.5v153h20zM433 40q55 32 87 87.5t32 122.5t-32 122.5t-87 87.5t-122 32t-122 -32t-87 -87.5t-32 -122.5t32 -122.5
t87 -87.5t122 -32t122 32zM255 690h-21l84 -120h17z" />
    <glyph glyph-name="amacron.ss01" horiz-adv-x="662" 
d="M572 500v-500h-20v153q-29 -74 -94 -118.5t-147 -44.5q-72 0 -131.5 34.5t-94.5 94t-35 131.5t35 131.5t94.5 94t131.5 34.5q82 0 147 -44.5t94 -118.5v153h20zM433 40q55 32 87 87.5t32 122.5t-32 122.5t-87 87.5t-122 32t-122 -32t-87 -87.5t-32 -122.5t32 -122.5
t87 -87.5t122 -32t122 32zM190 617h240v-16h-240v16z" />
    <glyph glyph-name="aogonek.ss01" horiz-adv-x="662" 
d="M499 -76q-24 -34 -24 -68q0 -23 14.5 -36.5t37.5 -13.5q26 0 45 8v-16q-17 -8 -45 -8q-32 0 -51 17.5t-19 48.5q0 70 95 149v148q-29 -74 -94 -118.5t-147 -44.5q-72 0 -131.5 34.5t-94.5 94t-35 131.5t35 131.5t94.5 94t131.5 34.5q82 0 147 -44.5t94 -118.5v153h20
v-500q-49 -42 -73 -76zM433 40q55 32 87 87.5t32 122.5t-32 122.5t-87 87.5t-122 32t-122 -32t-87 -87.5t-32 -122.5t32 -122.5t87 -87.5t122 -32t122 32z" />
    <glyph glyph-name="aring.ss01" horiz-adv-x="662" 
d="M572 500v-500h-20v153q-29 -74 -94 -118.5t-147 -44.5q-72 0 -131.5 34.5t-94.5 94t-35 131.5t35 131.5t94.5 94t131.5 34.5q82 0 147 -44.5t94 -118.5v153h20zM433 40q55 32 87 87.5t32 122.5t-32 122.5t-87 87.5t-122 32t-122 -32t-87 -87.5t-32 -122.5t32 -122.5
t87 -87.5t122 -32t122 32zM241.5 585.5q-26.5 25.5 -26.5 64.5t26.5 64.5t68.5 25.5q43 0 69 -25.5t26 -64.5t-26 -64.5t-69 -25.5q-42 0 -68.5 25.5zM365.5 596.5q21.5 20.5 21.5 53.5t-21.5 53.5t-55.5 20.5t-55.5 -20.5t-21.5 -53.5t21.5 -53.5t55.5 -20.5t55.5 20.5z
" />
    <glyph glyph-name="atilde.ss01" horiz-adv-x="662" 
d="M572 500v-500h-20v153q-29 -74 -94 -118.5t-147 -44.5q-72 0 -131.5 34.5t-94.5 94t-35 131.5t35 131.5t94.5 94t131.5 34.5q82 0 147 -44.5t94 -118.5v153h20zM433 40q55 32 87 87.5t32 122.5t-32 122.5t-87 87.5t-122 32t-122 -32t-87 -87.5t-32 -122.5t32 -122.5
t87 -87.5t122 -32t122 32zM198 655.5q16 24.5 42 24.5q36 0 75 -42q35 -36 62 -36q20 0 32 19t12 53h17q0 -41 -16.5 -65t-43.5 -24q-35 0 -73 41q-34 37 -63 37q-20 0 -31.5 -19.5t-11.5 -53.5h-17q0 41 16 65.5z" />
    <glyph glyph-name="ae.ss01" horiz-adv-x="1081" 
d="M929 474q54 -36 83 -96t29 -130v-10h-18h-451q3 -67 34 -119.5t83.5 -81.5t116.5 -29q71 0 124 33t73 88h21q-22 -64 -80.5 -101.5t-137.5 -37.5q-84 0 -146.5 44t-89.5 119v-153h-18v153q-29 -74 -94 -118.5t-147 -44.5q-72 0 -131.5 34.5t-94.5 94t-35 131.5t35 131.5
t94.5 94t131.5 34.5q82 0 147 -44.5t94 -118.5v153h18v-153q26 74 87.5 118.5t144.5 44.5q73 0 127 -36zM433 40q55 32 87 87.5t32 122.5t-32 122.5t-87 87.5t-122 32t-122 -32t-87 -87.5t-32 -122.5t32 -122.5t87 -87.5t122 -32t122 32zM1023 256q-4 70 -33 123.5t-78 83
t-110 29.5q-64 0 -116 -30t-82.5 -84t-31.5 -122h451z" />
    <glyph glyph-name="y.ss01" horiz-adv-x="535" 
d="M445 500v-535q0 -83 -50 -129t-125 -46q-79 0 -127 43t-48 112h20q0 -63 43 -100t112 -37t112 42t43 115v165q-18 -70 -70 -105t-115 -35q-73 0 -119 45t-46 128v337h20v-337q0 -72 39.5 -113.5t105.5 -41.5q50 0 92 24.5t67.5 72t25.5 113.5v282h20z" />
    <glyph glyph-name="yacute.ss01" horiz-adv-x="535" 
d="M445 500v-535q0 -83 -50 -129t-125 -46q-79 0 -127 43t-48 112h20q0 -63 43 -100t112 -37t112 42t43 115v165q-18 -70 -70 -105t-115 -35q-73 0 -119 45t-46 128v337h20v-337q0 -72 39.5 -113.5t105.5 -41.5q50 0 92 24.5t67.5 72t25.5 113.5v282h20zM253 570l83 120h-21
l-80 -120h18z" />
    <glyph glyph-name="ycircumflex.ss01" horiz-adv-x="535" 
d="M445 500v-535q0 -83 -50 -129t-125 -46q-79 0 -127 43t-48 112h20q0 -63 43 -100t112 -37t112 42t43 115v165q-18 -70 -70 -105t-115 -35q-73 0 -119 45t-46 128v337h20v-337q0 -72 39.5 -113.5t105.5 -41.5q50 0 92 24.5t67.5 72t25.5 113.5v282h20zM359 570l-101 108
l-101 -108h-22l112 120h22l112 -120h-22z" />
    <glyph glyph-name="ydieresis.ss01" horiz-adv-x="535" 
d="M445 500v-535q0 -83 -50 -129t-125 -46q-79 0 -127 43t-48 112h20q0 -63 43 -100t112 -37t112 42t43 115v165q-18 -70 -70 -105t-115 -35q-73 0 -119 45t-46 128v337h20v-337q0 -72 39.5 -113.5t105.5 -41.5q50 0 92 24.5t67.5 72t25.5 113.5v282h20zM160 640h20v-60h-20
v60zM340 640h20v-60h-20v60z" />
    <glyph glyph-name="ygrave.ss01" horiz-adv-x="535" 
d="M445 500v-535q0 -83 -50 -129t-125 -46q-79 0 -127 43t-48 112h20q0 -63 43 -100t112 -37t112 42t43 115v165q-18 -70 -70 -105t-115 -35q-73 0 -119 45t-46 128v337h20v-337q0 -72 39.5 -113.5t105.5 -41.5q50 0 92 24.5t67.5 72t25.5 113.5v282h20zM205 690h-21
l84 -120h17z" />
    <glyph glyph-name="f_f_j" horiz-adv-x="758" 
d="M668 -90q0 -56 -29.5 -88.5t-86.5 -32.5q-15 0 -23 1v18q8 -1 22 -1q49 0 73 27t24 76v572h-249v-482h-20v482h-249v-482h-20v482h-90v18h90v40q0 80 39 125.5t117 45.5q15 0 23 -1v-18q-7 1 -21 1q-71 0 -104.5 -40t-33.5 -113v-40h249v50q0 170 179 170q52 0 100 -10
v-18q-48 10 -100 10q-83 0 -121 -37.5t-38 -114.5v-50h269v-590z" />
    <glyph glyph-name="f_j" horiz-adv-x="489" 
d="M399 -90q0 -56 -29.5 -88.5t-86.5 -32.5q-15 0 -23 1v18q8 -1 22 -1q49 0 73 27t24 76v572h-249v-482h-20v482h-90v18h90v40q0 170 179 170q52 0 100 -10v-18q-48 10 -100 10q-83 0 -121 -37.5t-38 -114.5v-40h269v-590z" />
    <glyph glyph-name="uni0414.loclBGR" horiz-adv-x="710" 
d="M680 18v-18v-144h-20v144h-57h-517h-36v-144h-20v153v9h63l250 682h24l250 -682h63zM596 18l-241 661l-241 -661h482z" />
    <glyph glyph-name="uni041B.loclBGR" horiz-adv-x="598" 
d="M311 700l267 -700h-21l-258 678l-258 -678h-21l267 700h24z" />
    <glyph glyph-name="uni0424.loclBGR" horiz-adv-x="864" 
d="M757.5 163q-46.5 -81 -129 -126t-186.5 -47v-90h-20v90q-104 2 -186.5 47t-129 126t-46.5 187t46.5 187t129 126t186.5 47v90h20v-90q104 -2 186.5 -47t129 -126t46.5 -187t-46.5 -187zM121 175.5q41 -76.5 118.5 -121t182.5 -46.5v684q-105 -2 -182.5 -46.5t-118.5 -121
t-41 -174.5t41 -174.5zM624.5 54.5q77.5 44.5 118.5 121t41 174.5t-41 174.5t-118.5 121t-182.5 46.5v-684q105 2 182.5 46.5z" />
    <glyph glyph-name="uni0414.ss01" horiz-adv-x="650" 
d="M605 18v-18h-580v18h53q33 33 55 96.5t22 157.5v428h380v-682h70zM157.5 127q-17.5 -66 -53.5 -109h411v664h-340v-410q0 -79 -17.5 -145z" />
    <glyph glyph-name="uni0426.ss01" horiz-adv-x="650" 
d="M610 18v-18h-510v700h20v-682h400v682h20v-682h70z" />
    <glyph glyph-name="uni0429.ss01" horiz-adv-x="940" 
d="M900 18v-18h-800v700h20v-682h335v682h20v-682h335v682h20v-682h70z" />
    <glyph glyph-name="uni0414.loclBGR.ss01" horiz-adv-x="710" 
d="M680 18v-18h-77h-517h-56v18h63l250 682h24l250 -682h63zM596 18l-241 661l-241 -661h482z" />
    <glyph glyph-name="uni0432.loclBGR" horiz-adv-x="580" 
d="M487.5 339.5q42.5 -54.5 42.5 -139.5q0 -99 -58 -154.5t-162 -55.5t-162 63.5t-58 176.5v245q0 112 54 173.5t151 61.5q51 0 88.5 -21t57 -55.5t19.5 -74.5q0 -43 -24.5 -84.5t-71.5 -70.5q81 -10 123.5 -64.5zM158.5 635.5q-48.5 -56.5 -48.5 -160.5v-102l139 26
q44 9 85 7q52 29 79 70t27 83q0 35 -17 65t-50 49t-78 19q-88 0 -136.5 -56.5zM457.5 58.5q52.5 50.5 52.5 141.5q0 88 -47 138t-140 50q-36 0 -74 -7l-139 -26v-125q0 -105 52.5 -163.5t147.5 -58.5t147.5 50.5z" />
    <glyph glyph-name="uni0433.loclBGR" horiz-adv-x="460" 
d="M410 125q0 -38 -22 -69t-63 -48.5t-95 -17.5q-83 0 -131.5 34.5t-48.5 93.5q0 47 23.5 74.5t57.5 41t91 27.5q52 13 83 24.5t52 34.5t21 62q0 52 -39.5 81t-106.5 29q-66 0 -108 -33t-42 -86h-20q0 38 21 69.5t60 49.5t89 18q77 0 121.5 -35t44.5 -93q0 -45 -23 -72
t-56.5 -40t-89.5 -26q-54 -13 -85 -25t-52.5 -36t-21.5 -65q0 -53 43.5 -81.5t116.5 -28.5q72 0 116 32t44 85h20z" />
    <glyph glyph-name="uni0434.loclBGR" horiz-adv-x="672" 
d="M582 500v-469q0 -111 -65 -176t-181 -65q-68 0 -122 25t-84 65t-30 82h20q0 -37 27.5 -72.5t76.5 -58.5t112 -23q107 0 166.5 60t59.5 163v126q-27 -75 -92.5 -121t-148.5 -46q-72 0 -131.5 34.5t-94.5 94t-35 131.5t35 131.5t94.5 94t131.5 34.5q83 0 148.5 -46
t92.5 -121v157h20zM443 40q55 32 87 87.5t32 122.5t-32 122.5t-87 87.5t-122 32t-122 -32t-87 -87.5t-32 -122.5t32 -122.5t87 -87.5t122 -32t122 32z" />
    <glyph glyph-name="uni0436.loclBGR" horiz-adv-x="642" 
d="M586 0l-255 253v-253h-20v253l-255 -253h-26l261 260l-251 240h26l245 -233v433h20v-433l245 233h26l-251 -240l261 -260h-26z" />
    <glyph glyph-name="uni0438.loclBGR" horiz-adv-x="535" 
d="M445 500v-500h-20v124q-20 -67 -72 -100.5t-113 -33.5q-73 0 -119 45t-46 128v337h20v-337q0 -72 39.5 -113.5t105.5 -41.5q50 0 92 24.5t67.5 72t25.5 113.5v282h20z" />
    <glyph glyph-name="uni0439.loclBGR" horiz-adv-x="535" 
d="M445 500v-500h-20v124q-20 -67 -72 -100.5t-113 -33.5q-73 0 -119 45t-46 128v337h20v-337q0 -72 39.5 -113.5t105.5 -41.5q50 0 92 24.5t67.5 72t25.5 113.5v282h20zM135 617h240v-16h-240v16z" />
    <glyph glyph-name="uni043A.loclBGR" horiz-adv-x="461" 
d="M403 0l-293 254v-254h-20v700h20v-434l283 234h28l-290 -240l300 -260h-28z" />
    <glyph glyph-name="uni043B.loclBGR" horiz-adv-x="492" 
d="M451 0l-205 477l-205 -477h-21l215 500h21h1l215 -500h-21z" />
    <glyph glyph-name="uni043F.loclBGR" horiz-adv-x="535" 
d="M414 465q46 -45 46 -128v-337h-20v337q0 72 -39.5 113.5t-105.5 41.5q-50 0 -92 -24.5t-67.5 -72t-25.5 -113.5v-282h-20v500h20v-124q20 67 72 100.5t113 33.5q73 0 119 -45z" />
    <glyph glyph-name="uni0442.loclBGR" horiz-adv-x="795" 
d="M678.5 469.5q41.5 -40.5 41.5 -122.5v-347h-20v347q0 71 -35.5 108t-94.5 37q-40 0 -75.5 -22t-57.5 -65t-22 -103v-302h-20v347q0 71 -35.5 108t-94.5 37q-40 0 -75.5 -22t-57.5 -65t-22 -103v-302h-20v500h20v-107q19 60 62.5 88.5t92.5 28.5q58 0 98 -31.5t49 -94.5
q17 64 62.5 95t95.5 31q67 0 108.5 -40.5z" />
    <glyph glyph-name="uni0446.loclBGR" horiz-adv-x="555" 
d="M515 18v-18v-144h-20v144q-33 0 -51.5 18.5t-18.5 51.5v60q-18 -70 -70 -105t-115 -35q-73 0 -119 45t-46 128v337h20v-337q0 -72 39.5 -113.5t105.5 -41.5q50 0 92 24.5t67.5 72t25.5 113.5v282h20v-430q0 -25 13.5 -38.5t36.5 -13.5h20z" />
    <glyph glyph-name="uni0448.loclBGR" horiz-adv-x="795" 
d="M705 500v-500h-20v107q-19 -60 -62.5 -88.5t-92.5 -28.5q-58 0 -98 31.5t-49 94.5q-17 -64 -62.5 -95t-95.5 -31q-67 0 -108.5 40.5t-41.5 122.5v347h20v-347q0 -71 35.5 -108t94.5 -37q40 0 75.5 22t57.5 65t22 103v302h20v-347q0 -71 35.5 -108t94.5 -37q40 0 75.5 22
t57.5 65t22 103v302h20z" />
    <glyph glyph-name="uni0449.loclBGR" horiz-adv-x="815" 
d="M775 18v-18v-144h-20v144q-33 0 -51.5 18.5t-18.5 51.5v42q-16 -62 -60.5 -92t-94.5 -30q-59 0 -99 31.5t-49 95.5q-15 -64 -60.5 -95.5t-96.5 -31.5q-67 0 -108.5 40.5t-41.5 122.5v347h20v-347q0 -71 35.5 -108t94.5 -37q40 0 75.5 22t57.5 65t22 103v302h20v-347
q0 -71 35.5 -108t94.5 -37q40 0 75.5 22t57.5 65t22 103v302h20v-430q0 -25 13.5 -38.5t36.5 -13.5h20z" />
    <glyph glyph-name="uni044C.loclBGR" horiz-adv-x="485" 
d="M394 276q51 -44 51 -116q0 -48 -23 -86.5t-65.5 -61t-96.5 -22.5q-91 0 -138 46.5t-47 123.5v340h20v-180h165q83 0 134 -44zM346 28q38 20 58.5 55t20.5 77q0 64 -45.5 103t-119.5 39h-165v-142q0 -68 42 -110t123 -42q48 0 86 20z" />
    <glyph glyph-name="uni044A.loclBGR" horiz-adv-x="570" 
d="M479 276q51 -44 51 -116q0 -48 -23 -86.5t-65.5 -61t-96.5 -22.5q-91 0 -138 46.5t-47 123.5v322h-160v18h170h10v-180h165q83 0 134 -44zM431 28q38 20 58.5 55t20.5 77q0 64 -45.5 103t-119.5 39h-165v-142q0 -68 42 -110t123 -42q48 0 86 20z" />
    <glyph glyph-name="uni044E.loclBGR" horiz-adv-x="810" 
d="M630.5 475.5q59.5 -34.5 94.5 -94t35 -131.5t-35 -131.5t-94.5 -94t-131.5 -34.5q-70 0 -129 33t-94.5 90.5t-37.5 127.5h-128v-241h-20v700h20v-441h128q2 70 37.5 127.5t94.5 90.5t129 33q72 0 131.5 -34.5zM621 40q55 32 87 87.5t32 122.5t-32 122.5t-87 87.5t-122 32
t-122 -32t-87 -87.5t-32 -122.5t32 -122.5t87 -87.5t122 -32t122 32z" />
    <glyph glyph-name="uni0430.ss01" horiz-adv-x="662" 
d="M572 500v-500h-20v153q-29 -74 -94 -118.5t-147 -44.5q-72 0 -131.5 34.5t-94.5 94t-35 131.5t35 131.5t94.5 94t131.5 34.5q82 0 147 -44.5t94 -118.5v153h20zM433 40q55 32 87 87.5t32 122.5t-32 122.5t-87 87.5t-122 32t-122 -32t-87 -87.5t-32 -122.5t32 -122.5
t87 -87.5t122 -32t122 32z" />
    <glyph glyph-name="uni0443.ss01" horiz-adv-x="535" 
d="M445 500v-535q0 -83 -50 -129t-125 -46q-79 0 -127 43t-48 112h20q0 -63 43 -100t112 -37t112 42t43 115v165q-18 -70 -70 -105t-115 -35q-73 0 -119 45t-46 128v337h20v-337q0 -72 39.5 -113.5t105.5 -41.5q50 0 92 24.5t67.5 72t25.5 113.5v282h20z" />
    <glyph glyph-name="zero.sinf" horiz-adv-x="410" 
d="M85 -113.5q-45 58.5 -45 153.5t45 153.5t120 58.5t120 -58.5t45 -153.5t-45 -153.5t-120 -58.5t-120 58.5zM311 -101.5q39 52.5 39 141.5t-39 141.5t-106 52.5t-106 -52.5t-39 -141.5t39 -141.5t106 -52.5t106 52.5z" />
    <glyph glyph-name="one.sinf" horiz-adv-x="245" 
d="M175 240v-400h-20v380l-125 -67v20l125 67h20z" />
    <glyph glyph-name="two.sinf" horiz-adv-x="346" 
d="M40 -145l188 180q24 22 37 49.5t13 54.5q0 37 -28.5 66t-73.5 29q-50 0 -80 -28t-30 -71h-20q0 51 36 84t94 33q36 0 64 -16t43 -41.5t15 -54.5q0 -34 -13.5 -61.5t-42.5 -55.5l-173 -165h237v-18h-266v15z" />
    <glyph glyph-name="three.sinf" horiz-adv-x="343" 
d="M271 37q32 -35 32 -85q0 -53 -35.5 -88.5t-98.5 -35.5t-98.5 35.5t-35.5 88.5h20q0 -45 29.5 -75.5t84.5 -30.5t84.5 30.5t29.5 75.5t-29.5 75.5t-84.5 30.5h-10v15l108 149h-217v18h238v-18l-106 -146q57 -4 89 -39z" />
    <glyph glyph-name="four.sinf" horiz-adv-x="359" 
d="M329 -70h-62v-90h-20v90h-227v18l154 292h20l-153 -292h206v121h20v-121h62v-18z" />
    <glyph glyph-name="five.sinf" horiz-adv-x="336" 
d="M259.5 41q36.5 -35 36.5 -89t-36.5 -89t-96.5 -35t-96.5 35t-36.5 89h20q0 -49 31 -77.5t82 -28.5t82 28.5t31 77.5t-31 77.5t-82 28.5h-110l15 182h212v-18h-194l-13 -146h90q60 0 96.5 -35z" />
    <glyph glyph-name="six.sinf" horiz-adv-x="335" 
d="M265.5 50.5q39.5 -36.5 39.5 -92.5q0 -57 -39.5 -93.5t-98.5 -36.5q-58 0 -97.5 36.5t-39.5 93.5q0 36 18 67l140 215h22l-109 -168q29 15 66 15q59 0 98.5 -36.5zM251.5 -123q33.5 31 33.5 81q0 49 -34 80t-84 31t-83.5 -31t-33.5 -80q0 -50 33.5 -81t83.5 -31
q51 0 84.5 31z" />
    <glyph glyph-name="seven.sinf" horiz-adv-x="336" 
d="M296 240v-16l-168 -384h-22l167 382h-243v18h266z" />
    <glyph glyph-name="eight.sinf" horiz-adv-x="355" 
d="M292.5 9q22.5 -29 22.5 -68q0 -51 -38 -82t-99 -31t-99.5 31t-38.5 82q0 39 23 68t61 41q-32 12 -51.5 36t-19.5 57q0 51 36 80t89 29t88.5 -29t35.5 -80q0 -33 -19.5 -57t-50.5 -36q38 -12 60.5 -41zM104 81.5q31 -23.5 74 -23.5q42 0 73 23.5t31 61.5q0 43 -30 67
t-74 24q-45 0 -75 -24t-30 -67q0 -38 31 -61.5zM262.5 -128.5q32.5 25.5 32.5 69.5q0 45 -33 72t-84 27t-84.5 -27t-33.5 -72q0 -44 32.5 -69.5t85.5 -25.5q52 0 84.5 25.5z" />
    <glyph glyph-name="nine.sinf" horiz-adv-x="335" 
d="M287 55l-140 -215h-22l109 168q-28 -15 -66 -15q-59 0 -98.5 36.5t-39.5 92.5q0 57 39.5 93.5t98.5 36.5q58 0 97.5 -36.5t39.5 -93.5q0 -36 -18 -67zM84 42q34 -31 84 -31t83.5 31t33.5 80q0 50 -33.5 81t-83.5 31q-51 0 -84.5 -31t-33.5 -81q0 -49 34 -80z" />
    <glyph glyph-name="zero.tf" horiz-adv-x="570" 
d="M148.5 34.5q-57.5 44.5 -88 126t-30.5 189.5t30.5 189.5t88 126t136.5 44.5t136.5 -44.5t88 -126t30.5 -189.5t-30.5 -189.5t-88 -126t-136.5 -44.5t-136.5 44.5zM410 49q53 41 81.5 118.5t28.5 182.5t-28.5 182.5t-81.5 118.5t-125 41t-125 -41t-81.5 -118.5
t-28.5 -182.5t28.5 -182.5t81.5 -118.5t125 -41t125 41z" />
    <glyph glyph-name="one.tf" horiz-adv-x="570" 
d="M545 20v-20h-235h-265v20h265v659l-214 -115v21l214 115h20v-680h215z" />
    <glyph glyph-name="two.tf" horiz-adv-x="570" 
d="M60 18l296 264q63 56 98.5 109t35.5 109q0 86 -54.5 139t-150.5 53q-59 0 -105.5 -25t-73 -68t-26.5 -94h-20q0 59 30.5 106t82.5 73t112 26q66 0 117 -25.5t79.5 -73t28.5 -111.5q0 -59 -38 -115.5t-103 -115.5l-283 -251h444v-18h-470v18z" />
    <glyph glyph-name="three.tf" horiz-adv-x="570" 
d="M419.5 381q52.5 -27 81.5 -74t29 -107q0 -62 -30.5 -110t-86.5 -74t-128 -26t-128 26t-86.5 74t-30.5 110h20q0 -55 26.5 -98.5t77 -68.5t121.5 -25t121.5 25t77 68.5t26.5 98.5t-26.5 98.5t-77 68.5t-121.5 25h-14v12l197 278h-398v18h420v-18l-192 -272
q69 -2 121.5 -29z" />
    <glyph glyph-name="four.tf" horiz-adv-x="570" 
d="M530 160h-90v-160h-20v160h-390v18l276 522h22l-276 -522h368v232h20v-232h90v-18z" />
    <glyph glyph-name="five.tf" horiz-adv-x="570" 
d="M409.5 384q54.5 -26 85 -74t30.5 -110t-30.5 -110t-85 -74t-124.5 -26t-124.5 26t-85 74t-30.5 110h20q0 -54 26 -98t76 -69t118 -25t118 25t76 69t26 98t-26 98t-76 69t-118 25h-201l21 308h390v-18h-372l-18 -272h180q70 0 124.5 -26z" />
    <glyph glyph-name="six.tf" horiz-adv-x="570" 
d="M412.5 421q55.5 -29 86.5 -81.5t31 -119.5t-31 -119.5t-86.5 -81.5t-127.5 -29t-127.5 29t-86.5 81.5t-31 119.5q0 83 47 143l251 337h22l-210 -283q60 33 135 33q72 0 127.5 -29zM406 36q51 28 77.5 76t26.5 108t-26.5 108t-77.5 76t-121 28t-121 -28t-77.5 -76
t-26.5 -108t26.5 -108t77.5 -76t121 -28t121 28z" />
    <glyph glyph-name="seven.tf" horiz-adv-x="570" 
d="M510 700v-18l-317 -682h-20l317 682h-450v18h470z" />
    <glyph glyph-name="eight.tf" horiz-adv-x="570" 
d="M482.5 297.5q42.5 -47.5 42.5 -117.5q0 -87 -64.5 -138.5t-175.5 -51.5t-175.5 51.5t-64.5 138.5q0 70 42.5 117.5t118.5 64.5q-65 17 -102 62t-37 107q0 53 27 93.5t76.5 63t114.5 22.5t114.5 -22.5t76.5 -63t27 -93.5q0 -62 -37 -107t-102 -62q76 -17 118.5 -64.5z
M110 449.5q23 -36.5 67.5 -58t107.5 -21.5t107.5 21.5t67.5 58t23 81.5t-23 81.5t-67.5 58t-107.5 21.5t-107.5 -21.5t-67.5 -58t-23 -81.5t23 -81.5zM448 55.5q57 47.5 57 124.5t-57 124.5t-163 47.5t-163 -47.5t-57 -124.5t57 -124.5t163 -47.5t163 47.5z" />
    <glyph glyph-name="nine.tf" horiz-adv-x="570" 
d="M483 337l-251 -337h-22l210 283q-60 -33 -135 -33q-72 0 -127.5 29t-86.5 81.5t-31 119.5t31 119.5t86.5 81.5t127.5 29t127.5 -29t86.5 -81.5t31 -119.5q0 -83 -47 -143zM86.5 372q26.5 -48 77.5 -76t121 -28t121 28t77.5 76t26.5 108t-26.5 108t-77.5 76t-121 28
t-121 -28t-77.5 -76t-26.5 -108t26.5 -108z" />
    <glyph glyph-name="zero.dnom" horiz-adv-x="410" 
d="M85 46.5q-45 58.5 -45 153.5t45 153.5t120 58.5t120 -58.5t45 -153.5t-45 -153.5t-120 -58.5t-120 58.5zM311 58.5q39 52.5 39 141.5t-39 141.5t-106 52.5t-106 -52.5t-39 -141.5t39 -141.5t106 -52.5t106 52.5z" />
    <glyph glyph-name="one.dnom" horiz-adv-x="245" 
d="M175 400v-400h-20v380l-125 -67v20l125 67h20z" />
    <glyph glyph-name="two.dnom" horiz-adv-x="346" 
d="M40 15l188 180q24 22 37 49.5t13 54.5q0 37 -28.5 66t-73.5 29q-50 0 -80 -28t-30 -71h-20q0 51 36 84t94 33q36 0 64 -16t43 -41.5t15 -54.5q0 -34 -13.5 -61.5t-42.5 -55.5l-173 -165h237v-18h-266v15z" />
    <glyph glyph-name="three.dnom" horiz-adv-x="343" 
d="M271 197q32 -35 32 -85q0 -53 -35.5 -88.5t-98.5 -35.5t-98.5 35.5t-35.5 88.5h20q0 -45 29.5 -75.5t84.5 -30.5t84.5 30.5t29.5 75.5t-29.5 75.5t-84.5 30.5h-10v15l108 149h-217v18h238v-18l-106 -146q57 -4 89 -39z" />
    <glyph glyph-name="four.dnom" horiz-adv-x="359" 
d="M329 90h-62v-90h-20v90h-227v18l154 292h20l-153 -292h206v121h20v-121h62v-18z" />
    <glyph glyph-name="five.dnom" horiz-adv-x="336" 
d="M259.5 201q36.5 -35 36.5 -89t-36.5 -89t-96.5 -35t-96.5 35t-36.5 89h20q0 -49 31 -77.5t82 -28.5t82 28.5t31 77.5t-31 77.5t-82 28.5h-110l15 182h212v-18h-194l-13 -146h90q60 0 96.5 -35z" />
    <glyph glyph-name="six.dnom" horiz-adv-x="335" 
d="M265.5 210.5q39.5 -36.5 39.5 -92.5q0 -57 -39.5 -93.5t-98.5 -36.5q-58 0 -97.5 36.5t-39.5 93.5q0 36 18 67l140 215h22l-109 -168q29 15 66 15q59 0 98.5 -36.5zM251.5 37q33.5 31 33.5 81q0 49 -34 80t-84 31t-83.5 -31t-33.5 -80q0 -50 33.5 -81t83.5 -31
q51 0 84.5 31z" />
    <glyph glyph-name="seven.dnom" horiz-adv-x="336" 
d="M296 400v-16l-168 -384h-22l167 382h-243v18h266z" />
    <glyph glyph-name="eight.dnom" horiz-adv-x="355" 
d="M292.5 169q22.5 -29 22.5 -68q0 -51 -38 -82t-99 -31t-99.5 31t-38.5 82q0 39 23 68t61 41q-32 12 -51.5 36t-19.5 57q0 51 36 80t89 29t88.5 -29t35.5 -80q0 -33 -19.5 -57t-50.5 -36q38 -12 60.5 -41zM104 241.5q31 -23.5 74 -23.5q42 0 73 23.5t31 61.5q0 43 -30 67
t-74 24q-45 0 -75 -24t-30 -67q0 -38 31 -61.5zM262.5 31.5q32.5 25.5 32.5 69.5q0 45 -33 72t-84 27t-84.5 -27t-33.5 -72q0 -44 32.5 -69.5t85.5 -25.5q52 0 84.5 25.5z" />
    <glyph glyph-name="nine.dnom" horiz-adv-x="335" 
d="M287 215l-140 -215h-22l109 168q-28 -15 -66 -15q-59 0 -98.5 36.5t-39.5 92.5q0 57 39.5 93.5t98.5 36.5q58 0 97.5 -36.5t39.5 -93.5q0 -36 -18 -67zM84 202q34 -31 84 -31t83.5 31t33.5 80q0 50 -33.5 81t-83.5 31q-51 0 -84.5 -31t-33.5 -81q0 -49 34 -80z" />
    <glyph glyph-name="zero.numr" horiz-adv-x="410" 
d="M85 346.5q-45 58.5 -45 153.5t45 153.5t120 58.5t120 -58.5t45 -153.5t-45 -153.5t-120 -58.5t-120 58.5zM311 358.5q39 52.5 39 141.5t-39 141.5t-106 52.5t-106 -52.5t-39 -141.5t39 -141.5t106 -52.5t106 52.5z" />
    <glyph glyph-name="one.numr" horiz-adv-x="245" 
d="M175 700v-400h-20v380l-125 -67v20l125 67h20z" />
    <glyph glyph-name="two.numr" horiz-adv-x="346" 
d="M40 315l188 180q24 22 37 49.5t13 54.5q0 37 -28.5 66t-73.5 29q-50 0 -80 -28t-30 -71h-20q0 51 36 84t94 33q36 0 64 -16t43 -41.5t15 -54.5q0 -34 -13.5 -61.5t-42.5 -55.5l-173 -165h237v-18h-266v15z" />
    <glyph glyph-name="three.numr" horiz-adv-x="343" 
d="M271 497q32 -35 32 -85q0 -53 -35.5 -88.5t-98.5 -35.5t-98.5 35.5t-35.5 88.5h20q0 -45 29.5 -75.5t84.5 -30.5t84.5 30.5t29.5 75.5t-29.5 75.5t-84.5 30.5h-10v15l108 149h-217v18h238v-18l-106 -146q57 -4 89 -39z" />
    <glyph glyph-name="four.numr" horiz-adv-x="359" 
d="M329 390h-62v-90h-20v90h-227v18l154 292h20l-153 -292h206v121h20v-121h62v-18z" />
    <glyph glyph-name="five.numr" horiz-adv-x="336" 
d="M259.5 501q36.5 -35 36.5 -89t-36.5 -89t-96.5 -35t-96.5 35t-36.5 89h20q0 -49 31 -77.5t82 -28.5t82 28.5t31 77.5t-31 77.5t-82 28.5h-110l15 182h212v-18h-194l-13 -146h90q60 0 96.5 -35z" />
    <glyph glyph-name="six.numr" horiz-adv-x="335" 
d="M265.5 510.5q39.5 -36.5 39.5 -92.5q0 -57 -39.5 -93.5t-98.5 -36.5q-58 0 -97.5 36.5t-39.5 93.5q0 36 18 67l140 215h22l-109 -168q29 15 66 15q59 0 98.5 -36.5zM251.5 337q33.5 31 33.5 81q0 49 -34 80t-84 31t-83.5 -31t-33.5 -80q0 -50 33.5 -81t83.5 -31
q51 0 84.5 31z" />
    <glyph glyph-name="seven.numr" horiz-adv-x="336" 
d="M296 700v-16l-168 -384h-22l167 382h-243v18h266z" />
    <glyph glyph-name="eight.numr" horiz-adv-x="355" 
d="M292.5 469q22.5 -29 22.5 -68q0 -51 -38 -82t-99 -31t-99.5 31t-38.5 82q0 39 23 68t61 41q-32 12 -51.5 36t-19.5 57q0 51 36 80t89 29t88.5 -29t35.5 -80q0 -33 -19.5 -57t-50.5 -36q38 -12 60.5 -41zM104 541.5q31 -23.5 74 -23.5q42 0 73 23.5t31 61.5q0 43 -30 67
t-74 24q-45 0 -75 -24t-30 -67q0 -38 31 -61.5zM262.5 331.5q32.5 25.5 32.5 69.5q0 45 -33 72t-84 27t-84.5 -27t-33.5 -72q0 -44 32.5 -69.5t85.5 -25.5q52 0 84.5 25.5z" />
    <glyph glyph-name="nine.numr" horiz-adv-x="335" 
d="M287 515l-140 -215h-22l109 168q-28 -15 -66 -15q-59 0 -98.5 36.5t-39.5 92.5q0 57 39.5 93.5t98.5 36.5q58 0 97.5 -36.5t39.5 -93.5q0 -36 -18 -67zM84 502q34 -31 84 -31t83.5 31t33.5 80q0 50 -33.5 81t-83.5 31q-51 0 -84.5 -31t-33.5 -81q0 -49 34 -80z" />
    <glyph glyph-name="zero.sups" horiz-adv-x="410" 
d="M85 506.5q-45 58.5 -45 153.5t45 153.5t120 58.5t120 -58.5t45 -153.5t-45 -153.5t-120 -58.5t-120 58.5zM311 518.5q39 52.5 39 141.5t-39 141.5t-106 52.5t-106 -52.5t-39 -141.5t39 -141.5t106 -52.5t106 52.5z" />
    <glyph glyph-name="one.sups" horiz-adv-x="245" 
d="M175 860v-400h-20v380l-125 -67v20l125 67h20z" />
    <glyph glyph-name="two.sups" horiz-adv-x="346" 
d="M40 475l188 180q24 22 37 49.5t13 54.5q0 37 -28.5 66t-73.5 29q-50 0 -80 -28t-30 -71h-20q0 51 36 84t94 33q36 0 64 -16t43 -41.5t15 -54.5q0 -34 -13.5 -61.5t-42.5 -55.5l-173 -165h237v-18h-266v15z" />
    <glyph glyph-name="three.sups" horiz-adv-x="343" 
d="M271 657q32 -35 32 -85q0 -53 -35.5 -88.5t-98.5 -35.5t-98.5 35.5t-35.5 88.5h20q0 -45 29.5 -75.5t84.5 -30.5t84.5 30.5t29.5 75.5t-29.5 75.5t-84.5 30.5h-10v15l108 149h-217v18h238v-18l-106 -146q57 -4 89 -39z" />
    <glyph glyph-name="four.sups" horiz-adv-x="359" 
d="M329 550h-62v-90h-20v90h-227v18l154 292h20l-153 -292h206v121h20v-121h62v-18z" />
    <glyph glyph-name="five.sups" horiz-adv-x="336" 
d="M259.5 661q36.5 -35 36.5 -89t-36.5 -89t-96.5 -35t-96.5 35t-36.5 89h20q0 -49 31 -77.5t82 -28.5t82 28.5t31 77.5t-31 77.5t-82 28.5h-110l15 182h212v-18h-194l-13 -146h90q60 0 96.5 -35z" />
    <glyph glyph-name="six.sups" horiz-adv-x="335" 
d="M265.5 670.5q39.5 -36.5 39.5 -92.5q0 -57 -39.5 -93.5t-98.5 -36.5q-58 0 -97.5 36.5t-39.5 93.5q0 36 18 67l140 215h22l-109 -168q29 15 66 15q59 0 98.5 -36.5zM251.5 497q33.5 31 33.5 81q0 49 -34 80t-84 31t-83.5 -31t-33.5 -80q0 -50 33.5 -81t83.5 -31
q51 0 84.5 31z" />
    <glyph glyph-name="seven.sups" horiz-adv-x="336" 
d="M296 860v-16l-168 -384h-22l167 382h-243v18h266z" />
    <glyph glyph-name="eight.sups" horiz-adv-x="355" 
d="M292.5 629q22.5 -29 22.5 -68q0 -51 -38 -82t-99 -31t-99.5 31t-38.5 82q0 39 23 68t61 41q-32 12 -51.5 36t-19.5 57q0 51 36 80t89 29t88.5 -29t35.5 -80q0 -33 -19.5 -57t-50.5 -36q38 -12 60.5 -41zM104 701.5q31 -23.5 74 -23.5q42 0 73 23.5t31 61.5q0 43 -30 67
t-74 24q-45 0 -75 -24t-30 -67q0 -38 31 -61.5zM262.5 491.5q32.5 25.5 32.5 69.5q0 45 -33 72t-84 27t-84.5 -27t-33.5 -72q0 -44 32.5 -69.5t85.5 -25.5q52 0 84.5 25.5z" />
    <glyph glyph-name="nine.sups" horiz-adv-x="335" 
d="M287 675l-140 -215h-22l109 168q-28 -15 -66 -15q-59 0 -98.5 36.5t-39.5 92.5q0 57 39.5 93.5t98.5 36.5q58 0 97.5 -36.5t39.5 -93.5q0 -36 -18 -67zM84 662q34 -31 84 -31t83.5 31t33.5 80q0 50 -33.5 81t-83.5 31q-51 0 -84.5 -31t-33.5 -81q0 -49 34 -80z" />
    <glyph glyph-name="cent.tf" horiz-adv-x="570" 
d="M435.5 144q56.5 36 79.5 96h20q-23 -68 -85.5 -109t-144.5 -41q-45 0 -83 13l-35 -103h-20l37 109q-73 29 -116.5 94t-43.5 147q0 73 34 132.5t94 93.5t133 34q30 0 65 -7l33 97h20l-35 -102q53 -17 92 -53t55 -85h-20q-16 43 -50.5 74.5t-81.5 45.5l-156 -460
q36 -12 78 -12q74 0 130.5 36zM104 213.5q40 -60.5 106 -87.5l154 459q-25 7 -59 7q-68 0 -123 -32t-86.5 -87.5t-31.5 -122.5q0 -76 40 -136.5z" />
    <glyph glyph-name="dollar.tf" horiz-adv-x="570" 
d="M419 318.5q43 -19.5 72 -55t29 -93.5q0 -52 -27.5 -93t-77.5 -64t-115 -23h-5v-90h-20v91q-104 5 -164.5 51.5t-60.5 127.5h20q0 -70 53 -113.5t152 -47.5v341q-67 21 -109.5 42t-70 57t-27.5 91q0 47 25.5 85t72.5 61t109 24v90h20v-90q57 -2 103.5 -25.5t73 -62.5
t26.5 -87h-20q0 40 -22.5 75t-64 57.5t-96.5 24.5v-328l6 -2q75 -24 118 -43.5zM112 459q24 -32 62 -50.5t101 -38.5v322q-60 -1 -102 -22.5t-63.5 -56t-21.5 -73.5q0 -49 24 -81zM408 29.5q45 21.5 68.5 58.5t23.5 82q0 53 -26.5 85t-66 49t-112.5 40v-336h5q63 0 108 21.5
z" />
    <glyph glyph-name="Euro.tf" horiz-adv-x="570" 
d="M412.5 31q41.5 23 69 66.5t33.5 102.5h20q-7 -64 -36.5 -111.5t-75 -73t-100.5 -25.5q-98 0 -160 75.5t-76 206.5h-72v18h70q-2 38 -2 60t2 60h-70v18h72q14 131 76 206.5t160 75.5q55 0 100.5 -25.5t75 -73t36.5 -111.5h-20q-10 89 -64 140.5t-128 51.5
q-88 0 -145 -69.5t-71 -194.5h286v-18h-288q-2 -38 -2 -60t2 -60h288v-18h-286q14 -125 71 -194.5t145 -69.5q48 0 89.5 23z" />
    <glyph glyph-name="florin.tf" horiz-adv-x="570" 
d="M401 678q34 32 82 32q20 0 47 -8v-20q-24 10 -48 10q-40 0 -68 -28t-40 -78l-52 -226h159v-19h-164l-100 -435q-13 -56 -47.5 -88t-82.5 -32q-20 0 -47 8v20q24 -10 49 -10q39 0 67.5 28t40.5 78l100 431h-156v19h160l53 230q13 56 47 88z" />
    <glyph glyph-name="uni20BD.tf" horiz-adv-x="570" 
d="M120 300v-122h300v-18h-300v-160h-20v160h-90v18h90v122h-90v18h90v382h20h220q54 0 100 -27t73 -73t27 -100t-27 -100t-73 -73t-100 -27h-220zM120 318h220q49 0 90 24.5t65.5 66.5t24.5 91t-24.5 91t-65.5 66.5t-90 24.5h-220v-364z" />
    <glyph glyph-name="sterling.tf" horiz-adv-x="570" 
d="M530 18v-18h-530v18h110v283h-90v18h90v206q0 54 25.5 96.5t70 65.5t99.5 23t99.5 -23t70 -65.5t25.5 -96.5v-25h-20v25q0 47 -21 85t-60.5 60t-93.5 22t-93.5 -22t-60.5 -60t-21 -85v-206h260v-18h-260v-283h400z" />
    <glyph glyph-name="yen.tf" horiz-adv-x="570" 
d="M300 337h191v-18h-196v-110h196v-18h-196v-191h-20v191h-194v18h194v110h-194v18h189l-245 363h22l238 -354l238 354h22z" />
    <glyph glyph-name="brevecy" horiz-adv-x="280" 
d="M20 617h240v-16h-240v16z" />
    </font>
</defs>
</svg>
